<?xml version="1.0" encoding="UTF-8"?>
<svg xmlns="http://www.w3.org/2000/svg" xml:space="preserve" width="8.71455cm" height="10.8926cm" version="1.1" shape-rendering="geometricPrecision" text-rendering="geometricPrecision" image-rendering="optimizeQuality" fill-rule="evenodd" clip-rule="evenodd"
viewBox="0 0 5217.97 6522.09"
 xmlns:xlink="http://www.w3.org/1999/xlink">
 <g id="Layer_x0020_1">
  <metadata id="CorelCorpID_0Corel-Layer"/>
  <g id="_1577774657568">
   <path fill="#FFD521" d="M2989.95 2449.36l-74.58 -6.7c-13.3,-63.73 -6.98,-25.7 -4.75,-58.18 0.28,-4.05 1.45,-5.3 3.37,-7.07 20.12,-17.93 11.54,-19.9 40.89,-34.88 58.24,-29.73 148.19,-6.48 165.04,67.84 -37.96,-21.68 -58.52,-57.59 -120.47,-53.94 -8.35,84.14 17.78,61.8 33.91,113.11l-43.4 -20.2zm-141.75 35.61c23.91,27.51 19.69,33.81 53.13,56.18 116.06,77.65 206.77,4.55 264.46,-14.31 -53.1,105.17 -310.29,107.21 -357.9,-74.38 -51.34,-195.86 156.08,-297.05 285.49,-199.9l-17.67 3.45c-69.13,16.95 -65.54,-18.97 -144.89,25.73 -40.09,22.58 -62.77,27.39 -82.35,98.31 -14.92,54.04 8.88,85 -0.27,104.91zm135.49 -2290.37l-31.29 -10.9c-1.62,5.35 -5.23,-5.16 -2.86,22.42 0.23,2.6 1.71,10.42 2.62,12.72 13.16,33.2 44.93,15.75 37.9,57.42 -18.33,-6.05 -12.38,-5.29 -24.6,-16.08 -50.95,-44.95 4.2,-38.84 -50.79,-53.87 -18.29,12.87 -8.41,1.18 -19.34,19.41 -13.13,21.88 -6.39,43.85 -11.71,65.62l-29.26 70.22c-40.06,-6.35 0.86,-12.47 -76.31,-42.37l5.49 -31.45c-3.21,-11.22 -0.17,-5 -9.12,-16.88 -22.16,-29.42 -84.71,-91.89 -118.93,-90.12 -32.24,61.72 -19.02,150.57 -21.17,222.39 -57.85,-13.84 -135.47,-138.33 -225.76,-130.15 -23.27,67.33 -13.14,143.99 -15.81,218.82 -20.02,-7.84 -11.23,-6.46 -29.84,-10.26l-36.2 -11.4c1.36,69.61 6.4,37.59 9.75,38.76 -27.31,1.43 -16.45,5.61 -29.25,-24.21l-10.7 -22.08c-11.44,13.8 -8.17,5.8 -14.2,28.81 -2.12,8.11 -0.02,12.36 0.62,19.68 -5.62,-5.79 -19.86,-10.35 -29.2,-4.19 -25.26,16.66 -0.59,-15.87 -11.05,15.4 -5.26,15.69 6.21,46.61 13.5,55.34 13.65,16.33 -33.23,12.69 26.41,13.07l-1.15 23.75c-1.75,-2.38 -7.58,-24.91 -45.48,-3.32 -16.87,9.61 -22.2,29.3 -33.82,4.19l-48.85 -50.95 -30.66 14.71c-18.67,21.01 -12.68,8.72 -13.65,47.71 31.56,8.75 14.6,13.07 54.67,16.92l-25.43 8.77c-8.16,-56.45 -6.59,1.14 -30.19,-31.58 -22.09,27.59 -7.54,18.15 -7.54,90.39 -36.15,-11.55 -23.27,22.02 -30.29,-22.62 9.59,34.19 1.23,7.19 -7.37,16.73l-109.87 -37.69c34.43,36.79 62.84,50.69 93.34,90.89l50.58 69.07c17.77,30.14 61.97,100.02 72.4,133.5 13.09,42.03 -2.12,10.87 22.3,43.14l11.39 19.17c12.6,26.17 18.05,38.84 30.17,68.97 11.22,27.91 9.48,15.46 19.03,32.32 6.38,11.26 8.24,21.45 12.71,32.83l47.95 110.78c4.83,10.38 9.5,19.75 14.42,30.29l131.57 360.37c25.54,69.62 61.93,153.94 71.24,228.14l26.58 125.89c24.23,64.21 56.28,307.01 56.89,379.27 1.53,182.37 -11.18,362.7 -69.56,525.42l-38.91 111.84c-12.54,33.38 7.43,13.43 -20.13,28.16l2.05 1.82c118.59,9.47 231.33,53.14 325.29,121.37 9.6,6.96 9.39,7.75 17.5,12.79 26.32,16.35 6.43,6.57 22.07,9.77 13.51,-13.69 48.23,-11.54 83.98,-15.4 91.77,-9.92 186.25,-48.7 81.08,-136.03 -14.32,-11.89 -27.74,-18.12 -36.74,-38.4 -34.26,-21.77 -166.31,-62.02 -134.75,-202.42 33.53,-149.21 199.74,-64.37 254.59,-74.04 58.55,-7.62 129.51,9.56 191.62,9.62 173.7,0.16 383.15,-20.23 544.75,-67.1 451.89,-131.08 199.01,-429.93 233.45,-506.42 28.12,-27.06 81.44,-44.52 112.41,-70.32 -95.68,-34.49 -51.82,12.48 -97.1,10.23 -25.2,-1.25 -57.15,-7.03 -57.44,-44.94 15.5,-6.74 9.44,1.84 23.41,-9.48 14.26,-11.56 7.36,-0.98 13.74,-19.62 2.68,-7.84 0.56,-38.97 -4.32,-53.79 -45.55,9.6 -19.42,7.74 -37.15,15.9 -48.03,22.08 -35.6,6.64 -82.68,6.64 -38.19,0.4 -179.6,83.07 -324.53,-15.44 -242,-164.47 -181.71,-690.26 188.13,-754.04 42.12,-69.56 82.76,-141.58 -32.22,-223.86 -27.51,-19.69 -32.36,-14.95 -45.21,-44.73l-65.14 -184.17c-47.11,-144.25 -61.67,-293.46 -61.76,-451.28 -0.04,-76.03 13.63,-122.79 -8.26,-140.84 -14.02,12.27 -20.2,25.06 -36.23,37.55l-37.65 -47.75c-12.13,-19.81 -22.62,-36.46 -35.32,-55.15 -18.43,-27.1 -46.83,-77.67 -85.34,-85.64 -45.9,32.58 -61.39,134.91 -77.64,169.06l-12.83 19.49c-46.93,-38.4 -101.54,-159.42 -165.85,-169.05 -54.55,45.79 -40.6,167.92 -75.38,217.01 -25.15,-19.42 -60.46,-77.37 -81.75,-84.52z"/>
   <path fill="#0051C7" stroke="#0051C7" stroke-width="11.98" stroke-miterlimit="22.9256" d="M1042.06 4015.57c0.51,9.6 -102.89,286.64 -1.94,544.41 16.66,42.57 65.47,119.69 70.07,137.76 -21.46,-16.35 -11.59,-16.62 -35.84,-32.79 -8.56,10.71 10.62,13.09 -10.04,8.23 -10.39,-23.6 -33.3,-41 -55.19,-73 -8.87,-12.97 -3.14,-9.36 -16.8,-23.01 -2.39,3.79 -124.59,138.4 -181.6,219 -20.2,28.56 -28.67,62.09 -61.71,74.76 49.24,9.53 87.78,7.37 138.09,11.04l95.75 22.44c1.83,0.92 3.69,1.98 5.38,3.01 13.2,8.01 5.59,1.88 14.81,12.6 56.53,12.69 110.74,37.91 165.79,62.7 39.63,17.84 111.65,71.7 148.63,77.21 42.47,0.54 103.17,18.09 150.42,21.27 124.12,8.38 115.64,0.75 135.08,-32.16 35.52,-7.57 77.08,-13.5 106.77,-17.47 55.15,-7.39 220.59,-81.18 262.08,-114.33 69.11,-55.24 71.35,-35.69 134.47,-114.08 10.13,-12.58 14.96,-19.93 25.75,-35.07 30.91,-43.37 52.79,-63.13 67,-125.85 47.56,-209.83 -88.73,-394.96 -247.58,-502.66l-26.47 -19.41c-51.99,-43.37 -82.91,-48.88 -104.8,-68.89 -14.11,-12.91 0.25,5.58 -13.58,-15.12 -37.89,-5.59 -8.06,-3.87 -35.63,-15.93l-136.69 -36.06c-148.1,-33.82 -519.4,-52.64 -592.24,31.42z"/>
   <path fill="#242223" stroke="#023380" stroke-width="11.98" stroke-miterlimit="22.9256" d="M2870.36 6316.31c182.31,26.88 395.84,19.88 577.69,-14.44 56.42,-10.65 113.73,-29.78 170.31,-38.03 10.03,40.87 31.79,81.56 27.82,131.58 -86.41,64.73 -297.28,80.31 -422.41,82.76 -75.66,1.48 -422.97,-13.07 -463.4,-49.28 -67.59,3.48 -329.33,-85.34 -384.72,-118.93l-5.78 -138.9c161.07,58.62 296.22,130.69 500.51,145.24zm-282.44 -459.2c46.51,22.3 53.42,32.02 111.56,46.39 44.99,11.13 85.9,19.53 132.86,20.88 110.18,-1.98 177.12,7.76 272.2,-23.66 76.19,-25.18 27.48,-64.79 195.26,42.22 86.72,55.31 272.48,205.14 301.42,303.26 -174.2,72.46 -464.88,70.27 -664.12,61.77l-43.62 -6.83c-1.86,-0.51 -4.55,-1.35 -6.69,-2.34 -106.91,4.25 -423.96,-90.04 -488.2,-137.32l-23.48 -12.29c7.22,-124.27 103.19,-271.86 177.73,-322.52l35.09 30.44zm-2210.08 345.24c38.06,39.43 -5.65,41.06 84.18,136.55 1.32,1.41 2.93,3.29 4.13,4.62l8.24 10.06c-124.06,0.14 -246.73,-17.15 -289.63,-104.71 -63.83,-68.63 -65.02,-240.34 -75.17,-347.77 -8.32,-88.05 -50.57,-337.57 54.59,-349.7 94.72,-10.93 157.9,153.02 175.37,251.25l38.3 399.71zm2574.24 -435.84c41.74,-12.56 87.34,-11.21 128.82,-49.04 23.03,-21 14.38,-22.12 37.33,-33.27 38.2,23.94 160.05,201.45 -158.27,218.69 -107.17,10.69 -242,-3.25 -328.18,-46.45 -108.68,-54.48 -120.53,-192.48 -3.55,-219.36 31.18,74.78 33.96,87.7 108.32,114.06 67.26,23.85 142.47,16.12 215.54,15.36zm-2476.15 210.54c58.27,77.74 -97.04,387.72 361.73,278.11 55.15,-13.17 127.73,-44.57 176.97,-50.64l9.75 77.48c-83.48,60 -225.42,76.62 -341.1,79.35 -152.6,3.61 -241.25,-23.85 -274.83,-156.35 -58.27,-137.48 10.44,-440.38 -135.66,-620.42 -53.55,-65.99 -101.34,-71.88 -169.66,-25.01 29.63,-174.16 181.14,-107.05 269.11,23.77 57.02,84.8 114.84,265.25 103.7,393.71zm163.16 -523.02c36.45,24.14 115.44,141.24 115.49,211.96 13.02,14.18 2.77,-5.13 11.29,21.57 3.14,9.84 4.55,23.05 5.61,33.35 9.58,93.04 5.29,129.58 8.23,217.14 73.61,31.23 218.21,145.36 221.09,246.3 -61.64,32.64 -430.54,153.63 -478.75,-3.77 -10.27,-33.54 -23.85,-163.13 -24.59,-199.73 -8.33,-108.47 -22.34,-221.13 -58.27,-306.66 -67.65,-161.07 -119.98,-163.34 -162.1,-213.58 -27.32,-6.59 -53.94,-17.42 -87.35,-26.36 134.75,-33.58 334.51,-89.44 449.36,19.79zm268.36 184.99c31.16,50.88 -3.68,195.84 -107.07,181.04l-11.59 -125.69c-38.18,-118.34 -68.2,-244.65 -204.52,-300.45l-53.69 -23.75c41.22,-133.81 195.6,-52.91 254.55,3.53 40.61,38.89 135.33,184.19 122.32,265.31zm24.63 -403.83l11.27 -2.89c3.02,32.81 -5.93,49.54 12.43,71.2 1.23,-52.39 12.59,-114.76 14.11,-174.41 1.68,-65.61 -2.47,-131.49 -0.61,-196l41.46 10.94c65.22,16.8 275.74,119.18 298.27,155.89 33.54,18.26 61.63,38.08 89.16,66.71 22.69,152.37 -9.63,318.7 -91.23,412.31 -70.79,81.2 -215.91,140.62 -367.92,145.85l-5.19 -82.46c-10.51,-103.86 -58.84,-191.7 -110.25,-260.57 -5.97,-10.07 -4.47,-7.11 -13.81,-16.17 -9.95,-9.65 -5.26,-3.08 -12.53,-11.58 -12.4,-14.5 0.45,4.42 -11.99,-17.68 60.59,-12.84 123.3,-59.34 146.83,-101.14zm1890.3 -196.75c16.75,-44.63 41.15,-67.56 61.67,-120.25 44.64,20.88 138.2,109.62 167.77,149.01 114.57,152.58 99.74,340.78 57.3,520.65 -28.2,119.51 -36.28,140.34 -171.65,156.08 -97.08,6.96 -220.08,7.16 -265.61,-63.18 -33.64,-47.02 -7.3,-203.03 -9.73,-278.7 23.06,3.31 20.39,8.3 34.82,26.96 24,15.58 15.39,24.38 40.23,28.26 -69.22,-95.46 -80.46,-109 -189.46,-172 17.2,-16.89 51.37,-33.17 73.8,-49.73 100.06,-73.94 114.94,-99.04 185.5,-184.5 9.07,-10.98 4.96,-10.45 15.36,-12.6zm-1931.68 -1275.19c-0.1,37.72 2.05,41.58 -43.18,46.96l-9.92 30.63c69.61,-26.94 127.63,-95.9 221.45,-114.25l-107.59 110.06c-54.33,66.74 -65.46,118.26 -82.79,137.49l-5.91 95.12c7.4,7.78 5.89,1.39 12.77,15.6 7.44,15.35 2.64,5.93 6.79,21.66 1.12,0.81 2.96,0.78 3.28,2.53 0.93,5.13 15.59,1.79 12.37,43.06 -21.52,276.26 21,229.44 31.61,338.68 2.67,27.57 -44.52,73.72 -68.4,88.62 -3.39,17.79 19.57,6.06 -14.87,16.27 -10.83,28.89 -41.81,59.75 -66.66,94.16l-31.24 34.06 -4.77 8.22c-18.17,56.43 -59.71,83.53 -54.76,163.07 8.1,7.76 11.15,12.57 16.81,22.56 12.28,21.64 8.92,12.11 11.65,31.05 12.86,0 10.72,-3.08 6.66,9.08 22.6,14.08 10.14,1.47 18.57,25.3l78.82 82.76c11.23,14.71 5.96,5.73 9.31,16.03 28.08,13.21 29.77,17.74 47.28,43.74 22.78,5.24 27.9,12.81 43.15,33.37 -15.11,70.45 -70.52,107.87 -129.61,131.55 -19.09,7.65 -33.45,14.3 -52.74,-7.78 -66.34,-15.52 -60.5,-31.68 -145.96,-27.18 -20.78,8.11 -35.35,13.5 -51.68,25.29 -16.09,11.63 -28.44,29.51 -38.82,36.46l-9.56 29.16 -103.48 2.94c-48.9,5.06 -93.88,10.95 -142.88,21 -54.04,11.09 -96.71,43.33 -121.33,48.42 -11.89,20.59 -26.52,47.85 -52.41,71.41 2.67,23.05 -21.38,110.71 -21.99,158.58 -0.82,64.18 7.22,125.09 10.14,188.57l10.65 128.16 12.61 109.05 25.18 130.21c13.57,15.8 28.71,65.18 52.11,94.03 26.89,33.17 59.97,44.58 80.73,64.77 199.11,47.13 420.76,52.24 629.58,23.5l111.6 -27.46 13.74 -11.21c1.29,-0.89 3.35,-2.32 4.78,-3.26l63.08 -32.6c14.94,-92.27 -26.12,-154.85 -51.12,-230.64 -12.23,-7.67 -9.68,-5.71 -19.1,-20.27 -10.9,-16.86 -9.46,-14.21 -13.32,-29.95 -23.14,-13.99 -62.97,-53.59 -78.62,-77.19 -21.72,-4.45 -61.85,-35.61 -80.58,-49.25l0.02 -37.71c96.1,-45.9 40.02,5.81 116.39,-84.29 18,-21.24 136.81,-39 167.5,-35.09 12.33,-13.74 86.55,-36.52 130.18,-59.19 52.16,-27.11 76.77,-64.4 113.95,-85.58 3.5,-15.01 -7.77,-7.73 13.79,-17.14 9.53,-31.93 30.91,-57.94 44.69,-93.41 15.56,-40.04 17.75,-71.38 28.45,-112.34 52.94,-4.22 100.71,8.25 163.94,0.65 36.55,-12.23 23.91,-31.05 52.01,-53.49 11.87,-35.48 36.93,-73.91 54.52,-109.78 17.59,-35.84 34.35,-81 50.87,-111.69l93.24 -14.2c5.2,4.29 49.78,106.66 56.72,123.65 15.08,28.03 46.25,81.13 58.21,112.98l3.37 9.27 32.17 40.37c27.36,43.94 23.67,37.1 98.31,36.48l235.52 -27.23 106.19 -28.9c16.03,-17.35 54.36,-35.46 79.3,-32.94 23.27,2.35 62.13,30.54 73.77,48.74 35.2,3.03 25.98,23.65 23.29,108.9 -2.03,64.36 6.81,107.41 -20.8,109.7 -18.01,21.63 -21.37,16.6 -40.27,30.61 -13.01,9.63 -27.79,25.45 -36.35,39.16 -27.88,44.66 -18.92,82.22 -9.33,129.38 0.67,23.91 -26.35,36.39 -45.77,56.57 -13.85,14.38 -37.3,45.48 -52.49,68.1 -20.76,30.92 -67.61,112.43 -68.06,157.88 -20.3,66.79 -19.41,121.97 -18.13,192.39l-2.57 35.89c1,1.7 2.8,1.9 3.09,5.04 0.32,3.47 2.23,4.19 2.61,5.99 3.02,14.56 2.35,9.77 3.21,26.66l30.53 19.59c19.99,0.52 81.67,22.78 90.64,33.42l137.02 48.97 5.71 -4.91 110.59 29.27 119.14 24.59c242.28,25.62 382.26,34.48 630.09,9.62 23.8,-8.68 59.98,-14.62 84.03,-12.56 17.75,-14.79 2.62,-9.16 30.56,-7.68 19.6,-16.87 77.94,-36.17 104.02,-48.34 7.62,-32.55 -0.9,-7.87 13.41,-11.59l-1.75 -74.22 -8.71 -36.48c-6.45,-18.41 -11.96,-38.36 -19.93,-55.83 -12.16,-26.64 -19.84,-30.48 -28.21,-60.02 -16,-10.21 -58.79,-71.12 -62.76,-88.7l-22.82 -22.5 -39.02 -30.81c-15.14,-15.29 -28.47,-28.67 -36.45,-42.74 -21.3,-8.84 -17.27,-6.92 -35.16,-21.36 -1.92,-1.54 -13.72,-12.04 -15.95,-14.37 -14.05,-14.76 -5.49,-3.81 -15.2,-18.78 -19.99,-4.46 -20.96,-7.49 -37.2,-18.89l-34 -28.68c-19.53,-8.67 -86.18,-45.6 -103.05,-65.06l-22.65 -2.54c8.86,-65.94 10.51,-68.08 -7.63,-129.77 -26.45,-31.71 -18.97,-42.87 -58.93,-59.4 7.16,-67.56 30.58,-135 38.62,-211.66 9.32,-88.87 4.87,-147.63 -9.61,-233.47l-32.6 -100.13 -73.84 -98.43c-12.98,-5.85 -10.02,-3.19 -24.17,-17.54 -1.22,-1.23 -9.45,-11.45 -9.59,-11.65 -9.81,-14.62 -2.5,1.72 -5.93,-12.02l-46.54 -34.13c-1.2,-0.99 -2.93,-2.35 -4.13,-3.38l-27.7 -29.14c-48.97,-4.37 1.38,-46.41 -6.55,-93.54 -6.05,-35.9 -40.31,-55.69 -54.02,-87.65 -19.88,-4.89 -6.51,2.26 -26.21,-14.97 -5.51,-4.81 -6.42,-5.96 -10.96,-11.39 -12.73,-15.21 -6.86,-8.23 -10.81,-15.99 -19.59,-7.32 -84.27,-40.39 -95.93,-59.65 3.65,-10.05 1.1,-7.83 6.63,-17.24 14.07,-23.99 -0.05,-1.87 11.41,-15.11 -2.25,-20.46 25.47,-135.75 21.33,-261.72 -3.65,-111.09 -33.05,-141.25 59.87,-215.9 11.3,4.78 99.6,50.72 105.57,56.91 184.03,55.55 141.97,63.16 225.94,-9.42 31.84,4.66 115.09,42.36 192.44,58.46 25.17,5.24 53.81,7.68 74.68,21.05 24.03,-7.32 22.6,-5.18 49.72,-0.93 60.18,2.86 116.23,4.01 175.26,-4.63 58.61,-8.59 102.36,-25.59 154.43,-33.32 12.63,-11.32 83.23,-40.38 100.1,-38.03 20.51,-22.58 90.92,-59.31 116.91,-69.13l18.53 -10.35c21.45,-28.95 225.57,-170.34 257.19,-248.17l-9.98 -25.98c-0.79,1.23 -3.41,1.43 -5.04,5.71l-32.34 19.21c-11.98,3.96 0.52,-3.07 -12.27,6.86l-32.82 34.2c-266.35,280.27 -582.87,396.4 -965.07,266.22 -48.17,-16.41 -52.05,-13.63 -60.31,-35.63 -6.6,24.7 12.77,0.65 -18.62,13.98l-17.26 -5.22c-36.88,20.66 -23.48,90.29 -196.45,10.44 -20.67,-9.54 -78.33,-36.21 -94.34,-48.91 -22.33,-17.71 -15.47,-13.39 -42.94,-31.41 -26.37,-17.29 -18.97,-25.13 -50.09,-23.24 1.37,27.97 13.45,18.87 35.52,43.46 -6.1,24.55 -31.85,46.36 -54.27,72.6 -10.67,12.5 -9.87,6.68 -18.75,25.85 -15.71,33.93 0.35,115.27 0.74,157.74 0.95,103.63 2.77,233.69 -47.23,301.65 -93.83,10.48 -178.41,-242.52 -256.22,-240.01 2.91,34.02 29.23,37.83 50.17,69.28 32.51,48.84 29.15,29.91 58.6,69.83 17.56,23.8 32.81,46.82 49,71.72 29.16,44.87 43.75,34.91 66.44,64 47.25,2.01 72.92,21.99 136.22,50.66 21,9.51 8.32,3.2 24.27,19.02l71.4 68.89c1.29,12.5 3.53,25.74 2.78,38.34 -2.23,37.73 -83.95,188.05 -99.37,207.98 -115.38,149.26 -239.15,236.5 -411.36,295.51l-108.32 22.55c-9.92,2.28 -29.3,4.11 -39.95,5.31 -64.4,7.21 -99.06,11.66 -169.37,11.47 -11.53,-2.28 -38.78,-39.93 -47.09,-51.14 -15.26,-20.6 -52.69,-78.35 -55.3,-97.84 -24.55,-39.26 -58.5,-115.89 -58.08,-163.01 58.48,-25.25 42.03,-6.9 48.2,-35.85 -116,8.98 -29.57,31.73 -234.63,31.38 -75.29,-0.12 -61.43,-4.66 -75.37,14.24 37.8,19.9 86.22,-12.82 71.07,39.09l-83.7 166.64c-36.81,62.7 -29.29,62.65 -70.15,67.4l-133.42 -4.87 -2.78 -132.44c65.26,-4 -10.93,15.57 53.88,11.26l-71.94 -76.06c-15.57,-12.47 -24.65,-20.79 -40.64,-34.38 -23.23,-19.75 -30.77,-11.56 -45.4,-45.37 -36.98,-5.51 -109.01,-59.37 -148.63,-77.21 -55.05,-24.78 -109.26,-50 -165.79,-62.7l-73.31 -15.21c29.32,70.83 10.58,106.77 18.82,194.13 -34.21,0.92 -23.08,4.91 -72.7,-34.55l-146.36 -197.89c40.62,-113.39 172.37,-270.6 240.22,-331.02l22.59 41.69c13.66,13.65 7.93,10.04 16.8,23.01 21.89,32 44.81,49.4 55.19,73 20.65,4.86 1.47,2.48 10.04,-8.23 -66.19,-65.99 -115.28,-195.45 -134.79,-312.39 -22.08,-132.3 -6.5,-309.53 102.5,-336.99 72.83,-84.06 444.14,-65.24 592.24,-31.42l136.69 36.06c27.57,12.06 -2.26,10.34 35.63,15.93 71.92,8.8 158.31,56.68 194.81,69.27 6.1,2.1 26.63,8.57 33.36,11.83l18.24 11.11c1.91,1.26 7.74,5.07 9.61,6.43 1.43,1.04 3.29,2.3 4.68,3.36 29.39,22.64 4.06,13.39 45.28,28.03 26.75,9.5 35.51,9.24 58,33.68 19.14,20.8 18.02,13.61 34.27,24.87 26.87,18.6 26.96,33.54 82.05,30.7 -4.47,-22.45 6.22,-11.05 -50.72,-46.45 -23.29,-14.48 -39.95,-25.36 -59.54,-38.26 -75.03,-49.4 -193.4,-100.77 -275.14,-132.55 -23.93,-9.31 -139.03,-39.7 -151.36,-52.65 -45.87,-1.7 -111.87,-24.76 -168.53,-33.41 -62.11,-9.47 -108.36,-18.09 -182.21,-19.74 -149.66,-3.34 -230.99,5.75 -354.64,50.67 -121.86,74.37 -73.71,68.33 -120.03,105.08 -83.61,-178.6 245.32,-377.07 256.09,-406.13 4.36,-20.1 -1.05,-11.83 13.22,-23.15l-21.68 -5.57c-49.92,-6.92 -117.53,23.98 -158.9,41.12l-122.79 68.88z"/>
   <path fill="#231D1B" d="M3123.64 3011.18c13.69,-45.11 104.69,-163.12 128.05,-220.42l139.25 9.54c-7.01,25.68 -25.06,40.25 -40.02,58.67l-127.38 161.07 -99.9 -8.86zm-145.33 -21.12c9.89,-63.55 75.03,-162.75 95.01,-228.15l152.13 24.02c-7.94,38.19 -102.5,172.85 -125.67,223.64l-121.47 -19.51zm-25.96 -16.44c-52.73,-17.71 -102.75,-82.46 -84.36,-160.71 19.94,-84.86 98.59,-75.61 184.96,-57.16l-100.6 217.87zm1146.53 -1267.18c-74.17,452.27 -626.77,399.18 -603.88,-45.45 23.71,-460.6 554,-552.09 606.85,-143.02 -1.85,1.16 -4.47,2.16 -5.91,2.8 -1.42,0.63 -4.11,1.95 -5.84,2.71l-22.36 9.35c-9.72,4.85 -18.83,11.41 -25.79,19.66 -15.02,17.81 -20.06,36.99 -19.39,63.3 1.59,62.42 37.12,72.3 65.68,85.34l10.63 5.3zm-880.06 -1655.86c-18.54,-9.99 -11.77,0 -22.53,-22.32 -56.36,-7 -81.38,-30.6 -111.78,31.31 -17.57,35.78 -21.09,90.21 -41.7,123.36 -27.73,-26.09 -100.2,-123.96 -146,-133.29 -47.05,-9.59 -66.18,25.56 -77.19,61.89 -4.53,14.95 -8.95,35.26 -12.22,54.26 -1.74,10.13 -3.32,23.46 -5.48,32.9 -5.66,24.7 2.11,5.2 -7.87,24.29l-69.43 -60.7c-15.44,-13.06 -8.95,1.39 -13.54,-15.13 -21.71,-6.48 -45.91,-18.1 -72.16,-6.78 -27.78,11.97 -15.54,20.96 -37.46,39.82l-7.95 91.59 -3.74 45.49c-58.59,-31.51 -88.77,-94.33 -193.18,-88.94 -6.3,8.16 -24.36,27.21 -31.45,33.58l-18.81 144.31c-18.14,-9.97 -4.53,-4.04 -12.6,-14.48 -18.99,-3.21 0.56,4.66 -24.01,-10.11 -8.48,-5.1 -12.41,-9.24 -22.28,-15.77 -14.03,-9.26 -31.24,-16.7 -43.75,-25.27 -96.77,-4.79 -85.12,64.39 -83.18,153.63 -26.85,-4.98 -6.95,1.14 -14.61,-12.64 -19.99,-3.69 1.92,3.08 -15.21,-4.42 -10.58,-4.63 -1.82,-0.81 -14.06,-8.01 -10.56,-6.22 -20.59,-12.51 -27.42,-16.74 -85.2,-27.32 -93.62,18.14 -87.5,100.56l14.73 86.75 -49.28 -14.43c-47.67,-12.17 -81.97,-19.28 -128.11,-6.03 -2.63,8.54 -3.15,9.17 -8.56,12.53l-0.74 4.19c-5.99,64.97 15.17,62.69 30.97,109.41 15.82,11.8 12.42,5.17 16.93,28.61 25.54,15.46 68.26,92.78 78.5,125.75l11.17 15.84 2.1 14.24 31.21 46.88c10.6,21.74 17.27,34.81 25.47,58.73 15.15,11.32 42.36,75.16 42.02,95.96 22.51,20.37 21.73,32.54 26.15,51.6 12.93,14.02 34.56,58.86 34.14,84.96 19.03,19.09 21.32,36.4 31.82,61.61 10.24,24.6 17.51,39.71 24.85,67.73 15.9,11.56 35.8,69.37 34.32,94.83 16.08,16.27 22.2,36.95 30.48,57.76 10.62,26.65 19.09,40.77 20.26,69.13 21.72,20.71 48.48,109.54 61.16,146.28l0.39 15.45c24.75,31.33 69.71,175.85 67.97,204.29 16.24,19.45 35.76,97.26 47.12,166.1 9.29,30.27 17.73,66.68 13.2,98.77 33,47.52 40.84,388.02 6.08,432.67l-7.88 64.19 -42.61 138.4c1.32,14.4 -26.97,146.9 -83.36,162.7 -85.3,23.9 -75.44,12.79 -136.73,-19.09l-42.17 -28.61c-20.1,-1.1 -40.91,-5.43 -52.84,-19.75 -30.78,-8.05 -47.76,-15.41 -79.45,-26.39 -27.74,-9.62 -54,-12.26 -75.49,-27.53 -41.83,7.33 -117.71,-18.13 -168.94,-22.08 -24.02,-1.85 -76.15,-5.7 -98.34,-1.98 -36.28,6.08 -38.62,27.11 -69.65,35.49 -9.37,16.21 -13.86,20.75 -26.47,36.66 -4.49,5.66 -8.36,10.83 -14.14,16.93 -9.28,9.77 -3.01,4.17 -13.6,12.23l-4.78 19.91c-31.02,3.9 -39.4,5.81 -68.79,-0.3 -26,15.14 -89.62,15.33 -124.59,17.87 -27.45,11.69 -96.84,25.26 -128.42,20.47l-56.91 22.41c-26.24,7.59 -39.05,11.92 -65.45,17.3 -15.39,13.38 -90.57,37.19 -116.99,48.58 -34.99,15.09 -83.98,48.49 -118.11,52.72 -23.39,28.09 -104.98,72.43 -139.51,96.68 -36.99,25.98 -111.42,94.86 -130.32,101.72l-17.41 -35.81c-13.03,-15.07 -21.7,-33.03 -35.85,-53.03 -7.27,-10.27 -11.33,-14.52 -19.54,-25.79 -14.59,-20.03 -8.84,-4.23 -14.26,-26.24 -16.46,-7.02 -7.1,1.29 -17.54,-8.92 -11.63,-11.37 -2.69,-1.2 -7.89,-13.55 -117.21,-28.11 -126.55,19.35 -124.9,132.26l-86.99 -43.41c-84.19,-15.01 -162.56,9.98 -140.28,111.09 10.42,47.28 77.2,129.45 99.63,160.15l-147.74 0.92c-39.32,13.86 -70.43,20.22 -83.11,61.44 -16.32,53.01 13.73,91.87 39.51,110.32 50.29,35.97 201.53,71.01 212.63,83.56 78.53,28.88 133.11,115.97 230.45,138.77 36.48,7.91 73.35,1.39 111.11,-5.8l63.44 -21.45c9.3,-6.58 22.98,-14.04 35.62,-21.29 19.7,-11.29 19.43,-14.02 40.13,-17.64 14.08,-19.8 31.14,-29.3 50.01,-42.88 10.69,-7.68 18.62,-13.18 26.46,-19.22 15.57,-12.01 16.16,-12.35 23.59,-23.78l9.92 -30.63c45.24,-5.38 43.08,-9.24 43.18,-46.96 -98.71,34.24 -241.97,223.73 -401.62,187.56 -81.28,-18.42 -138.11,-125.54 -277.35,-159.67 -22.21,-5.44 -39.78,-10.83 -58.45,-16.45l-51.95 -28.11c-34.55,-3.03 -65.63,-31.17 -54.46,-73.68 53.43,-81.81 232.06,-11.71 311.83,-0.66l-41.79 -56.33c-12.36,-4.34 -186.39,-181.58 -128.48,-240.99 60.68,-62.26 207.3,93.56 268.65,117.93 -2.87,-10.88 -9.71,-17.27 -19.42,-30.51 -25.38,-19.07 -23.72,-27.32 -30.76,-90.13 -9.96,-88.78 17.9,-129.96 56.11,-89.29 29.81,11.29 9.97,0.1 13.08,13.6 25.14,16.2 41.56,46.37 57.95,74.38 15.52,26.51 35.76,54.52 45.07,84.48 -12.78,20.05 -28.85,38.47 -50.69,51.76 -4.38,18.48 -8.39,16.47 -10.71,24.72 -5.41,19.26 -10.54,8.23 1.59,21.84 37.9,-52.95 131.19,-132.47 183.46,-176.66 228.73,-193.37 483.72,-266.25 794.72,-306 14.48,-17.48 3.53,-11.84 29.79,-12.56 15.49,-0.43 22.19,7.19 30.48,13.04 6.69,-51.49 3.78,-20.2 24.6,-26.19 12.71,-10.8 26.13,-38.4 67.15,-78.59 45.02,-32.49 89.03,-25.2 159.07,-16.19 52.21,6.71 106.11,16.96 155.04,31.32 64.83,19.01 223.8,76.8 261.43,118.3l22.39 7.01 119.48 -21.6 104.45 -10.35 15.61 -15.64 -2.05 -1.82 -83.14 -0.25c12.42,-43.21 40.71,-98.17 57.4,-148.09 136.23,-407.46 54.66,-772.95 -89.17,-1163.6 -107.94,-293.19 -268.26,-703.91 -431.72,-970.18 -19.25,-31.36 -66.49,-83.61 -66.24,-118.78 29.65,-7.86 56.24,1.57 80.91,10.87l109.87 37.69c8.6,-9.54 16.96,17.46 7.37,-16.73 -31.94,-181.34 -65.08,-252.13 60.36,-158.05 24.7,18.53 48.42,38.96 76.12,52.52 0.57,-56.3 -23.19,-151.58 7.23,-195.63 28.88,-13.19 133.42,69.02 149.01,94.02 18.62,3.8 9.82,2.42 29.84,10.26 2.68,-74.84 -7.45,-151.5 15.81,-218.82 90.29,-8.18 167.92,116.31 225.76,130.15 2.15,-71.82 -11.08,-160.67 21.17,-222.39 34.22,-1.77 96.77,60.7 118.93,90.12 8.95,11.88 5.91,5.66 9.12,16.88 25.59,13.27 18.97,15.68 40.67,32.43 23.25,-36.8 9.92,-170.92 52.78,-226.79 37.42,5.49 93.29,69.01 106.71,101.21 21.29,7.16 56.6,65.1 81.75,84.52 34.78,-49.09 20.84,-171.22 75.38,-217.01 64.31,9.63 118.92,130.65 165.85,169.05l12.83 -19.49c16.26,-34.15 31.74,-136.48 77.64,-169.06 38.51,7.97 66.91,58.54 85.34,85.64 12.7,18.69 23.19,35.34 35.32,55.15l37.65 47.75c16.02,-12.49 22.2,-25.29 36.23,-37.55 8.38,-18.38 75.92,-122.34 118.68,-120.21 12.62,77.12 4.61,173.56 6.26,253.65 3.14,152.92 22.76,299.65 63.79,446.3 23.67,84.59 31.5,122.3 41.38,216.96 42.22,40.75 89.77,57.83 118.39,98.1 39.08,54.98 20.35,116.23 -22.89,152.3l-113.03 -2.22c-369.84,63.78 -430.14,589.57 -188.13,754.04 144.93,98.5 286.34,15.83 324.53,15.44 17.56,-21.61 30.53,-26.02 48.09,-41.72 14.62,-13.05 26.49,-26.01 36.79,-38.4 19.11,-22.99 39.31,-78.07 71.21,-75.31 7.02,-6.06 4.68,-4.51 16.11,-10.66 44.85,-24.12 179.91,-51.42 226.73,-51.21 160.79,0.73 218.26,221.75 6.74,314.84 -78.4,34.51 -205.05,68.25 -217.39,75.3l53.83 0.84c101.36,285.08 279.43,387.72 -205.49,535.22 -213.18,64.85 -440.34,76.09 -669.98,57.19 -38.54,-3.17 -158.65,-14.91 -195.59,-30.3l-11.72 -6.52c-54.85,9.68 -221.06,-75.16 -254.59,74.04 -31.55,140.4 100.49,180.66 134.75,202.42 74.76,11.06 140.14,18.15 213.86,26.15 82.73,8.99 129.37,41.95 80.26,125.6 -3.47,58.28 -80.67,36.25 -131.42,50.86l-27.17 17.65c-36.31,35.72 -54.53,47.46 -59.58,78.2 69.87,0.36 78.9,18.05 114.47,11.14 25.15,-4.88 30.15,-14.86 37.19,-21.5l-93.11 -16.46c37.09,-90.96 170.62,13.83 219.91,-154.14 -0.34,-40.48 -10.57,-64.71 -20.35,-95.15 -8.65,-4.81 -15.84,-11.11 -28.73,-18.14 11.71,-26.23 60.92,-83.58 83.05,-111.6l28.5 -27.26c10.48,-25.05 23.45,-35.04 37.73,-55.22l294.06 -9.9c30.57,-4.69 54.34,-10.62 85.31,-5.19l24.09 -12.1c6.84,-2.02 17.35,-3.42 24.82,-4.92 19.95,-3.99 40.43,-9.04 61.78,-12.27 37.05,-15.24 86.61,-26.84 126.58,-41.59 34,-12.55 93.77,-42.3 120.39,-41.49l69.17 -40.96c82.46,-50.21 107.15,-100.21 98.22,-202.59l-11.24 -54.8c-17.78,-17.92 -84.07,-173.42 -90.45,-202.81l68.51 -25.11c87.5,-36.61 193.63,-80.32 210.05,-182.29 16.08,-58.37 6.6,-114.96 -19.28,-159.41 -37.28,-64.03 -60.33,-44.48 -95.05,-79.89l-9.51 2.73c-76.36,-7.45 -102.42,-0.35 -173.39,10.98l-92.14 24c11.38,-68.16 27.08,-118.1 26.02,-192.86 -1.07,-74.91 -26.6,-129.63 -28.7,-182.52 -16.5,-15.35 -22.9,-36.86 -34.71,-57.36 -7.78,-13.5 -11.16,-17.17 -18.12,-26.63 -6.31,-8.59 -4.72,-5.8 -10.08,-13.76 -8.6,-12.76 -0.55,2.22 -9.84,-16.6 -24.85,-6.28 -22.65,-25.05 -73.43,-49.24 22.63,-60.91 32.08,-52.83 23,-136.27 -5.94,-11.81 -9.07,-19.24 -14.6,-30.7 -6.05,-12.54 -2.6,-4.43 -7.14,-14.95 -6.99,-16.2 -1.43,2.15 -5.44,-15.26 -14.52,-6.92 -11.02,-1.99 -14.56,-14.66 -15.18,-6.57 -6.35,-0.3 -17.75,-8.99 -12.12,-9.25 -3.51,-2.53 -11.85,-15.47 -13.82,-3.05 -20.95,-7.11 -36.85,-18.54 -7.92,-5.69 -8.17,-5 -15.92,-14.06 -10.66,-12.45 -1.87,1.42 -7.88,-13.45 -6.57,-8.38 -4.25,-4.17 -7.77,-20.72 -1.3,-6.09 -2.53,-21.62 -3.29,-28.69 -7.56,-70.03 -21.33,-89.95 -32.11,-148.51 -7.25,-12.19 -12.16,-32.35 -11,-56.85 -39.52,-49.8 -47.9,-232.56 -52.28,-307.7 -3.57,-61.22 -3.64,-119.85 -3.09,-181.06 0.47,-52.66 -7.23,-122.43 -4.8,-166.76 -27.47,-19.2 -23.77,-29.33 -68.52,-28.82 -19.72,18.3 -10.54,8.23 -26.96,10.66 -12.2,22.41 -24.65,27.68 -42.24,50.12 -7.75,9.9 -11.25,16.6 -19.8,25.56 -14.77,15.48 -9.21,9.81 -22.75,18.38 -3.78,17.8 10.47,-3.38 -11.21,24.01 -24.27,-10.07 -74.76,-91.99 -86.59,-115.12l-42.42 -39.38c-69.27,1.94 -83.43,-0.13 -119.59,93.39l-22.79 46.41c-13.88,-14.37 -24.53,-29.58 -38.35,-45.91 -8.9,-10.51 -13.6,-12.81 -22.43,-22.97l-11.99 -20.33z"/>
   <path fill="#C5161D" stroke="#C5161D" stroke-width="11.98" stroke-miterlimit="22.9256" d="M2696.01 3907.87c2.33,20.26 47.13,56.92 61.98,73.37 17.43,19.3 16.48,4.55 14.51,33.78 -61.59,2.57 -142.32,-165.14 -174.31,-186.02 -21.19,-9.44 -14.27,-6.68 -28.84,-32.08 -12.23,-21.3 -8.05,-33.94 -7.98,-36.45l0.69 -8.98c0.71,-12.1 -5.44,-7.33 6.65,-24.07l18.65 -18.86c44.94,19.82 14.32,23.32 36.1,56.97 1.34,2.06 5.95,7.73 7.72,9.53l9.71 8.19c27.29,18.41 29.99,5.08 58.5,18.22 18.9,8.71 43.59,31.02 49.25,51.16 3.3,11.77 2.57,31.21 -2.45,40.16 -16.24,28.94 -16.27,5.9 -19.98,3.94l-2.44 -63.52c-32.85,-1.74 -29.94,-6.54 -65.37,-8.38 6.15,78.38 27.14,20.71 37.62,83.05zm-945.85 77.64c12.33,12.95 127.42,43.34 151.36,52.65 81.74,31.79 200.11,83.15 275.14,132.55 19.59,12.9 36.26,23.78 59.54,38.26 56.94,35.4 46.25,23.99 50.72,46.45 39.35,1.14 87.25,58.39 120.26,84.1 21.81,17 28.19,12.78 25.11,36.8 77.81,-2.51 162.39,250.49 256.22,240.01 50,-67.96 48.18,-198.02 47.23,-301.65 -0.39,-42.47 -16.45,-123.82 -0.74,-157.74 8.88,-19.18 8.08,-13.36 18.75,-25.85 22.41,-26.24 48.16,-48.05 54.27,-72.6 -22.07,-24.59 -34.15,-15.49 -35.52,-43.46 31.11,-1.89 23.72,5.95 50.09,23.24 27.47,18.01 20.62,13.7 42.94,31.41 16.01,12.7 73.67,39.37 94.34,48.91 172.98,79.86 159.58,10.22 196.45,-10.44l14.6 -20.42c2.72,-3.63 4.81,-4.87 11.8,-15.14 15.02,-17.46 10.67,5.46 10.23,-20.63 -0.42,-24.82 -11.06,-50.3 -34.09,-65.25l-245.27 -213.83c-29.7,-22.6 -7.81,7.35 -25.27,-41.81 -14.18,-39.95 -28.67,-42.52 -41.21,-87.12 -26.61,-94.68 -42.56,-29.37 -41.51,-228.91l-33.46 -0.91c15.62,-15.27 22.42,-6.14 33.38,-28.94l-38.14 -9.83c-32.11,4.24 -61.28,28.73 -90.41,12.2 44.43,-26.44 182.77,-65.86 239.42,-74.34 -17.63,-29.17 -56.42,-63.02 -83.83,-84.55 -32.9,-25.83 -56,-54.33 -106.33,-69.88 13.22,29.35 1.32,17.56 22.23,31.76l34.58 16.09 -47.6 16.57c-12.35,6.02 -23.09,15.57 -36.72,24.42 -33.99,22.06 -85.9,38.92 -105.94,66.39 -26.72,36.65 -54.1,50.26 -88.02,92.84 -32.45,40.74 15.02,-22.23 -6.58,8.93 -36.33,52.43 -16.62,15.73 -64.18,78.81l-124.38 155.16c-18.48,16.65 -27.85,45.42 -74.68,98.32 -8.44,9.53 -14.09,16.62 -25.48,27.39 -111.38,105.34 -157.82,120.32 -279.43,173.34 -110.36,48.11 -94.46,23.57 -179.86,36.71z"/>
   <path fill="#D71A20" d="M1044.78 3983.03c123.65,-44.93 204.99,-54.01 354.64,-50.67 73.85,1.65 120.1,10.27 182.21,19.74 56.67,8.64 122.66,31.7 168.53,33.41 85.41,-13.14 69.5,11.4 179.86,-36.71 121.61,-53.02 168.05,-68 279.43,-173.34 11.39,-10.77 17.05,-17.86 25.48,-27.39 46.84,-52.89 56.21,-81.67 74.68,-98.32l124.38 -155.16c47.55,-63.08 27.84,-26.38 64.18,-78.81 21.6,-31.17 -25.87,31.81 6.58,-8.93 33.91,-42.58 61.3,-56.19 88.02,-92.84 20.03,-27.47 71.95,-44.33 105.94,-66.39 13.63,-8.85 24.38,-18.41 36.72,-24.42l47.6 -16.57 -34.58 -16.09c-20.9,-14.2 -9.01,-2.41 -22.23,-31.76 -29.61,-48.93 -248.07,-76.42 -249.95,-81.08 -0.86,-2.11 -3.47,-1.35 -4.95,-2.45l-104.45 10.35 71.73 -0.16c-35.23,13.72 -83.08,20.81 -118.67,31.75 -170.71,52.47 -427.46,208.91 -540.84,348.47 -23.33,28.72 -35.09,58.8 -55.52,82.96 -168.55,22.11 -302.99,64.17 -424.17,138.78 -82.74,50.94 -267.07,181.64 -254.63,295.66z"/>
   <path fill="#FFD521" d="M3379.71 3585.55c-2.37,95.47 -4.81,161.13 -32.26,249.74 -10.21,32.99 -26.69,72.31 -41.57,101.49 -17.14,33.59 -40.7,60.89 -48.66,90.89 41.97,54.24 293.32,67.64 382.13,57.19 135.3,-15.92 233.42,-59.59 337.28,-118.06 91.87,-51.72 236.78,-179.28 304.98,-260.56 63.07,-75.17 99.67,4.98 151.98,-73.95 13.58,-20.49 31.85,-46.94 48.78,-69.63 129.7,-3.17 178.15,118.53 256.85,103.85 28.31,6.48 -1.43,-66.72 -10.75,-79.79 -17.94,-25.15 -31.22,-38.93 -55.51,-57.79 -37.39,-29.05 -101.77,-70.6 -162.33,-69.2 -15.15,-19.72 -12.85,33.76 -12.85,-26.91 43.44,-10.05 39.05,-51.25 126.9,-42.38 81.22,8.2 24.21,19.23 149.15,18.06 35.87,-55.35 -35.34,-122.83 -78.47,-143.49 -52.95,-25.37 -145.61,-39.22 -213.32,-31.76 -25.19,-7.88 -9.23,4.86 -15.33,-18.93 -12.24,-47.75 29.17,-102.22 67.11,-129.93 76.13,-55.58 112.44,-38.54 132.22,-92.13 3.04,-73.53 -109.32,-35.84 -144.66,-18.38 -60.43,29.87 -66.86,53.49 -113.47,98l-96.09 114.85c-111.12,130.9 -280.4,337.28 -427.42,416.95 -29.58,16.03 6.68,6.34 -35.1,17.8 -11.77,3.22 -32.56,6.02 -44.57,8.51 -33.6,6.99 -55.57,9.66 -94.08,9.62 -1.65,-1.89 -4.26,-7.38 -5.09,-8.66 -12.7,-19.56 5.74,-7.27 -12.74,-12.93l-144.31 -4.36c-52.3,-5.07 -133.33,-31.26 -168.84,-28.09z"/>
   <path fill="#003480" stroke="#003480" stroke-width="11.98" stroke-miterlimit="22.9256" d="M1960.42 5221.89c2.61,19.5 40.05,77.25 55.3,97.84 8.31,11.21 35.56,48.87 47.09,51.14 70.31,0.19 104.97,-4.26 169.37,-11.47 10.65,-1.19 30.03,-3.02 39.95,-5.31l108.32 -22.55c172.2,-59.01 295.98,-146.25 411.36,-295.51 15.41,-19.93 97.14,-170.25 99.37,-207.98 0.75,-12.6 -1.48,-25.84 -2.78,-38.34l-71.4 -68.89c-15.95,-15.82 -3.27,-9.5 -24.27,-19.02 -63.3,-28.67 -88.97,-48.66 -136.22,-50.66 -3.14,30.32 8,3.14 -10.19,34.53 -68.68,-41.83 -27.08,-26.07 -102.54,-54.31l0.05 -8.53c0.08,-1.04 0.31,-3.85 0.42,-4.92l2.54 -16.71c-74.71,8.08 61.93,15.11 -137.2,15.11l0 -120.62 -128.12 0c0,284.18 -1.05,98.12 -21.65,179.53 -2.5,9.89 -0.96,48.95 -0.96,61.7 23.96,-17.21 14.31,-5.31 16.57,-66.31 15.18,17.08 7.45,-0.79 14.89,28.3 1.92,7.53 1.45,14.99 1.42,22.71 -0.05,12.56 -2.41,30.85 -2.74,45.46 -0.68,29.85 -0.02,60.51 -0.02,90.45l-120.62 0 0 120.62c-27.4,0 -56.6,-1.02 -83.74,-0.25l-62.53 7.82c18.85,27.82 8.27,0.91 30.9,30.12l-39.59 27.73c-3.08,1.75 -14.23,8.05 -20,11.39 -1.74,1.01 -3.71,1.93 -5.42,2.98l-15.01 9.65c-33.71,35.06 0.96,-22.72 -5.23,7.48l1.59 7.42c11.31,13.24 -6.32,7.18 22.62,6.56 26.6,-0.58 26.3,-9.73 63.31,-12.86 -14.46,43.21 22.78,22.63 -30.12,30.08 5.05,49.5 17.72,68.18 18,115.98l-32.76 14.12c0.22,1.06 0.53,3.43 0.87,4.65 0.37,1.29 1.07,3.34 1.59,4.75l19.8 41.42c-36.08,-5.08 -37.48,-4.41 -50.46,-28.96 -7.93,-15.01 -4.41,-1.59 -5.57,-20.73 -2.65,-43.68 -0.67,-8.69 3.23,-10.08l-19.4 -5.56z"/>
   <path fill="#FCD322" stroke="#FCD322" stroke-width="11.98" stroke-miterlimit="22.9256" d="M519.28 3553.71c-12.12,-13.62 -6.99,-2.59 -1.59,-21.84 2.32,-8.25 6.33,-6.24 10.71,-24.72 -2.29,-2.89 -35.77,-81.42 -42.16,-96.05 -17.73,-40.58 -10.13,-79.03 -10.17,-114.57 -3.11,-13.5 16.73,-2.32 -13.08,-13.6l-30.99 12.67c-12.93,64.24 0.43,84.92 9.53,130.46 8.59,42.95 4.27,31.99 -3.89,36.29 9.71,13.24 16.54,19.63 19.42,30.51l15.08 22.81c-56.53,-2.94 -40.55,-8.92 -67.81,-30.08 -1.62,1.75 -3.26,4.31 -4.48,5.62l-18.01 16.72c-9.65,5.91 -14.45,4.64 -22.7,7.81 -1.11,13.74 0.5,23 -3.26,35.02l-38.99 65.16 41.79 56.33c-79.77,-11.05 -258.4,-81.15 -311.83,0.66 -11.17,42.51 19.91,70.65 54.46,73.68 37.62,2.08 195.29,28.48 212.64,40.36 50.54,34.63 86.93,70.76 151.45,96.85 137.79,55.73 236.46,-95.79 316.28,-156.57 102.72,-78.22 192.57,-132.32 317.23,-180.82 61.28,-23.85 121.23,-43.88 186.53,-60.5 67.07,-17.08 145.99,-24.2 207.04,-43.29 -0.67,-121.66 19.18,-195.23 29.27,-303.53 -39.75,-19.29 -253.16,32.5 -311.56,44.69 -163.12,34.05 -222.14,79.55 -339.56,128.72 -61.34,25.69 -219.84,139.09 -273.17,185.18 -36.09,31.19 -52.97,63.16 -99.8,75.29l21.63 -19.28z"/>
   <path fill="#2BB673" stroke="#2BB673" stroke-width="11.98" stroke-miterlimit="22.9256" d="M4685.66 4545.41l181.8 11.42c88.7,-5.52 238.24,-39.96 291.25,-101.54 27.76,-32.24 16.35,-140.68 6.45,-181.73l-12.56 -4.02c-42.42,-10.89 -59.7,-6.98 -101.55,-32.66 -38.21,-23.45 -55.26,-39.78 -78.28,-72.88 -21.63,-31.09 -38.17,-65.49 -46.04,-105.07 -9.41,-47.35 3.31,-98.63 -1.71,-143.53l-5.05 -15.28c32.99,35.54 -7.45,17.12 -15.08,22.62 -0.55,-36.64 -7.62,-44.82 -7.62,-90.38 -58.33,-11.59 -30.89,-17.16 -53.54,-57.51 -48.52,-86.46 -39.41,-31.1 -20.36,-71.16 0.61,-1.29 2.27,-3.16 2.63,-4.62 14.48,-58.42 0.07,-24.67 -19.11,-40.11l-42.73 62.17c-14.18,12.62 -45.84,27.56 -86.77,18.09 -47.05,-10.87 -36.35,-21.63 -36.35,-36.14 -9.25,-23.51 -68.09,-45.05 -103.39,-56.46 -8.46,75.98 -0.8,195.41 0.65,276.16 1.59,88.13 2.61,175.15 4.95,263.84 1.67,63.33 -2.04,206.72 7.37,255.24 17.57,90.52 180.84,92.98 135.03,103.55z"/>
   <path fill="#FEFEFE" d="M4098.89 1706.45l-10.63 -5.3c-28.56,-13.04 -64.1,-22.91 -65.68,-85.34 -0.67,-26.31 4.37,-45.49 19.39,-63.3 6.96,-8.25 16.07,-14.81 25.79,-19.66l22.36 -9.35c1.73,-0.77 4.42,-2.08 5.84,-2.71 1.44,-0.65 4.06,-1.65 5.91,-2.8 -52.85,-409.08 -583.14,-317.59 -606.85,143.02 -22.89,444.63 529.71,497.71 603.88,45.45z"/>
   <path fill="#23221C" d="M5165.06 4250.32c-141.75,-7.2 -233.63,-119.35 -226.7,-267.46 7.1,-151.72 136.48,-279.27 203.64,-274.59l23.06 542.06zm-240.05 -334.91c5.02,44.9 -7.69,96.18 1.71,143.53 7.87,39.58 24.41,73.98 46.04,105.07 23.02,33.1 40.08,49.43 78.28,72.88 41.85,25.69 59.13,21.78 101.55,32.66l12.56 4.02c9.89,41.05 21.3,149.49 -6.45,181.73 -53,61.58 -202.55,96.02 -291.25,101.54l-181.8 -11.42c-70.24,8.05 -164.39,-57.21 -172.54,-110.31 -10.4,-67.73 -5.42,-203.8 -6.98,-278.62 -1.92,-93.08 -3.96,-187.69 -5.48,-279.77 -0.78,-47.48 -1.11,-94.96 -2.4,-142.43 -1.47,-53.9 -16.99,-90.05 39.38,-87.64 35.3,11.42 94.14,32.95 103.39,56.46 83.15,25.66 122.68,27.47 135.57,-73.2 68.95,-4.56 141.54,-19.05 201.61,-40.76 71.82,-25.96 102.43,-56.86 152.04,-86.29l7.58 178.7c-72.96,48.53 -131.39,66.42 -177.92,160.48l-25.36 58.49c-7.95,15.31 -2.61,6.55 -9.54,14.9zm175.87 -429.25c-12.85,56.57 -243.04,125.73 -331.73,119.82 -16.33,-25.66 -36.79,-49.85 -45.57,-68.55 73.32,-11.17 127.06,-17.37 190.96,-41.11 48.15,-17.88 126.88,-68.81 149.54,-73.58l29.22 -40.51c45.58,10.71 78.4,62.74 7.57,103.92zm-271.7 -253.06l7.26 -20.29c93.99,3.74 235.83,86.84 233.7,169.18l-22.03 12.27c-15.66,38.2 -170.4,95.12 -203.75,97.34 -28.09,20.26 -120.98,30.82 -154.28,20.28 -31.58,-9.99 -61.25,-52.63 -105.98,-60.88 92.27,-9.24 199.25,65.24 220.72,-62.46 3.43,-56.43 -28.98,-93.81 -56.61,-121.62 12.32,-6.92 71.86,-30.11 80.98,-33.82zm-167.19 -8.78c-2.18,-21.62 -7.91,-112.93 -4.65,-129.94 5.61,-29.27 36.76,-52.18 72.98,-50.93 68.43,2.35 34.97,31.73 56.24,70.12 15.42,27.82 20.21,6.47 27.76,40.46 2.96,13.35 0.91,46.12 0.01,60.61 -52.77,23.63 -84.65,43.4 -152.35,9.68zm-121.65 -37.43c14.95,-27.42 43.18,-51.91 73.55,-58.21l2.59 64.83 -76.14 -6.63zm-276.59 -70.69c-14.87,28.23 -51.48,77.45 -77.63,92.66 -6.8,21.03 -12.36,24.62 -28.45,30.92 -10.57,26.23 -17.76,29.19 -36.91,49.65 -7.59,8.11 -14.66,16.75 -22.02,23.13 -17.59,15.27 -4.13,6.93 -25.84,17.27 -3.16,11.4 3.69,4.92 -11.86,20.43 -19.45,19.4 -8.35,8.47 -21.03,11.97l-25.35 32.48c-26.62,23.45 -53.31,50.63 -78.85,60.83 -0.98,1.62 -1.92,8.88 -14.99,18.17 -11.06,7.86 -8.03,5.68 -19.93,8.11 -69.65,102.3 -312.78,65 -427.15,25.32l-46.63 -24.51 -38.93 -9.8 -18.38 2.55c-0.78,0.16 -4.34,2.81 -4.93,1.25 -0.66,-1.71 -3.68,0.68 -5.39,1.38l11.69 52.96c0.68,-1.09 2.52,4.96 4.01,7.31 4.37,-27.78 -7.53,-11.39 6.88,-21.2 133.25,59.02 206.11,70.88 371.47,73.23l-28.89 19.77c138.93,13.12 409.09,-263.92 476.95,-345.4 74.1,-88.98 228.79,-289.54 307.48,-318.12 54.48,-19.78 139.64,-25.32 159.15,20.15 12.74,11.71 3.39,-14.44 10.86,22.09 1.38,6.72 0.98,21.05 -0.22,27.93 -7.53,42.84 -50.54,52.16 -98.6,76.43 -55.32,27.93 -100.24,63.83 -98.2,140.1 67.71,-7.46 160.37,6.39 213.32,31.76 43.13,20.66 114.33,88.14 78.47,143.49 -31.15,73.25 -123.61,7.29 -208.46,16.17 -59.98,6.28 -54.02,33.16 -54.75,35.06 60.55,-1.4 124.93,40.15 162.33,69.2 24.29,18.86 37.57,32.64 55.51,57.79 9.32,13.07 39.06,86.26 10.75,79.79 -47.82,84.32 -125.88,-55.75 -241.47,-44.54 -45.58,45.53 -42.06,100.88 -106.12,112.81 -54.28,10.11 -48.07,-11.14 -81.51,30.26 -15.84,19.62 -37.2,37.43 -47.45,62.7l32.34 -19.21c1.63,-4.28 4.25,-4.48 5.04,-5.71l9.98 25.98c37.9,-14.78 -8.06,-32.38 146.14,-68l3.87 229.79c5,110.51 -9.52,420.33 23,497.54 13.85,6.45 22.4,24.96 37.27,37.76l42.9 33.97 102.32 37.09c58.95,-3.93 140.11,4.94 209.11,2.56 49.09,-3.96 144.18,-27.93 172.17,-26.34l30.69 -17.69c10.63,-5 20.34,-8.93 30.9,-14.41 30.7,-15.94 38.15,-26.51 65.69,-35.55 7.56,-21.63 13.69,-23.54 28.73,-33.44 23.57,-36.6 13.02,-79.18 11.18,-127.11 -3.81,-64.44 -15.19,-187.23 -5.1,-245.68l-10.57 -116.36c-1.74,-45.87 -3.98,-89.43 -6.21,-135.5 -2.58,-31.64 -7.2,-68.01 0.92,-96.63 -0.95,-1.77 -1.79,-4.25 -2.2,-5.63 -0.42,-1.41 -1.56,-4.02 -2.02,-5.81l-12.84 -193.47 -3.25 -58.56c16.1,-65.46 12.71,-57.09 -3.14,-112.31l-3.25 -5.13c-23.54,-11.12 -50.85,-27.29 -67.19,-48.27 -111.54,-143.19 -129.99,-95.92 -194.7,-147.47l-29.82 -2.62c-24.7,-17.8 -12.24,10.42 -18.69,-70.46 -24.51,-9.89 -11.84,2.89 -33.97,-15.08 -6.14,-73.15 -4.84,-37.54 -36.18,-78.95l-20.68 -1.1 -38.99 -6.34c-12.17,-56.62 -7.86,-51.72 -40.23,-88.16l-7.95 -9.2c-54.57,-2.5 -154.79,-45.58 -256.56,47.06 -33.26,30.27 -51.54,51.26 -81.87,84.07 -17.98,19.44 -51.27,78.68 -75.77,82.81z"/>
   <path fill="#D51A1E" d="M2767.39 3375.34l38.14 9.83c-10.96,22.8 -17.77,13.68 -33.38,28.94l33.46 0.91c-1.05,199.54 14.9,134.23 41.51,228.91 12.54,44.6 27.02,47.17 41.21,87.12 17.46,49.16 -4.44,19.21 25.27,41.81l245.27 213.83c23.03,14.95 33.67,40.43 34.09,65.25 0.44,26.09 4.78,3.17 -10.23,20.63 138.78,-176.03 199.78,-349.74 162.03,-593.99 -34.06,-220.36 -525.12,-139.98 -577.37,-103.25z"/>
   <path fill="#023380" d="M1317.47 5059.91c14.63,33.81 22.17,25.62 45.4,45.37 15.99,13.59 25.07,21.9 40.64,34.38l71.94 76.06c48.1,-13.9 22.38,5.95 52.37,25.87 20.94,13.92 1.16,3.17 21.5,8.01l-14.48 60.18c25.42,21.21 22.29,8.85 22.93,31.99 40.87,-4.75 33.35,-4.71 70.15,-67.4l83.7 -166.64c15.15,-51.91 -33.27,-19.19 -71.07,-39.09 13.95,-18.9 0.08,-14.36 75.37,-14.24 205.05,0.35 118.63,-22.39 234.63,-31.38 -6.17,28.96 10.28,10.6 -48.2,35.85 -0.42,47.13 33.53,123.75 58.08,163.01l19.4 5.56c-3.9,1.39 -5.88,-33.6 -3.23,10.08 1.16,19.14 -2.37,5.72 5.57,20.73 12.98,24.55 14.38,23.88 50.46,28.96l-19.8 -41.42c-0.52,-1.42 -1.22,-3.47 -1.59,-4.75 -0.34,-1.22 -0.65,-3.59 -0.87,-4.65l32.76 -14.12c-0.29,-47.81 -12.95,-66.48 -18,-115.98 52.89,-7.44 15.66,13.13 30.12,-30.08 -37,3.13 -36.71,12.28 -63.31,12.86 -28.93,0.62 -11.3,6.68 -22.62,-6.56l-1.59 -7.42c6.19,-30.2 -28.48,27.59 5.23,-7.48l15.01 -9.65c1.72,-1.04 3.68,-1.96 5.42,-2.98 5.77,-3.34 16.93,-9.65 20,-11.39l39.59 -27.73c-22.63,-29.21 -12.05,-2.29 -30.9,-30.12l62.53 -7.82c27.14,-0.78 56.34,0.25 83.74,0.25l0 -120.62 120.62 0c0,-29.94 -0.65,-60.6 0.02,-90.45 0.33,-14.62 2.69,-32.91 2.74,-45.46 0.03,-7.72 0.5,-15.18 -1.42,-22.71 -7.44,-29.09 0.29,-11.21 -14.89,-28.3 -2.26,61 7.38,49.1 -16.57,66.31 0,-12.75 -1.54,-51.81 0.96,-61.7 20.6,-81.41 21.65,104.65 21.65,-179.53l128.12 0 0 120.62c199.13,0 62.49,-7.03 137.2,-15.11l-2.54 16.71c-0.11,1.07 -0.34,3.88 -0.42,4.92l-0.05 8.53c75.46,28.24 33.86,12.48 102.54,54.31 18.19,-31.39 7.05,-4.22 10.19,-34.53 -22.69,-29.09 -37.29,-19.13 -66.44,-64 -16.19,-24.9 -31.44,-47.92 -49,-71.72 -29.45,-39.92 -26.09,-21 -58.6,-69.83 -20.94,-31.45 -47.26,-35.26 -50.17,-69.28 -38.93,8.8 -18.65,-2.83 -24.98,-6.68 -2.13,-1.29 -12.91,-11.86 -15.96,-14.5l-104.42 -99.73c-55.1,2.84 -55.18,-12.1 -82.05,-30.7 -16.26,-11.26 -15.14,-4.07 -34.27,-24.87 -22.49,-24.44 -31.25,-24.18 -58,-33.68 -41.22,-14.63 -15.9,-5.39 -45.28,-28.03 -1.38,-1.06 -3.25,-2.32 -4.68,-3.36 -1.87,-1.36 -7.7,-5.17 -9.61,-6.43l-18.24 -11.11c-6.73,-3.26 -27.26,-9.73 -33.36,-11.83 -36.49,-12.59 -122.89,-60.48 -194.81,-69.27 13.83,20.71 -0.53,2.22 13.58,15.12 21.88,20.01 52.81,25.53 104.8,68.89l26.47 19.41c158.85,107.7 295.14,292.83 247.58,502.66 -14.21,62.73 -36.09,82.48 -67,125.85 -10.79,15.14 -15.62,22.49 -25.75,35.07 -63.12,78.39 -65.36,58.85 -134.47,114.08 -41.49,33.15 -206.93,106.95 -262.08,114.33 -29.69,3.97 -71.25,9.9 -106.77,17.47 -19.44,32.91 -10.95,40.54 -135.08,32.16 -47.24,-3.19 -107.95,-20.74 -150.42,-21.27z"/>
   <path fill="#FCE998" d="M2484.89 3057.77c27.56,-14.73 7.59,5.22 20.13,-28.16l38.91 -111.84c58.39,-162.72 71.1,-343.04 69.56,-525.42 -0.61,-72.26 -32.66,-315.06 -56.89,-379.27l-26.58 -125.89c-9.3,-74.2 -45.69,-158.52 -71.24,-228.14l-131.57 -360.37c-4.92,-10.54 -9.59,-19.9 -14.42,-30.29l-47.95 -110.78c-4.47,-11.38 -6.33,-21.57 -12.71,-32.83 -9.55,-16.86 -7.81,-4.4 -19.03,-32.32 -12.12,-30.14 -17.57,-42.81 -30.17,-68.97l-11.39 -19.17c-24.42,-32.27 -9.21,-1.11 -22.3,-43.14 -10.43,-33.48 -54.63,-103.36 -72.4,-133.5l-50.58 -69.07c-30.5,-40.2 -58.91,-54.1 -93.34,-90.89 -24.66,-9.3 -51.25,-18.74 -80.91,-10.87 -0.25,35.17 46.99,87.42 66.24,118.78 163.46,266.26 323.78,676.99 431.72,970.18 143.82,390.65 225.39,756.14 89.17,1163.6 -16.69,49.93 -44.99,104.89 -57.4,148.09l83.14 0.25z"/>
   <path fill="#00ADEF" d="M2398.58 6161.49c64.25,47.28 381.29,141.57 488.2,137.32 112.11,-5.25 375.4,-31.32 273.23,-194.15 -34.2,-54.51 -71.3,-83.64 -120.45,-128.14 -96.38,-87.27 -111.26,-18.06 -191.1,-43.68 -17.42,-5.59 -5.93,-0.19 -16.14,-8.45 -46.96,-1.35 -87.87,-9.75 -132.86,-20.88 -58.14,-14.38 -65.04,-24.09 -111.56,-46.39 -63.12,6.92 -138.88,164.48 -156.78,220.2 -31.31,97.49 -4.93,95.11 -32.55,84.17z"/>
   <path fill="#E3AE25" d="M4096.73 1852.51c66.85,-3.05 128.95,18.21 148.89,83.41 11.3,36.97 4.83,75.66 -10.19,104.28 -15.81,30.13 -28.03,42.32 -53.23,62.8 -30.97,25.8 -84.29,43.25 -112.41,70.32 -34.44,76.49 218.45,375.34 -233.45,506.42 -161.6,46.87 -371.05,67.26 -544.75,67.1 -62.12,-0.06 -133.08,-17.24 -191.62,-9.62l11.72 6.52c36.94,15.39 157.05,27.13 195.59,30.3 229.64,18.9 456.8,7.66 669.98,-57.19 484.92,-147.5 306.85,-250.15 205.49,-535.22l-53.83 -0.84c12.34,-7.05 139,-40.79 217.39,-75.3 211.51,-93.09 154.04,-314.11 -6.74,-314.84 -46.82,-0.21 -181.87,27.09 -226.73,51.21 -11.43,6.15 -9.1,4.6 -16.11,10.66z"/>
   <path fill="#FCD322" d="M955.76 5303.51c-18.36,-21.66 -9.41,-38.39 -12.43,-71.2l-11.27 2.89c11.2,11.92 21.66,-22.93 11.8,37.09 -1.64,9.98 -9.79,18.7 -12.99,22.23 -4.06,4.47 -31.21,23.63 -39.11,28.5 -13.72,8.45 -30.51,15.99 -44.27,24.42 -14.76,9.04 -21.27,13.59 -23.93,34.33 51.41,68.87 99.74,156.71 110.25,260.57l20.99 -6.54c181.45,-42.43 314.18,-60.35 353.31,-312.15 9.27,-59.63 19.83,-167.72 0.87,-223.72 -22.53,-36.7 -233.05,-139.09 -298.27,-155.89 -6.29,71.44 -5.46,136.95 -12.1,205.75 -7.69,79.77 -16.49,97.53 -40.37,166.84l-2.49 -13.11z"/>
   <path fill="#FCD322" d="M2696.94 5429.02c-10.49,31.45 -7.39,197.41 -16.6,234.64 -4.9,19.82 0.55,5.41 -8.49,17.09 45.53,70.34 168.52,70.14 265.61,63.18 27.03,-69.85 51.52,-316.4 43.36,-408.15 -6.26,-70.58 -20.02,-125.93 -49.94,-177.18 -20.56,-35.21 -79.48,-107.02 -108.52,-120.15 -10.39,2.14 -6.29,1.62 -15.36,12.6 -70.56,85.46 -85.44,110.57 -185.5,184.5 -22.43,16.57 -56.6,32.84 -73.8,49.73 109,63 120.24,76.54 189.46,172 -24.84,-3.88 -16.22,-12.68 -40.23,-28.26z"/>
   <path fill="#FCFCFD" d="M184.75 6248.88c44.76,11.3 68.68,25.08 121.69,17.83 14.09,-1.93 38.82,-8.33 51.36,-15.32 27.42,-15.28 21.57,-17.84 20.03,-49.03l-38.3 -399.71c-17.47,-98.23 -80.65,-262.18 -175.37,-251.25 -105.16,12.13 -62.91,261.65 -54.59,349.7 10.16,107.44 11.34,279.14 75.17,347.77z"/>
   <path fill="#0183CB" d="M2832.33 5924.38c10.21,8.27 -1.28,2.86 16.14,8.45 79.83,25.62 94.72,-43.59 191.1,43.68 49.15,44.5 86.25,73.63 120.45,128.14 102.17,162.83 -161.12,188.9 -273.23,194.15 2.14,0.99 4.84,1.83 6.69,2.34l43.62 6.83c199.25,8.5 489.92,10.69 664.12,-61.77 -28.94,-98.12 -214.71,-247.95 -301.42,-303.26 -167.77,-107.02 -119.06,-67.4 -195.26,-42.22 -95.08,31.42 -162.03,21.68 -272.2,23.66z"/>
   <path fill="#D71A20" stroke="#D71A20" stroke-width="11.98" stroke-miterlimit="22.9256" d="M1582.33 3045.34c-10.43,53.83 -71.58,175.67 -52.89,241.63 15.87,62.83 -21.26,90.34 -4.94,137.48 5.51,15.9 2,8.53 10.61,18.57 7.4,-11.05 2.28,-27.51 19.81,-44.93l22.21 -14.09c34.51,-24.2 54.88,-52.44 144.02,-111.96 11.31,-7.56 26.88,-15.33 43.23,-19.75 48.45,-13.11 43.33,4.21 46.57,9.88 -1.32,-34.17 0.19,-17.82 38.17,-36.57 4.37,-2.16 13.21,-7.76 17.71,-10.59 38,-23.91 35.29,-27.63 86.57,-33.63 7.47,23.45 13.47,29.88 6.53,39.22 39.25,-20.06 82.1,-45.61 120.4,-64.01 22.55,-10.83 41.18,-16.83 62.91,-27.12 18.83,-8.92 55.86,-21.71 67.7,-28.03 -14.56,-2.54 -160.51,-67.89 -260.74,-92.47 -167.97,-41.2 -213.3,-21.99 -279.7,-31.14 -20.1,-2.77 -25.02,11.73 -21.02,-11.07 -41.02,40.19 -54.44,67.79 -67.15,78.59z"/>
   <path fill="#E3AE25" d="M3257.22 4027.67l-34.25 37.51c-9.86,12.66 -19.51,21.48 -30.76,34.2 8.26,22 12.14,19.23 60.31,35.63 382.2,130.18 698.71,14.05 965.07,-266.22l32.82 -34.2c12.8,-9.92 0.29,-2.89 12.27,-6.86 10.25,-25.27 31.6,-43.09 47.45,-62.7 33.44,-41.4 27.23,-20.15 81.51,-30.26 64.06,-11.93 60.54,-67.28 106.12,-112.81 115.59,-11.21 193.65,128.86 241.47,44.54 -78.7,14.68 -127.15,-107.02 -256.85,-103.85 -16.92,22.69 -35.2,49.14 -48.78,69.63 -52.31,78.93 -88.92,-1.22 -151.98,73.95 -68.21,81.29 -213.11,208.84 -304.98,260.56 -103.86,58.47 -201.98,102.14 -337.28,118.06 -88.81,10.44 -340.16,-2.96 -382.13,-57.19z"/>
   <path fill="#E3AE25" d="M3591.67 193.59c21.88,18.05 8.22,64.81 8.26,140.84 0.1,157.82 14.65,307.02 61.76,451.28l65.14 184.17c12.85,29.79 17.69,25.05 45.21,44.73 114.98,82.28 74.34,154.3 32.22,223.86l113.03 2.22c43.24,-36.08 61.97,-97.32 22.89,-152.3 -28.63,-40.27 -76.17,-57.36 -118.39,-98.1 -9.89,-94.65 -17.71,-132.37 -41.38,-216.96 -41.03,-146.64 -60.65,-293.38 -63.79,-446.3 -1.65,-80.08 6.36,-176.53 -6.26,-253.65 -42.76,-2.13 -110.29,101.84 -118.68,120.21z"/>
   <path fill="#E3AE25" d="M2822.36 5038.45c29.04,13.13 87.96,84.95 108.52,120.15 29.92,51.25 43.67,106.6 49.94,177.18 8.16,91.75 -16.33,338.31 -43.36,408.15 135.37,-15.74 143.45,-36.57 171.65,-156.08 42.43,-179.87 57.27,-368.07 -57.3,-520.65 -29.58,-39.39 -123.13,-128.12 -167.77,-149.01 -20.51,52.69 -44.92,75.62 -61.67,120.25z"/>
   <path fill="#03ACEB" d="M570.89 5640.95c126.17,-74.17 184.94,281.74 75.98,334.42 -121.51,58.74 -184.67,-270.52 -75.98,-334.42zm-293.83 -180.35c42.12,50.24 94.44,52.51 162.1,213.58 35.93,85.53 49.94,198.2 58.27,306.66 1.51,2.16 3.34,2.84 4.01,6.82l13.92 34.09c96.99,38.67 173.62,-11.83 206.93,-77.82 70.16,-139 29.59,-255.24 32.27,-277.95 -0.05,-70.72 -79.04,-187.82 -115.49,-211.96l-39.77 -6.26c-96.8,-32.24 -228.91,-7.17 -322.24,12.83z"/>
   <path fill="#D3D3D4" d="M2870.36 6316.31c1.99,43.74 -5.36,56.43 -30.22,87.8 -45.55,57.48 -30.75,17.46 -79.78,24.79 40.43,36.21 387.74,50.76 463.4,49.28 125.13,-2.45 336,-18.02 422.41,-82.76 3.98,-50.03 -17.79,-90.72 -27.82,-131.58 -56.58,8.26 -113.89,27.39 -170.31,38.03 -181.85,34.32 -395.38,41.32 -577.69,14.44z"/>
   <path fill="#0183CB" d="M497.43 5980.85c0.74,36.6 14.32,166.19 24.59,199.73 48.21,157.4 417.11,36.41 478.75,3.77 -2.88,-100.94 -147.48,-215.07 -221.09,-246.3 -2.95,-87.55 1.35,-124.1 -8.23,-217.14 -1.06,-10.3 -2.47,-23.5 -5.61,-33.35 -8.52,-26.7 1.74,-7.39 -11.29,-21.57 -2.68,22.71 37.88,138.95 -32.27,277.95 -33.3,65.98 -109.93,116.49 -206.93,77.82l-13.92 -34.09c-0.67,-3.98 -2.5,-4.66 -4.01,-6.82z"/>
   <path fill="#E3AE25" d="M101.32 3746.59l51.95 28.11c18.68,5.62 36.24,11.01 58.45,16.45 139.24,34.12 196.08,141.24 277.35,159.67 159.65,36.18 302.91,-153.31 401.62,-187.56l122.79 -68.88c41.37,-17.14 108.98,-48.04 158.9,-41.12 1.72,-1.13 4.25,-2.1 5.57,-2.68l39.24 -15.38c38.59,-17.97 87.78,-58.63 191.53,-102.59 28.21,-11.95 55.42,-18.09 83.02,-31.95l0.72 -58.03c-61.04,19.09 -139.96,26.21 -207.04,43.29 -65.3,16.62 -125.25,36.65 -186.53,60.5 -124.65,48.49 -214.51,102.6 -317.23,180.82 -79.82,60.77 -178.49,212.3 -316.28,156.57 -64.52,-26.09 -100.91,-62.22 -151.45,-96.85 -17.35,-11.88 -175.02,-38.27 -212.64,-40.36z"/>
   <path fill="#F47578" d="M2247.41 3107.18l-42.93 22.69c-147.8,57.22 -291.55,141.07 -413,242.74 -74.55,62.4 -67.91,78 -107.26,124.53 -271.91,1.36 -413.5,150.55 -503.38,184.84 -10.77,29.06 -339.7,227.53 -256.09,406.13 46.33,-36.76 -1.83,-30.71 120.03,-105.08 -12.44,-114.02 171.89,-244.72 254.63,-295.66 121.17,-74.61 255.62,-116.68 424.17,-138.78 20.44,-24.16 32.19,-54.24 55.52,-82.96 113.38,-139.56 370.13,-296 540.84,-348.47 35.58,-10.94 83.44,-18.02 118.67,-31.75l-71.73 0.16 -119.48 21.6z"/>
   <path fill="#4AD994" d="M5165.06 4250.32l-23.06 -542.06c-67.16,-4.68 -196.54,122.88 -203.64,274.59 -6.92,148.12 84.95,260.27 226.7,267.46z"/>
   <path fill="#E3AE25" d="M933.82 5642.34l5.19 82.46c152,-5.23 297.13,-64.64 367.92,-145.85 81.6,-93.6 113.92,-259.94 91.23,-412.31 -27.53,-28.63 -55.63,-48.46 -89.16,-66.71 18.95,56 8.39,164.09 -0.87,223.72 -39.14,251.8 -171.86,269.72 -353.31,312.15l-20.99 6.54z"/>
   <path fill="#FCFCFD" d="M408.42 6205c29.84,-21.82 46.83,-62.01 59.61,-93.35 31.35,-76.81 -6.55,-73.55 7.87,-134.6 11.14,-128.46 -46.68,-308.91 -103.7,-393.71 -87.96,-130.82 -239.48,-197.93 -269.11,-23.77 68.33,-46.87 116.11,-40.98 169.66,25.01 146.1,180.04 77.39,482.93 135.66,620.42z"/>
   <path fill="#2DB573" d="M4641.04 3703.09c0,14.51 -10.7,25.26 36.35,36.14 40.93,9.46 72.58,-5.48 86.77,-18.09l42.73 -62.17c19.18,15.44 33.58,-18.3 19.11,40.11 -0.36,1.45 -2.02,3.33 -2.63,4.62 -19.05,40.06 -28.16,-15.3 20.36,71.16 22.65,40.34 -4.78,45.91 53.54,57.51 0,45.56 7.07,53.74 7.62,90.38 7.62,-5.49 48.06,12.92 15.08,-22.62l5.05 15.28c6.93,-8.35 1.59,0.41 9.54,-14.9l25.36 -58.49c46.53,-94.06 104.96,-111.95 177.92,-160.48l-7.58 -178.7c-49.61,29.42 -80.22,60.33 -152.04,86.29 -60.07,21.71 -132.66,36.2 -201.61,40.76 -12.89,100.66 -52.42,98.86 -135.57,73.2z"/>
   <path fill="#FCFCFD" d="M788.77 5694.38l33.21 12.23c16.29,1.05 29.18,-1.14 41.52,-5.75 31.8,-11.89 37.4,-29.96 43.94,-61.83 13.01,-81.13 -81.71,-226.42 -122.32,-265.31 -58.95,-56.44 -213.33,-137.34 -254.55,-3.53l53.69 23.75c136.32,55.8 166.34,182.11 204.52,300.45z"/>
   <path fill="#FCFCFD" d="M2760.36 6428.9c49.03,-7.33 34.23,32.69 79.78,-24.79 24.85,-31.36 32.21,-44.06 30.22,-87.8 -204.29,-14.56 -339.44,-86.62 -500.51,-145.24l5.78 138.9c55.4,33.59 317.13,122.42 384.72,118.93z"/>
   <path fill="#D3D3D4" d="M408.42 6205c33.58,132.49 122.24,159.96 274.83,156.35 115.69,-2.73 257.62,-19.36 341.1,-79.35l-9.75 -77.48c-49.24,6.08 -121.82,37.47 -176.97,50.64 -458.77,109.62 -303.46,-200.36 -361.73,-278.11 -14.42,61.05 23.47,57.79 -7.87,134.6 -12.78,31.34 -29.77,71.53 -59.61,93.35z"/>
   <path fill="#FCFCFD" d="M2959.94 5902.9c55.46,-69.25 13.57,-86.74 -7.87,-136.38 -73.07,0.76 -148.28,8.49 -215.54,-15.36 -74.35,-26.37 -77.13,-39.28 -108.32,-114.06 -116.97,26.88 -105.13,164.88 3.55,219.36 86.19,43.2 221.01,57.15 328.18,46.45z"/>
   <path fill="#E3AE2B" d="M2851.81 3203.52c11.14,22.45 1.62,7.71 18.13,25.39l63.27 64.89c28.94,28.51 94.98,19.98 120.47,-8.53 18.21,-20.37 56.24,-75.1 82.16,-82.63 67.67,-19.67 66.58,11.51 138.41,-37.19 49.11,-83.65 2.47,-116.62 -80.26,-125.6 -73.72,-8.01 -139.1,-15.09 -213.86,-26.15 9,20.27 22.42,26.51 36.74,38.4 105.16,87.34 10.69,126.12 -81.08,136.03 -35.75,3.86 -70.47,1.71 -83.98,15.4z"/>
   <path fill="#FDE594" d="M3375.18 3538.28l4.53 47.27c35.51,-3.16 116.54,23.02 168.84,28.09l144.31 4.36c18.48,5.66 0.04,-6.62 12.74,12.93 0.83,1.29 3.44,6.78 5.09,8.66 38.51,0.04 60.48,-2.63 94.08,-9.62 12.01,-2.49 32.81,-5.29 44.57,-8.51 41.78,-11.46 5.51,-1.77 35.1,-17.8 147.02,-79.67 316.3,-286.05 427.42,-416.95l96.09 -114.85c46.6,-44.51 53.03,-68.13 113.47,-98 35.34,-17.46 147.69,-55.15 144.66,18.38l2.16 -25.55c-19.51,-45.47 -104.67,-39.93 -159.15,-20.15 -78.69,28.58 -233.38,229.15 -307.48,318.12 -67.86,81.48 -338.02,358.52 -476.95,345.4l28.89 -19.77c-165.36,-2.35 -238.22,-14.21 -371.47,-73.23 -14.41,9.81 -2.51,-6.57 -6.88,21.2z"/>
   <path fill="#361817" stroke="#361817" stroke-width="11.98" stroke-miterlimit="22.9256" d="M2471.34 3075.23c1.47,1.1 4.08,0.34 4.95,2.45 1.88,4.66 220.34,32.16 249.95,81.08 50.33,15.55 73.43,44.05 106.33,69.88 27.42,21.53 66.21,55.38 83.83,84.55 -56.64,8.48 -194.98,47.91 -239.42,74.34 29.12,16.54 58.3,-7.96 90.41,-12.2 52.25,-36.73 543.31,-117.12 577.37,103.25 37.75,244.25 -23.26,417.96 -162.03,593.99 -6.99,10.27 -9.08,11.51 -11.8,15.14l-14.6 20.42 17.26 5.22c31.39,-13.33 12.02,10.72 18.62,-13.98 11.26,-12.72 20.9,-21.54 30.76,-34.2l34.25 -37.51c7.96,-30 31.52,-57.3 48.66,-90.89 14.88,-29.18 31.35,-68.5 41.57,-101.49 27.44,-88.61 29.89,-154.27 32.26,-249.74l-4.53 -47.27c-1.48,-2.35 -3.33,-8.4 -4.01,-7.31l-11.69 -52.96c1.72,-0.69 4.74,-3.09 5.39,-1.38 0.59,1.57 4.14,-1.09 4.93,-1.25l18.38 -2.55c-1.84,-18.21 -1.77,-23.64 -7.07,-40.62 -5.83,-18.68 -6.68,-9.53 -10.15,-30.64 -14.27,-9.55 -15.39,-4.93 -19.11,-21.9l-22.18 -22.24c-4.15,-0.35 -98.36,-45.92 -121.95,-55.63 -7.04,6.65 -12.04,16.62 -37.19,21.5 -35.57,6.9 -44.6,-10.78 -114.47,-11.14 5.05,-30.74 23.27,-42.49 59.58,-78.2l27.17 -17.65c50.76,-14.61 127.95,7.42 131.42,-50.86 -71.83,48.7 -70.74,17.52 -138.41,37.19 -25.91,7.53 -63.94,62.26 -82.16,82.63 -25.5,28.51 -91.53,37.05 -120.47,8.53l-63.27 -64.89c-16.51,-17.68 -6.99,-2.93 -18.13,-25.39 -15.64,-3.2 4.25,6.58 -22.07,-9.77 -8.11,-5.04 -7.9,-5.83 -17.5,-12.79 -93.96,-68.23 -206.71,-111.9 -325.29,-121.37l-15.61 15.64z"/>
   <path fill="#FDE594" d="M519.28 3553.71l-21.63 19.28c46.83,-12.14 63.71,-44.11 99.8,-75.29 53.33,-46.09 211.83,-159.49 273.17,-185.18 117.42,-49.18 176.44,-94.68 339.56,-128.72 58.4,-12.19 271.81,-63.98 311.56,-44.69l24.4 -70.89 -48.69 2.84c-311,39.75 -565.99,112.63 -794.72,306 -52.27,44.19 -145.56,123.71 -183.46,176.66z"/>
   <path fill="#FCD322" d="M3940.65 2007.95c47.08,0 34.66,15.44 82.68,-6.64 17.74,-8.16 -8.39,-6.3 37.15,-15.9 4.88,14.82 7.01,45.94 4.32,53.79 -6.38,18.64 0.52,8.07 -13.74,19.62 -13.97,11.32 -7.92,2.74 -23.41,9.48 0.29,37.91 32.24,43.69 57.44,44.94 45.28,2.25 1.43,-44.72 97.1,-10.23 25.2,-20.48 37.42,-32.67 53.23,-62.8 15.02,-28.62 21.5,-67.31 10.19,-104.28 -19.94,-65.19 -82.04,-86.46 -148.89,-83.41 -31.89,-2.75 -52.09,52.33 -71.21,75.31 -10.3,12.39 -22.17,25.35 -36.79,38.4 -17.56,15.69 -30.53,20.11 -48.09,41.72z"/>
   <path fill="#969699" d="M4804.82 3388.54c10.01,9.93 19.93,21.51 25.29,42.31 4.25,16.48 1.63,19.79 3.56,31.76 4.13,25.73 -5.13,13.8 10.69,28.99 33.36,-2.22 188.09,-59.13 203.75,-97.34 -1.29,-34.19 -42.84,-83.26 -78.7,-108.96 -18.14,-13.01 -39.85,-26.06 -62.07,-36.32 -31.23,-14.4 -47.24,-24.06 -78.16,-15.89 -9.12,3.72 -68.66,26.91 -80.98,33.82 27.63,27.81 60.04,65.19 56.61,121.62z"/>
   <path fill="#C4151B" d="M1529.44 3286.97c-22.88,21.42 -17.67,164.24 -12.12,201.76 14.63,1.61 140.01,-14.36 151.39,-19.35 20.74,-9.08 30.24,-34.57 41.95,-49.34 51.88,-65.43 173.3,-148.64 249.27,-199.45 6.93,-9.33 0.93,-15.77 -6.53,-39.22 -51.28,5.99 -48.57,9.72 -86.57,33.63 -4.5,2.83 -13.33,8.42 -17.71,10.59 -37.97,18.75 -39.48,2.41 -38.17,36.57 -3.25,-5.67 1.88,-22.99 -46.57,-9.88 -16.35,4.42 -31.92,12.2 -43.23,19.75 -89.14,59.52 -109.51,87.76 -144.02,111.96l-22.21 14.09c-17.53,17.42 -12.41,33.88 -19.81,44.93 -8.61,-10.04 -5.1,-2.66 -10.61,-18.57 -16.32,-47.15 20.81,-74.65 4.94,-137.48z"/>
   <path fill="#361817" d="M1497.46 3071.05l48.69 -2.84 -24.4 70.89c-10.08,108.3 -29.94,181.87 -29.27,303.53l-0.72 58.03c-27.61,13.86 -54.82,20 -83.02,31.95 -103.75,43.96 -152.94,84.62 -191.53,102.59l-39.24 15.38c-1.32,0.57 -3.86,1.54 -5.57,2.68l21.68 5.57c-14.27,11.33 -8.86,3.05 -13.22,23.15 89.87,-34.29 231.47,-183.48 503.38,-184.84 39.35,-46.53 32.72,-62.13 107.26,-124.53 121.45,-101.67 265.21,-185.52 413,-242.74l42.93 -22.69 -22.39 -7.01 -14.08 1.26c-11.84,6.33 -48.87,19.12 -67.7,28.03 -21.73,10.29 -40.36,16.29 -62.91,27.12 -38.3,18.41 -81.15,43.95 -120.4,64.01 -75.97,50.81 -197.39,134.02 -249.27,199.45 -11.71,14.77 -21.21,40.26 -41.95,49.34 -11.38,4.98 -136.76,20.96 -151.39,19.35 -5.55,-37.52 -10.76,-180.34 12.12,-201.76 -18.69,-65.97 42.46,-187.8 52.89,-241.63 -20.82,5.99 -17.91,-25.3 -24.6,26.19 -8.29,-5.85 -14.99,-13.47 -30.48,-13.04 -26.27,0.72 -15.32,-4.92 -29.79,12.56z"/>
   <path fill="#F9F9F9" d="M544.31 5852.65c45.37,199.72 169.95,91.95 131.04,-90.93 -43,-202.1 -173.5,-95.94 -131.04,90.93z"/>
   <path fill="#FED32A" d="M316.89 3615.91l38.99 -65.16c3.76,-12.01 2.14,-21.28 3.26,-35.02 8.25,-3.17 13.05,-1.9 22.7,-7.81l18.01 -16.72c1.22,-1.31 2.86,-3.86 4.48,-5.62 27.26,21.15 11.28,27.14 67.81,30.08l-15.08 -22.81c-61.34,-24.37 -207.97,-180.19 -268.65,-117.93 -57.91,59.42 116.11,236.65 128.48,240.99z"/>
   <path fill="#FCFCFD" d="M2978.32 2990.06l121.47 19.51c23.18,-50.8 117.74,-185.46 125.67,-223.64l-152.13 -24.02c-19.98,65.4 -85.13,164.59 -95.01,228.15z"/>
   <path fill="#4687E9" d="M1074.35 4664.94c24.26,16.17 14.38,16.44 35.84,32.79 -4.6,-18.06 -53.41,-95.19 -70.07,-137.76 -100.95,-257.77 2.45,-534.81 1.94,-544.41 -109.01,27.45 -124.58,204.69 -102.5,336.99 19.51,116.94 68.6,246.4 134.79,312.39z"/>
   <path fill="#4AD994" d="M4685.66 4545.41c45.81,-10.57 -117.47,-13.03 -135.03,-103.55 -9.41,-48.51 -5.7,-191.91 -7.37,-255.24 -2.34,-88.69 -3.37,-175.71 -4.95,-263.84 -1.45,-80.74 -9.11,-200.17 -0.65,-276.16 -56.37,-2.41 -40.85,33.74 -39.38,87.64 1.28,47.47 1.61,94.96 2.4,142.43 1.51,92.08 3.56,186.7 5.48,279.77 1.55,74.82 -3.42,210.89 6.98,278.62 8.16,53.1 102.31,118.36 172.54,110.31z"/>
   <path fill="#969699" d="M5100.88 3486.16c15.27,-39.63 -3.99,-64.19 -36.79,-63.41 -22.66,4.77 -101.38,55.7 -149.54,73.58 -63.91,23.74 -117.64,29.93 -190.96,41.11 8.77,18.69 29.24,42.88 45.57,68.55 88.69,5.92 318.88,-63.25 331.73,-119.82z"/>
   <path fill="#F8D638" stroke="#F8D638" stroke-width="11.98" stroke-miterlimit="22.9256" d="M2070.18 688.7c7.01,44.64 -5.87,11.07 30.29,22.62 0,-72.24 -14.56,-62.8 7.54,-90.39 23.6,32.72 22.03,-24.87 30.19,31.58l25.43 -8.77c-40.06,-3.86 -23.11,-8.17 -54.67,-16.92 0.97,-38.99 -5.02,-26.7 13.65,-47.71l30.66 -14.71 48.85 50.95c11.63,25.12 16.96,5.42 33.82,-4.19 37.9,-21.59 43.73,0.95 45.48,3.32l1.15 -23.75c-59.64,-0.38 -12.77,3.26 -26.41,-13.07 -7.29,-8.73 -18.75,-39.64 -13.5,-55.34 10.46,-31.27 -14.21,1.26 11.05,-15.4 9.34,-6.17 23.58,-1.6 29.2,4.19 -0.64,-7.32 -2.74,-11.57 -0.62,-19.68 6.04,-23.02 2.77,-15.02 14.2,-28.81l10.7 22.08c12.8,29.82 1.94,25.65 29.25,24.21 -3.35,-1.17 -8.39,30.85 -9.75,-38.76l36.2 11.4c-15.6,-25 -120.13,-107.21 -149.01,-94.02 -30.42,44.06 -6.66,139.33 -7.23,195.63 -27.7,-13.56 -51.42,-33.99 -76.12,-52.52 -125.44,-94.08 -92.3,-23.29 -60.36,158.05z"/>
   <path fill="#D3D3D4" d="M2952.06 5766.52c21.44,49.64 63.33,67.13 7.87,136.38 318.32,-17.23 196.47,-194.74 158.27,-218.69 -22.95,11.14 -14.3,12.27 -37.33,33.27 -41.48,37.83 -87.08,36.48 -128.82,49.04z"/>
   <path fill="#FCFCFD" d="M3123.64 3011.18l99.9 8.86 127.38 -161.07c14.95,-18.41 33.01,-32.99 40.02,-58.67l-139.25 -9.54c-23.36,57.3 -114.36,175.31 -128.05,220.42z"/>
   <path fill="#043576" d="M1003.05 4920.01c-9.22,-10.72 -1.61,-4.59 -14.81,-12.6 -1.69,-1.02 -3.56,-2.08 -5.38,-3.01l-95.75 -22.44c-50.31,-3.66 -88.86,-1.51 -138.09,-11.04l-19.51 -4.44 146.36 197.89c49.62,39.46 38.49,35.46 72.7,34.55 -8.24,-87.37 10.5,-123.3 -18.82,-194.13l73.31 15.21z"/>
   <path fill="#FCFCFD" d="M2952.36 2973.62l100.6 -217.87c-86.38,-18.44 -165.03,-27.7 -184.96,57.16 -18.39,78.25 31.63,143 84.36,160.71z"/>
   <path fill="#FCFCFD" d="M4661.99 3224.32c67.7,33.73 99.58,13.95 152.35,-9.68 0.9,-14.5 2.95,-47.26 -0.01,-60.61 -7.54,-33.99 -12.34,-12.64 -27.76,-40.46 -21.27,-38.39 12.18,-67.77 -56.24,-70.12 -36.23,-1.25 -67.37,21.66 -72.98,50.93 -3.26,17.01 2.47,108.33 4.65,129.94z"/>
   <path fill="#372604" d="M2848.2 2484.97c-30.11,-69.85 -31.84,-159.39 21.6,-205.31 43.37,-37.27 144.06,-60.12 205.92,-23.64l17.67 -3.45c-129.41,-97.15 -336.83,4.04 -285.49,199.9 47.61,181.59 304.8,179.55 357.9,74.38 -57.69,18.86 -148.4,91.96 -264.46,14.31 -33.44,-22.37 -29.23,-28.67 -53.13,-56.18z"/>
   <path fill="#FED32A" d="M2783.53 287.75l-5.49 31.45c77.17,29.9 36.26,36.03 76.31,42.37l29.26 -70.22c5.32,-21.78 -1.42,-43.74 11.71,-65.62 10.93,-18.23 1.05,-6.54 19.34,-19.41 54.98,15.03 -0.16,8.92 50.79,53.87 12.22,10.78 6.27,10.02 24.6,16.08 7.04,-41.67 -24.73,-24.21 -37.9,-57.42 -0.91,-2.3 -2.4,-10.13 -2.62,-12.72 -2.37,-27.59 1.24,-17.08 2.86,-22.42l31.29 10.9c-13.42,-32.2 -69.3,-95.72 -106.71,-101.21 -42.86,55.86 -29.53,189.99 -52.78,226.79 -21.7,-16.75 -15.08,-19.16 -40.67,-32.43z"/>
   <path fill="#4687E9" d="M729.5 4866.49l19.51 4.44c33.03,-12.68 41.51,-46.2 61.71,-74.76 57.01,-80.6 179.21,-215.21 181.6,-219l-22.59 -41.69c-67.86,60.42 -199.6,217.63 -240.22,331.02z"/>
   <path fill="#D3D3D4" d="M184.75 6248.88c42.9,87.55 165.57,104.85 289.63,104.71l-8.24 -10.06c-1.2,-1.33 -2.81,-3.22 -4.13,-4.62 -89.83,-95.49 -46.12,-97.11 -84.18,-136.55 1.54,31.2 7.39,33.75 -20.03,49.03 -12.53,6.99 -37.27,13.39 -51.36,15.32 -53.01,7.25 -76.93,-6.53 -121.69,-17.83z"/>
   <path fill="#172538" d="M544.31 5852.65c-42.46,-186.87 88.04,-293.04 131.04,-90.93 38.91,182.89 -85.67,290.66 -131.04,90.93zm26.57 -211.7c-108.69,63.9 -45.53,393.16 75.98,334.42 108.96,-52.67 50.18,-408.59 -75.98,-334.42z"/>
   <path fill="#F47578" d="M1649.48 2966.74c-3.99,22.8 0.92,8.3 21.02,11.07 66.4,9.15 111.72,-10.06 279.7,31.14 100.23,24.59 246.18,89.93 260.74,92.47l14.08 -1.26c-37.63,-41.5 -196.6,-99.29 -261.43,-118.3 -48.93,-14.35 -102.83,-24.6 -155.04,-31.32 -70.04,-9.01 -114.05,-16.3 -159.07,16.19z"/>
   <path fill="#65CDF5" d="M277.06 5460.6c93.33,-20 225.44,-45.07 322.24,-12.83l39.77 6.26c-114.85,-109.23 -314.6,-53.37 -449.36,-19.79 33.41,8.93 60.03,19.77 87.35,26.36z"/>
   <path fill="#65CDF5" d="M2398.58 6161.49c27.62,10.94 1.25,13.32 32.55,-84.17 17.9,-55.72 93.66,-213.29 156.78,-220.2l-35.09 -30.44c-74.53,50.66 -170.51,198.25 -177.73,322.52l23.48 12.29z"/>
   <path fill="#043576" stroke="#043576" stroke-width="11.98" stroke-miterlimit="22.9256" d="M1557.77 5341.76c-0.64,-23.14 2.49,-10.78 -22.93,-31.99l14.48 -60.18c-20.33,-4.84 -0.55,5.91 -21.5,-8.01 -29.99,-19.93 -4.26,-39.77 -52.37,-25.87 -64.82,4.31 11.38,-15.26 -53.88,-11.26l2.78 132.44 133.42 4.87z"/>
   <path fill="#D3D3D4" d="M788.77 5694.38l11.59 125.69c103.39,14.8 138.23,-130.17 107.07,-181.04 -6.54,31.87 -12.14,49.94 -43.94,61.83 -12.34,4.61 -25.23,6.8 -41.52,5.75l-33.21 -12.23z"/>
   <path fill="#686768" d="M4844.36 3491.6c-15.83,-15.2 -6.56,-3.26 -10.69,-28.99 -1.93,-11.97 0.69,-15.28 -3.56,-31.76 -5.36,-20.8 -15.28,-32.38 -25.29,-42.31 -21.47,127.69 -128.45,53.22 -220.72,62.46 44.72,8.26 74.4,50.89 105.98,60.88 33.3,10.54 126.2,-0.02 154.28,-20.28z"/>
   <path fill="#BC1A1A" d="M2598.19 3829l-11.56 -42.34c46.33,19.87 53.36,84.32 109.38,121.21 -10.48,-62.34 -31.47,-4.66 -37.62,-83.05 35.43,1.84 32.51,6.64 65.37,8.38l2.44 63.52c3.71,1.96 3.74,25 19.98,-3.94 5.02,-8.95 5.75,-28.39 2.45,-40.16 -5.66,-20.14 -30.35,-42.46 -49.25,-51.16 -28.51,-13.14 -31.21,0.19 -58.5,-18.22l-9.71 -8.19c-1.77,-1.8 -6.39,-7.47 -7.72,-9.53 -21.78,-33.66 8.84,-37.15 -36.1,-56.97l-18.65 18.86c-12.08,16.74 -5.93,11.98 -6.65,24.07l-0.69 8.98c-0.07,2.51 -4.25,15.15 7.98,36.45 14.57,25.4 7.65,22.65 28.84,32.08z"/>
   <path fill="#FCE789" d="M955.76 5303.51l2.49 13.11c23.88,-69.31 32.68,-87.07 40.37,-166.84 6.63,-68.8 5.81,-134.3 12.1,-205.75l-41.46 -10.94c-1.86,64.51 2.29,130.39 0.61,196 -1.52,59.65 -12.88,122.03 -14.11,174.41z"/>
   <path fill="#E3AE25" d="M528.4 3507.15c21.84,-13.29 37.91,-31.7 50.69,-51.76 -9.31,-29.96 -29.55,-57.97 -45.07,-84.48 -16.39,-28.02 -32.81,-58.19 -57.95,-74.38 0.05,35.54 -7.56,73.99 10.17,114.57 6.39,14.63 39.87,93.16 42.16,96.05z"/>
   <path fill="#DCB228" d="M4666.06 2992.25c-19.78,53.6 -56.09,36.55 -132.22,92.13 -37.94,27.7 -79.35,82.18 -67.11,129.93 6.1,23.79 -9.86,11.05 15.33,18.93 -2.04,-76.26 42.88,-112.17 98.2,-140.1 48.06,-24.26 91.07,-33.59 98.6,-76.43 1.2,-6.88 1.6,-21.21 0.22,-27.93 -7.47,-36.52 1.88,-10.38 -10.86,-22.09l-2.16 25.55z"/>
   <path fill="#FEE578" d="M2848.2 2484.97c9.15,-19.91 -14.65,-50.87 0.27,-104.91 19.58,-70.92 42.27,-75.73 82.35,-98.31 79.35,-44.7 75.76,-8.78 144.89,-25.73 -61.86,-36.48 -162.54,-13.63 -205.92,23.64 -53.44,45.92 -51.7,135.46 -21.6,205.31z"/>
   <path fill="#DCB228" d="M4510.65 3459.73c0.72,-1.9 -5.24,-28.79 54.75,-35.06 84.85,-8.88 177.31,57.07 208.46,-16.17 -124.94,1.17 -67.94,-9.86 -149.15,-18.06 -87.86,-8.87 -83.46,32.33 -126.9,42.38 0,60.68 -2.3,7.2 12.85,26.91z"/>
   <path fill="#351905" d="M2913.99 2377.42c9.82,15.79 -14.41,29.65 29.58,-0.22 14.99,-10.18 9.02,-9.88 30.26,-14.52 -0.63,35.41 7.58,59.86 16.12,86.68l43.4 20.2c-16.13,-51.31 -42.25,-28.97 -33.91,-113.11 61.95,-3.65 82.52,32.26 120.47,53.94 -16.85,-74.32 -106.8,-97.57 -165.04,-67.84 -29.35,14.98 -20.77,16.95 -40.89,34.88z"/>
   <path fill="#FCE789" d="M2671.85 5680.76c9.04,-11.69 3.59,2.72 8.49,-17.09 9.21,-37.24 6.11,-203.19 16.6,-234.64 -14.42,-18.66 -11.75,-23.66 -34.82,-26.96 2.42,75.67 -23.91,231.68 9.73,278.7z"/>
   <path fill="#6F6F70" d="M4829.19 3233.1c30.92,-8.17 46.93,1.49 78.16,15.89 22.23,10.25 43.93,23.3 62.07,36.32 35.85,25.7 77.4,74.77 78.7,108.96l22.03 -12.27c2.13,-82.34 -139.7,-165.44 -233.7,-169.18l-7.26 20.29z"/>
   <path fill="#4E1412" d="M2598.19 3829c31.99,20.88 112.72,188.59 174.31,186.02 1.96,-29.23 2.92,-14.47 -14.51,-33.78 -14.84,-16.45 -59.65,-53.12 -61.98,-73.37 -56.03,-36.88 -63.05,-101.34 -109.38,-121.21l11.56 42.34z"/>
   <path fill="#FCE789" d="M823.57 5381.77c2.65,-20.75 9.17,-25.29 23.93,-34.33 13.75,-8.43 30.54,-15.97 44.27,-24.42 7.9,-4.87 35.05,-24.03 39.11,-28.5 3.2,-3.53 11.35,-12.25 12.99,-22.23 9.86,-60.02 -0.6,-25.17 -11.8,-37.09 -23.53,41.8 -86.24,88.31 -146.83,101.14 12.44,22.11 -0.41,3.18 11.99,17.68 7.27,8.5 2.58,1.93 12.53,11.58 9.34,9.05 7.84,6.1 13.81,16.17z"/>
   <path fill="#FEE578" d="M437.64 3462.34c8.16,-4.3 12.48,6.66 3.89,-36.29 -9.1,-45.54 -22.46,-66.22 -9.53,-130.46l30.99 -12.67c-38.21,-40.67 -66.07,0.51 -56.11,89.29 7.04,62.81 5.39,71.06 30.76,90.13z"/>
   <path fill="#E3AE2B" d="M2913.99 2377.42c-1.92,1.77 -3.09,3.02 -3.37,7.07 -2.23,32.47 -8.55,-5.55 4.75,58.18l74.58 6.7c-8.54,-26.82 -16.75,-51.27 -16.12,-86.68 -21.24,4.64 -15.27,4.34 -30.26,14.52 -43.99,29.87 -19.76,16.01 -29.58,0.22z"/>
   <path fill="#6F6F70" d="M5064.09 3422.75c32.81,-0.78 52.07,23.78 36.79,63.41 70.83,-41.18 38.01,-93.22 -7.57,-103.92l-29.22 40.51z"/>
   <path fill="#271B27" stroke="#271B27" stroke-width="11.98" stroke-miterlimit="22.9256" d="M2432.29 4376.32c3.08,-24.02 -3.29,-19.8 -25.11,-36.8 -33,-25.72 -80.91,-82.96 -120.26,-84.1l104.42 99.73c3.05,2.64 13.83,13.2 15.96,14.5 6.33,3.85 -13.95,15.47 24.98,6.68z"/>
  </g>
 </g>
</svg>
