<?xml version="1.0" encoding="UTF-8"?>
<!DOCTYPE svg PUBLIC "-//W3C//DTD SVG 1.1//EN" "http://www.w3.org/Graphics/SVG/1.1/DTD/svg11.dtd">
<!-- Creator: CorelDRAW 2018 (64-Bit) -->
<svg xmlns="http://www.w3.org/2000/svg" xml:space="preserve" width="4cm" height="4.99731cm" version="1.1" shape-rendering="geometricPrecision" text-rendering="geometricPrecision" image-rendering="optimizeQuality" fill-rule="evenodd" clip-rule="evenodd"
viewBox="0 0 4351.46 5436.4"
 xmlns:xlink="http://www.w3.org/1999/xlink">
 <g id="Layer_x0020_1">
  <metadata id="CorelCorpID_0Corel-Layer"/>
  <g id="_1577774156432">
   <path fill="#FFD521" d="M1858.03 2042.61l62.19 -5.59c11.09,-53.14 5.82,-21.43 3.96,-48.51 -0.23,-3.38 -1.2,-4.42 -2.81,-5.9 -16.78,-14.95 -9.63,-16.59 -34.1,-29.08 -48.57,-24.79 -123.58,-5.41 -137.63,56.57 31.65,-18.08 48.8,-48.03 100.46,-44.98 6.96,70.17 -14.83,51.54 -28.28,94.33l36.2 -16.84zm118.21 29.7c-19.94,22.95 -16.42,28.2 -44.31,46.85 -96.79,64.76 -172.43,3.79 -220.55,-11.94 44.29,87.7 258.77,89.41 298.47,-62.02 42.82,-163.34 -130.16,-247.72 -238.08,-166.7l14.73 2.88c57.66,14.14 54.66,-15.82 120.83,21.46 33.43,18.83 52.35,22.84 68.68,81.98 12.44,45.06 -7.41,70.89 0.22,87.49zm-112.99 -1910.03l26.09 -9.09c1.35,4.46 4.36,-4.31 2.39,18.7 -0.19,2.17 -1.43,8.69 -2.19,10.61 -10.98,27.69 -37.47,13.13 -31.6,47.88 15.28,-5.05 10.32,-4.41 20.51,-13.41 42.49,-37.48 -3.5,-32.39 42.35,-44.93 15.25,10.73 7.01,0.98 16.13,16.19 10.95,18.25 5.32,36.57 9.77,54.73l24.4 58.56c33.41,-5.3 -0.72,-10.4 63.64,-35.34l-4.58 -26.22c2.67,-9.36 0.14,-4.17 7.61,-14.08 18.48,-24.53 70.64,-76.63 99.18,-75.15 26.89,51.47 15.86,125.57 17.65,185.46 48.24,-11.54 112.98,-115.36 188.28,-108.53 19.41,56.14 10.96,120.07 13.19,182.48 16.7,-6.53 9.36,-5.39 24.88,-8.56l30.19 -9.51c-1.14,58.05 -5.34,31.35 -8.14,32.32 22.77,1.19 13.72,4.68 24.39,-20.19l8.92 -18.41c9.54,11.51 6.81,4.84 11.84,24.03 1.77,6.76 0.02,10.31 -0.51,16.41 4.69,-4.83 16.56,-8.63 24.35,-3.49 21.07,13.9 0.49,-13.23 9.22,12.85 4.38,13.09 -5.18,38.87 -11.26,46.15 -11.38,13.62 27.71,10.58 -22.03,10.9l0.96 19.81c1.46,-1.98 6.32,-20.78 37.93,-2.77 14.07,8.01 18.51,24.44 28.21,3.49l40.73 -42.49 25.57 12.27c15.57,17.52 10.58,7.27 11.39,39.79 -26.32,7.3 -12.18,10.89 -45.59,14.11l21.21 7.32c6.81,-47.08 5.49,0.95 25.18,-26.34 18.42,23.01 6.29,15.14 6.29,75.38 30.15,-9.63 19.41,18.37 25.26,-18.86 -8,28.51 -1.03,5.99 6.15,13.95l91.62 -31.43c-28.71,30.68 -52.41,42.28 -77.84,75.8l-42.18 57.6c-14.81,25.13 -51.67,83.41 -60.37,111.33 -10.92,35.05 1.77,9.07 -18.6,35.98l-9.49 15.98c-10.51,21.82 -15.05,32.38 -25.16,57.52 -9.36,23.28 -7.91,12.89 -15.87,26.95 -5.32,9.39 -6.87,17.88 -10.6,27.38l-39.99 92.38c-4.03,8.66 -7.92,16.47 -12.02,25.26l-109.72 300.53c-21.3,58.06 -51.65,128.37 -59.4,190.25l-22.16 104.98c-20.21,53.55 -46.93,256.03 -47.44,316.29 -1.28,152.09 9.32,302.46 58.01,438.17l32.45 93.27c10.46,27.83 -6.2,11.2 16.79,23.48l-1.71 1.52c-98.89,7.89 -192.92,44.32 -271.27,101.21 -8,5.81 -7.83,6.47 -14.59,10.67 -21.94,13.64 -5.36,5.49 -18.4,8.15 -11.27,-11.42 -40.22,-9.62 -70.04,-12.84 -76.53,-8.27 -155.32,-40.61 -67.62,-113.44 11.94,-9.92 23.14,-15.11 30.64,-32.02 28.57,-18.15 138.69,-51.72 112.37,-168.81 -27.96,-124.43 -166.57,-53.68 -212.31,-61.74 -48.83,-6.35 -108,7.97 -159.8,8.02 -144.86,0.13 -319.52,-16.87 -454.29,-55.96 -376.85,-109.31 -165.96,-358.53 -194.68,-422.32 -23.44,-22.57 -67.91,-37.13 -93.74,-58.64 79.79,-28.76 43.21,10.41 80.98,8.53 21.01,-1.04 47.66,-5.86 47.9,-37.48 -12.93,-5.62 -7.87,1.54 -19.53,-7.91 -11.89,-9.64 -6.14,-0.82 -11.46,-16.36 -2.24,-6.54 -0.47,-32.5 3.6,-44.86 37.98,8 16.19,6.46 30.98,13.26 40.05,18.41 29.69,5.54 68.95,5.54 31.85,0.33 149.78,69.27 270.64,-12.87 201.81,-137.16 151.53,-575.64 -156.89,-628.82 -35.13,-58.01 -69.02,-118.07 26.87,-186.69 22.95,-16.42 26.99,-12.46 37.7,-37.31l54.32 -153.58c39.29,-120.3 51.43,-244.73 51.51,-376.34 0.04,-63.4 -11.36,-102.4 6.89,-117.45 11.69,10.23 16.85,20.9 30.21,31.32l31.4 -39.82c10.12,-16.53 18.87,-30.41 29.46,-45.99 15.37,-22.6 39.05,-64.77 71.17,-71.42 38.28,27.17 51.19,112.51 64.75,140.99l10.69 16.25c39.14,-32.02 84.68,-132.94 138.31,-140.98 45.49,38.19 33.86,140.04 62.87,180.97 20.97,-16.19 50.42,-64.52 68.18,-70.48z"/>
   <path fill="#0051C7" stroke="#0051C7" stroke-width="4.75" stroke-miterlimit="22.9256" d="M3482.45 3348.73c-0.43,8.01 85.8,239.04 1.62,454.01 -13.9,35.5 -54.6,99.82 -58.44,114.88 17.89,-13.64 9.66,-13.86 29.89,-27.34 7.14,8.93 -8.86,10.92 8.37,6.86 8.67,-19.68 27.78,-34.19 46.03,-60.88 7.4,-10.82 2.62,-7.81 14.01,-19.19 2,3.16 103.9,115.42 151.45,182.64 16.85,23.82 23.91,51.77 51.46,62.35 -41.06,7.95 -73.2,6.15 -115.16,9.2l-79.85 18.71c-1.52,0.77 -3.08,1.65 -4.49,2.51 -11.01,6.68 -4.66,1.57 -12.35,10.5 -47.14,10.59 -92.35,31.62 -138.26,52.29 -33.05,14.88 -93.11,59.79 -123.95,64.39 -35.42,0.45 -86.04,15.08 -125.44,17.74 -103.51,6.98 -96.44,0.62 -112.64,-26.82 -29.63,-6.32 -64.28,-11.26 -89.04,-14.57 -46,-6.16 -183.96,-67.7 -218.56,-95.35 -57.64,-46.06 -59.51,-29.77 -112.14,-95.14 -8.45,-10.49 -12.48,-16.62 -21.47,-29.25 -25.78,-36.17 -44.02,-52.65 -55.88,-104.96 -39.66,-174.99 74,-329.37 206.47,-419.19l22.07 -16.18c43.36,-36.16 69.14,-40.76 87.39,-57.45 11.77,-10.76 -0.21,4.65 11.32,-12.61 31.6,-4.66 6.72,-3.23 29.71,-13.29l113.99 -30.07c123.51,-28.2 433.15,-43.9 493.89,26.2z"/>
   <path fill="#242223" stroke="#023380" stroke-width="4.75" stroke-miterlimit="22.9256" d="M1957.77 5267.41c-152.03,22.42 -330.11,16.58 -481.76,-12.04 -47.05,-8.88 -94.84,-24.83 -142.02,-31.72 -8.37,34.08 -26.52,68.01 -23.2,109.73 72.06,53.98 247.92,66.97 352.27,69.02 63.09,1.24 352.73,-10.9 386.45,-41.1 56.37,2.91 274.64,-71.17 320.84,-99.18l4.82 -115.84c-134.32,48.89 -247.03,108.99 -417.39,121.12zm235.54 -382.94c-38.79,18.6 -44.54,26.7 -93.03,38.69 -37.52,9.28 -71.64,16.29 -110.8,17.41 -91.89,-1.66 -147.71,6.47 -227,-19.73 -63.54,-21 -22.92,-54.04 -162.83,35.21 -72.32,46.13 -227.23,171.07 -251.37,252.9 145.27,60.43 387.67,58.6 553.83,51.51l36.38 -5.7c1.55,-0.43 3.79,-1.13 5.58,-1.95 89.16,3.55 353.55,-75.09 407.13,-114.51l19.58 -10.26c-6.02,-103.64 -86.06,-226.72 -148.21,-268.96l-29.27 25.38zm1843.07 287.91c-31.74,32.88 4.71,34.24 -70.2,113.87 -1.1,1.17 -2.45,2.75 -3.45,3.86l-6.87 8.39c103.45,0.12 205.76,-14.31 241.53,-87.32 53.23,-57.23 54.22,-200.42 62.69,-290.02 6.94,-73.43 42.18,-281.51 -45.52,-291.63 -78.99,-9.11 -131.68,127.61 -146.24,209.52l-31.94 333.33zm-2146.75 -363.46c-34.81,-10.48 -72.83,-9.35 -107.42,-40.89 -19.21,-17.51 -11.99,-18.45 -31.13,-27.75 -31.85,19.97 -133.47,168 131.99,182.37 89.38,8.92 201.81,-2.71 273.69,-38.74 90.63,-45.43 100.51,-160.52 2.96,-182.93 -26,62.36 -28.33,73.13 -90.33,95.12 -56.09,19.89 -118.81,13.45 -179.75,12.81zm2064.96 175.57c-48.6,64.83 80.92,323.34 -301.67,231.93 -45.99,-10.99 -106.52,-37.17 -147.58,-42.23l-8.13 64.61c69.62,50.03 187.99,63.9 284.46,66.18 127.25,3.01 201.19,-19.89 229.19,-130.38 48.59,-114.65 -8.7,-367.25 113.13,-517.39 44.66,-55.03 84.51,-59.94 141.49,-20.86 -24.71,-145.23 -151.06,-89.27 -224.42,19.83 -47.55,70.71 -95.77,221.2 -86.47,328.32zm-136.07 -436.17c-30.4,20.13 -96.26,117.79 -96.31,176.76 -10.86,11.83 -2.3,-4.27 -9.41,17.99 -2.62,8.21 -3.8,19.22 -4.68,27.81 -7.99,77.59 -4.41,108.07 -6.86,181.08 -61.39,26.04 -181.97,121.22 -184.38,205.39 51.41,27.22 359.05,128.12 399.25,-3.15 8.57,-27.97 19.89,-136.04 20.51,-166.56 6.95,-90.45 18.63,-184.4 48.59,-255.73 56.42,-134.33 100.06,-136.22 135.18,-178.11 22.78,-5.49 44.98,-14.53 72.84,-21.98 -112.38,-28.01 -278.96,-74.58 -374.74,16.5zm-223.79 154.28c-25.99,42.42 3.07,163.32 89.29,150.98l9.67 -104.82c31.84,-98.69 56.87,-204.02 170.56,-250.55l44.77 -19.81c-34.38,-111.59 -163.12,-44.12 -212.28,2.95 -33.87,32.43 -112.86,153.6 -102.01,221.25zm-20.55 -336.77l-9.39 -2.41c-2.52,27.36 4.94,41.31 -10.36,59.38 -1.03,-43.69 -10.5,-95.7 -11.77,-145.45 -1.4,-54.71 2.06,-109.65 0.51,-163.45l-34.57 9.12c-54.4,14 -229.95,99.39 -248.74,130 -27.97,15.22 -51.39,31.76 -74.35,55.64 -18.93,127.07 8.03,265.78 76.08,343.84 59.04,67.72 180.06,117.27 306.82,121.63l4.33 -68.76c8.77,-86.61 49.07,-159.87 91.94,-217.3 4.98,-8.39 3.72,-5.93 11.51,-13.48 8.3,-8.05 4.39,-2.57 10.45,-9.66 10.34,-12.09 -0.38,3.69 10,-14.75 -50.53,-10.7 -102.82,-49.49 -122.45,-84.34zm-1576.39 -164.08c-13.97,-37.22 -34.32,-56.34 -51.43,-100.28 -37.23,17.42 -115.25,91.41 -139.91,124.26 -95.54,127.24 -83.17,284.19 -47.79,434.19 23.51,99.66 30.26,117.04 143.14,130.16 80.96,5.8 183.53,5.97 221.5,-52.69 28.06,-39.21 6.09,-169.32 8.11,-232.42 -19.23,2.76 -17.01,6.92 -29.04,22.48 -20.02,12.99 -12.83,20.33 -33.55,23.57 57.73,-79.6 67.1,-90.9 158,-143.43 -14.35,-14.09 -42.84,-27.66 -61.54,-41.48 -83.45,-61.65 -95.85,-82.59 -154.7,-153.86 -7.56,-9.16 -4.14,-8.72 -12.8,-10.51zm1610.9 -1063.43c0.08,31.46 -1.71,34.68 36.01,39.16l8.27 25.55c-58.05,-22.46 -106.43,-79.97 -184.68,-95.28l89.72 91.78c45.3,55.65 54.59,98.61 69.04,114.66l4.93 79.33c-6.17,6.48 -4.91,1.16 -10.65,13.01 -6.2,12.8 -2.2,4.94 -5.66,18.07 -0.93,0.67 -2.47,0.65 -2.73,2.11 -0.78,4.27 -12.99,1.49 -10.31,35.91 17.94,230.39 -17.51,191.34 -26.36,282.44 -2.23,22.99 37.12,61.48 57.04,73.9 2.83,14.83 -16.32,5.05 12.4,13.57 9.03,24.09 34.87,49.83 55.59,78.52l26.05 28.4 3.97 6.86c15.15,47.06 49.79,69.65 45.67,135.99 -6.75,6.47 -9.3,10.48 -14.02,18.81 -10.24,18.05 -7.43,10.1 -9.72,25.89 -10.73,0 -8.93,-2.57 -5.56,7.57 -18.85,11.74 -8.46,1.22 -15.48,21.1l-65.73 69.02c-9.37,12.26 -4.97,4.78 -7.76,13.37 -23.42,11.02 -24.83,14.79 -39.43,36.48 -19,4.37 -23.27,10.69 -35.98,27.83 12.61,58.75 58.81,89.96 108.09,109.71 15.92,6.38 27.9,11.93 43.98,-6.49 55.32,-12.94 50.46,-26.42 121.72,-22.67 17.33,6.76 29.48,11.26 43.1,21.09 13.42,9.69 23.71,24.61 32.37,30.41l7.97 24.32 86.3 2.45c40.78,4.22 78.29,9.13 119.15,17.51 45.07,9.25 80.65,36.13 101.18,40.38 9.92,17.16 22.12,39.91 43.71,59.55 -2.23,19.22 17.83,92.32 18.34,132.25 0.69,53.52 -6.02,104.32 -8.45,157.26l-8.88 106.87 -10.52 90.95 -21 108.59c-11.32,13.18 -23.94,54.35 -43.46,78.42 -22.43,27.66 -50.01,37.18 -67.33,54.01 -166.05,39.3 -350.89,43.56 -525.04,19.6l-93.07 -22.9 -11.46 -9.35c-1.07,-0.74 -2.79,-1.93 -3.99,-2.72l-52.6 -27.18c-12.46,-76.95 21.78,-129.13 42.63,-192.34 10.2,-6.4 8.07,-4.76 15.93,-16.91 9.09,-14.06 7.89,-11.85 11.11,-24.98 19.3,-11.67 52.51,-44.69 65.57,-64.37 18.11,-3.71 51.58,-29.7 67.2,-41.07l-0.01 -31.45c-80.15,-38.27 -33.37,4.84 -97.07,-70.3 -15.01,-17.71 -114.09,-32.52 -139.68,-29.27 -10.28,-11.46 -72.18,-30.45 -108.56,-49.36 -43.5,-22.61 -64.03,-53.7 -95.03,-71.37 -2.92,-12.51 6.48,-6.45 -11.5,-14.29 -7.94,-26.63 -25.78,-48.32 -37.27,-77.9 -12.98,-33.39 -14.8,-59.53 -23.73,-93.69 -44.15,-3.51 -83.98,6.88 -136.71,0.54 -30.48,-10.2 -19.94,-25.89 -43.38,-44.61 -9.9,-29.59 -30.79,-61.64 -45.47,-91.55 -14.67,-29.89 -28.64,-67.55 -42.42,-93.14l-77.76 -11.84c-4.34,3.58 -41.51,88.95 -47.3,103.11 -12.58,23.38 -38.58,67.66 -48.54,94.22l-2.81 7.73 -26.83 33.67c-22.82,36.65 -19.74,30.94 -81.98,30.42l-196.41 -22.71 -88.56 -24.1c-13.37,-14.47 -45.34,-29.57 -66.13,-27.47 -19.41,1.96 -51.81,25.47 -61.52,40.65 -29.35,2.53 -21.67,19.72 -19.42,90.81 1.69,53.67 -5.67,89.58 17.34,91.48 15.02,18.04 17.82,13.85 33.59,25.53 10.84,8.04 23.18,21.22 30.32,32.66 23.25,37.25 15.78,68.56 7.78,107.89 -0.56,19.94 21.97,30.34 38.17,47.17 11.55,11.99 31.11,37.93 43.77,56.79 17.31,25.79 56.38,93.76 56.76,131.67 16.92,55.7 16.18,101.72 15.12,160.44l2.15 29.93c-0.83,1.42 -2.34,1.58 -2.58,4.2 -0.27,2.89 -1.86,3.49 -2.17,4.99 -2.53,12.14 -1.97,8.15 -2.68,22.23l-25.46 16.34c-16.67,0.44 -68.11,19 -75.59,27.87l-114.26 40.84 -4.76 -4.1 -92.23 24.41 -99.36 20.51c-202.05,21.37 -318.79,28.75 -525.46,8.02 -19.85,-7.23 -50.02,-12.19 -70.08,-10.47 -14.81,-12.34 -2.18,-7.64 -25.49,-6.41 -16.35,-14.07 -65,-30.16 -86.75,-40.31 -6.35,-27.15 0.75,-6.57 -11.19,-9.67l1.47 -61.9 7.27 -30.42c5.38,-15.36 9.97,-31.99 16.62,-46.56 10.14,-22.21 16.55,-25.41 23.52,-50.05 13.34,-8.52 49.03,-59.31 52.34,-73.97l19.04 -18.76 32.54 -25.69c12.62,-12.76 23.74,-23.92 30.39,-35.64 17.76,-7.38 14.4,-5.77 29.32,-17.81 1.6,-1.29 11.44,-10.03 13.3,-11.98 11.71,-12.31 4.58,-3.18 12.68,-15.66 16.67,-3.72 17.48,-6.25 31.02,-15.75l28.35 -23.92c16.29,-7.23 71.87,-38.03 85.94,-54.26l18.89 -2.11c-7.38,-54.99 -8.77,-56.78 6.36,-108.22 22.06,-26.45 15.82,-35.75 49.15,-49.54 -5.97,-56.34 -25.5,-112.59 -32.21,-176.51 -7.77,-74.11 -4.06,-123.11 8.01,-194.7l27.19 -83.51 61.58 -82.08c10.83,-4.88 8.35,-2.66 20.15,-14.62 1.01,-1.03 7.88,-9.55 7.99,-9.72 8.18,-12.19 2.09,1.43 4.94,-10.02l38.81 -28.46c1,-0.82 2.45,-1.96 3.44,-2.82l23.1 -24.3c40.84,-3.64 -1.15,-38.7 5.46,-78.01 5.04,-29.93 33.61,-46.44 45.05,-73.09 16.58,-4.08 5.43,1.89 21.86,-12.48 4.6,-4.02 5.35,-4.97 9.14,-9.5 10.61,-12.69 5.72,-6.86 9.02,-13.34 16.33,-6.1 70.28,-33.68 80,-49.75 -3.04,-8.38 -0.92,-6.53 -5.53,-14.38 -11.74,-20.01 0.05,-1.57 -9.52,-12.61 1.87,-17.06 -21.24,-113.21 -17.79,-218.26 3.04,-92.65 27.56,-117.8 -49.93,-180.05 -9.43,3.99 -83.07,42.3 -88.05,47.45 -153.47,46.33 -118.39,52.67 -188.42,-7.86 -26.55,3.88 -95.99,35.32 -160.48,48.75 -20.98,4.37 -44.87,6.41 -62.27,17.56 -20.04,-6.11 -18.85,-4.32 -41.46,-0.78 -50.18,2.38 -96.93,3.35 -146.16,-3.86 -48.87,-7.16 -85.37,-21.34 -128.78,-27.78 -10.54,-9.44 -69.41,-33.67 -83.48,-31.71 -17.11,-18.83 -75.82,-49.47 -97.49,-57.65l-15.45 -8.63c-17.89,-24.14 -188.11,-142.05 -214.48,-206.96l8.32 -21.67c0.66,1.03 2.84,1.19 4.2,4.76l26.97 16.03c9.99,3.3 -0.43,-2.56 10.23,5.71l27.38 28.52c222.12,233.72 486.08,330.57 804.8,222.01 40.17,-13.68 43.41,-11.37 50.3,-29.72 5.51,20.6 -10.65,0.54 15.53,11.66l14.39 -4.36c30.75,17.23 19.58,75.3 163.83,8.7 17.24,-7.96 65.32,-30.2 78.68,-40.79 18.62,-14.77 12.9,-11.17 35.81,-26.19 21.99,-14.42 15.82,-20.96 41.77,-19.38 -1.14,23.33 -11.22,15.73 -29.62,36.24 5.09,20.47 26.57,38.66 45.26,60.54 8.9,10.42 8.23,5.57 15.64,21.56 13.1,28.29 -0.29,96.13 -0.61,131.55 -0.79,86.42 -2.31,194.89 39.39,251.56 78.25,8.75 148.79,-202.24 213.67,-200.15 -2.43,28.37 -24.38,31.55 -41.84,57.78 -27.11,40.72 -24.3,24.94 -48.87,58.24 -14.65,19.85 -27.37,39.04 -40.87,59.81 -24.32,37.42 -36.49,29.11 -55.41,53.37 -39.4,1.67 -60.81,18.34 -113.6,42.25 -17.51,7.93 -6.94,2.67 -20.24,15.86l-59.54 57.45c-1.08,10.43 -2.94,21.47 -2.32,31.98 1.86,31.46 70.01,156.82 82.87,173.44 96.22,124.48 199.44,197.23 343.05,246.44l90.33 18.8c8.27,1.9 24.43,3.43 33.31,4.42 53.71,6.01 82.61,9.72 141.24,9.57 9.61,-1.9 32.34,-33.3 39.26,-42.65 12.73,-17.18 43.94,-65.33 46.12,-81.6 20.47,-32.74 48.79,-96.64 48.43,-135.94 -48.77,-21.06 -35.04,-5.75 -40.19,-29.9 96.74,7.49 24.66,26.46 195.66,26.17 62.78,-0.1 51.22,-3.89 62.85,11.87 -31.52,16.59 -71.9,-10.69 -59.27,32.59l69.8 138.97c30.7,52.28 24.42,52.25 58.5,56.21l111.26 -4.06 2.32 -110.45c-54.42,-3.34 9.11,12.98 -44.93,9.39l59.99 -63.43c12.98,-10.4 20.56,-17.34 33.89,-28.67 19.38,-16.47 25.66,-9.64 37.87,-37.83 30.84,-4.6 90.9,-49.51 123.95,-64.39 45.91,-20.67 91.12,-41.7 138.26,-52.29l61.13 -12.68c-24.45,59.07 -8.82,89.04 -15.69,161.89 28.53,0.77 19.25,4.1 60.63,-28.81l122.06 -165.03c-33.87,-94.56 -143.75,-225.67 -200.33,-276.05l-18.84 34.77c-11.39,11.38 -6.61,8.37 -14.01,19.19 -18.26,26.69 -37.37,41.2 -46.03,60.88 -17.22,4.05 -1.23,2.07 -8.37,-6.86 55.2,-55.03 96.14,-162.99 112.41,-260.52 18.41,-110.33 5.42,-258.13 -85.48,-281.03 -60.74,-70.1 -370.38,-54.4 -493.89,-26.2l-113.99 30.07c-22.99,10.06 1.89,8.63 -29.71,13.29 -59.97,7.33 -132.02,47.27 -162.46,57.77 -5.08,1.75 -22.2,7.15 -27.82,9.87l-15.21 9.27c-1.59,1.05 -6.46,4.23 -8.01,5.36 -1.19,0.86 -2.75,1.92 -3.9,2.8 -24.51,18.88 -3.39,11.17 -37.77,23.37 -22.31,7.92 -29.62,7.71 -48.37,28.09 -15.96,17.34 -15.02,11.35 -28.58,20.74 -22.41,15.52 -22.48,27.97 -68.43,25.6 3.73,-18.73 -5.18,-9.21 42.3,-38.74 19.41,-12.07 33.31,-21.14 49.65,-31.9 62.57,-41.2 161.28,-84.04 229.45,-110.55 19.96,-7.76 115.94,-33.1 126.22,-43.91 38.25,-1.42 93.29,-20.65 140.55,-27.86 51.8,-7.9 90.37,-15.09 151.95,-16.46 124.8,-2.78 192.63,4.79 295.75,42.26 101.63,62.02 61.47,56.98 100.1,87.63 69.73,-148.94 -204.58,-314.45 -213.57,-338.69 -3.64,-16.77 0.88,-9.86 -11.02,-19.31l18.07 -4.65c41.63,-5.77 98.02,20 132.51,34.29l102.41 57.44z"/>
   <path fill="#231D1B" d="M1746.54 2511.14c-11.41,-37.62 -87.3,-136.03 -106.78,-183.82l-116.12 7.96c5.85,21.42 20.9,33.57 33.37,48.93l106.22 134.32 83.31 -7.38zm121.2 -17.61c-8.25,-53 -62.57,-135.72 -79.24,-190.26l-126.87 20.03c6.62,31.85 85.48,144.14 104.81,186.5l101.3 -16.27zm21.65 -13.7c43.97,-14.77 85.68,-68.77 70.35,-134.02 -16.63,-70.77 -82.21,-63.05 -154.25,-47.67l83.9 181.69zm-956.14 -1056.75c61.85,377.16 522.69,332.89 503.6,-37.9 -19.78,-384.11 -462,-460.41 -506.07,-119.27 1.54,0.96 3.73,1.8 4.93,2.34 1.18,0.53 3.43,1.63 4.87,2.26l18.65 7.8c8.1,4.05 15.7,9.51 21.5,16.39 12.52,14.85 16.73,30.85 16.17,52.79 -1.32,52.05 -30.96,60.3 -54.78,71.16l-8.87 4.42zm733.91 -1380.88c15.47,-8.33 9.82,0 18.79,-18.61 47,-5.84 67.87,-25.52 93.22,26.11 14.65,29.84 17.59,75.23 34.77,102.88 23.13,-21.76 83.56,-103.37 121.76,-111.15 39.24,-7.99 55.19,21.31 64.37,51.61 3.78,12.46 7.46,29.41 10.19,45.25 1.45,8.44 2.77,19.56 4.57,27.44 4.72,20.6 -1.76,4.34 6.57,20.26l57.9 -50.62c12.87,-10.89 7.46,1.16 11.29,-12.62 18.1,-5.4 38.28,-15.09 60.18,-5.66 23.17,9.98 12.97,17.48 31.25,33.2l6.63 76.39 3.12 37.93c48.86,-26.27 74.02,-78.66 161.1,-74.17 5.25,6.8 20.31,22.69 26.22,28.01l15.69 120.35c15.12,-8.32 3.78,-3.36 10.5,-12.07 15.83,-2.68 -0.46,3.88 20.02,-8.43 7.08,-4.25 10.35,-7.71 18.58,-13.15 11.7,-7.72 26.05,-13.92 36.48,-21.07 80.7,-4 70.99,53.7 69.37,128.12 22.39,-4.16 5.79,0.95 12.18,-10.54 16.67,-3.08 -1.6,2.57 12.69,-3.69 8.82,-3.86 1.52,-0.68 11.72,-6.68 8.81,-5.18 17.17,-10.43 22.86,-13.95 71.05,-22.79 78.08,15.13 72.97,83.86l-12.28 72.34 41.1 -12.04c39.76,-10.15 68.36,-16.08 106.83,-5.03 2.2,7.12 2.63,7.65 7.14,10.45l0.61 3.49c4.99,54.18 -12.65,52.28 -25.82,91.24 -13.19,9.84 -10.36,4.31 -14.12,23.86 -21.3,12.89 -56.93,77.37 -65.46,104.86l-9.31 13.21 -1.75 11.88 -26.03 39.1c-8.84,18.13 -14.4,29.03 -21.23,48.97 -12.64,9.44 -35.33,62.68 -35.04,80.03 -18.77,16.99 -18.12,27.13 -21.81,43.03 -10.78,11.7 -28.82,49.08 -28.47,70.85 -15.87,15.92 -17.78,30.35 -26.53,51.38 -8.55,20.51 -14.61,33.11 -20.73,56.48 -13.26,9.64 -29.86,57.85 -28.61,79.09 -13.42,13.56 -18.51,30.82 -25.42,48.17 -8.85,22.22 -15.92,34 -16.9,57.65 -18.11,17.27 -40.43,91.35 -51,121.99l-0.33 12.89c-20.64,26.13 -58.14,146.65 -56.69,170.36 -13.54,16.22 -29.82,81.11 -39.3,138.52 -7.75,25.24 -14.78,55.61 -11,82.36 -27.52,39.64 -34.06,323.59 -5.07,360.82l6.57 53.53 35.54 115.42c-1.1,12.01 22.49,122.51 69.52,135.68 71.13,19.93 62.92,10.66 114.03,-15.92l35.16 -23.86c16.76,-0.91 34.12,-4.53 44.06,-16.47 25.67,-6.71 39.83,-12.85 66.25,-22 23.14,-8.02 45.03,-10.22 62.95,-22.96 34.88,6.11 98.16,-15.12 140.89,-18.41 20.03,-1.54 63.51,-4.75 82.01,-1.65 30.26,5.08 32.21,22.6 58.08,29.6 7.81,13.52 11.56,17.3 22.08,30.57 3.74,4.73 6.97,9.03 11.79,14.12 7.74,8.15 2.51,3.48 11.34,10.2l3.99 16.6c25.87,3.26 32.86,4.85 57.37,-0.24 21.68,12.63 74.74,12.79 103.9,14.9 22.89,9.75 80.75,21.06 107.1,17.07l47.45 18.69c21.89,6.33 32.57,9.94 54.58,14.43 12.84,11.15 75.53,31.01 97.56,40.51 29.18,12.58 70.03,40.44 98.5,43.96 19.51,23.42 87.55,60.4 116.34,80.62 30.85,21.66 92.92,79.1 108.68,84.83l14.52 -29.86c10.87,-12.57 18.09,-27.55 29.9,-44.22 6.06,-8.56 9.45,-12.11 16.3,-21.51 12.17,-16.7 7.37,-3.53 11.89,-21.88 13.73,-5.85 5.92,1.07 14.62,-7.44 9.7,-9.48 2.24,-1 6.57,-11.3 97.74,-23.44 105.53,16.14 104.16,110.29l72.55 -36.2c70.21,-12.52 135.56,8.32 116.98,92.65 -8.69,39.42 -64.38,107.95 -83.08,133.55l123.2 0.77c32.79,11.56 58.73,16.87 69.31,51.24 13.61,44.21 -11.45,76.61 -32.95,91.99 -41.94,30 -168.06,59.22 -177.32,69.69 -65.49,24.09 -111.01,96.71 -192.18,115.72 -30.42,6.6 -61.17,1.16 -92.66,-4.83l-52.9 -17.89c-7.76,-5.49 -19.17,-11.71 -29.71,-17.75 -16.43,-9.42 -16.21,-11.7 -33.47,-14.72 -11.74,-16.5 -25.97,-24.43 -41.71,-35.76 -8.91,-6.41 -15.53,-10.99 -22.06,-16.03 -12.99,-10.02 -13.48,-10.3 -19.68,-19.84l-8.27 -25.55c-37.72,-4.49 -35.93,-7.7 -36.01,-39.16 82.31,28.56 201.79,186.58 334.92,156.41 67.78,-15.36 115.18,-104.7 231.3,-133.15 18.52,-4.54 33.17,-9.04 48.74,-13.72l43.33 -23.44c28.81,-2.53 54.73,-26 45.42,-61.45 -44.55,-68.22 -193.53,-9.76 -260.05,-0.55l34.85 -46.98c10.31,-3.62 155.44,-151.42 107.14,-200.97 -50.6,-51.92 -172.88,78.02 -224.04,98.34 2.4,-9.07 8.1,-14.4 16.2,-25.44 21.16,-15.91 19.78,-22.78 25.66,-75.16 8.3,-74.04 -14.93,-108.38 -46.79,-74.47 -24.87,9.41 -8.32,0.09 -10.91,11.35 -20.96,13.51 -34.66,38.67 -48.33,62.03 -12.94,22.11 -29.82,45.46 -37.59,70.45 10.66,16.73 24.06,32.08 42.28,43.16 3.65,15.41 7,13.73 8.93,20.61 4.51,16.06 8.79,6.86 -1.32,18.22 -31.61,-44.16 -109.4,-110.47 -153,-147.33 -190.74,-161.25 -403.39,-222.04 -662.75,-255.19 -12.07,-14.57 -2.94,-9.87 -24.85,-10.47 -12.92,-0.36 -18.5,5.99 -25.41,10.87 -5.59,-42.94 -3.16,-16.85 -20.52,-21.84 -10.6,-9.01 -21.79,-32.02 -56,-65.54 -37.54,-27.1 -74.25,-21.02 -132.66,-13.51 -43.54,5.6 -88.49,14.15 -129.29,26.12 -54.06,15.86 -186.64,64.05 -218.01,98.66l-18.67 5.85 -99.64 -18.02 -87.11 -8.63 -13.02 -13.04 1.71 -1.52 69.33 -0.21c-10.35,-36.03 -33.95,-81.87 -47.87,-123.5 -113.6,-339.79 -45.58,-644.59 74.36,-970.38 90.02,-244.5 223.71,-587.02 360.02,-809.07 16.06,-26.15 55.45,-69.73 55.23,-99.06 -24.73,-6.56 -46.9,1.31 -67.47,9.07l-91.62 31.43c-7.18,-7.96 -14.14,14.57 -6.15,-13.95 26.64,-151.22 54.27,-210.26 -50.33,-131.81 -20.6,15.45 -40.38,32.49 -63.48,43.8 -0.48,-46.96 19.34,-126.41 -6.03,-163.15 -24.09,-11 -111.26,57.56 -124.27,78.41 -15.53,3.17 -8.19,2.02 -24.88,8.56 -2.23,-62.41 6.22,-126.34 -13.19,-182.48 -75.3,-6.82 -140.03,96.99 -188.28,108.53 -1.79,-59.9 9.24,-133.99 -17.65,-185.46 -28.54,-1.47 -80.7,50.62 -99.18,75.15 -7.47,9.91 -4.93,4.72 -7.61,14.08 -21.34,11.07 -15.82,13.07 -33.92,27.04 -19.39,-30.69 -8.27,-142.54 -44.01,-189.13 -31.21,4.58 -77.8,57.56 -88.99,84.4 -17.75,5.97 -47.21,54.29 -68.18,70.48 -29,-40.93 -17.38,-142.78 -62.87,-180.97 -53.63,8.03 -99.17,108.96 -138.31,140.98l-10.69 -16.25c-13.56,-28.48 -26.47,-113.82 -64.75,-140.99 -32.11,6.64 -55.8,48.81 -71.17,71.42 -10.59,15.58 -19.34,29.47 -29.46,45.99l-31.4 39.82c-13.36,-10.41 -18.52,-21.09 -30.21,-31.32 -6.99,-15.33 -63.31,-102.03 -98.97,-100.25 -10.53,64.32 -3.85,144.75 -5.22,211.53 -2.63,127.52 -18.98,249.89 -53.2,372.18 -19.74,70.55 -26.27,102 -34.51,180.93 -35.21,33.98 -74.86,48.23 -98.73,81.81 -32.59,45.85 -16.97,96.92 19.09,127.01l94.26 -1.84c308.42,53.19 358.7,491.67 156.89,628.82 -120.86,82.14 -238.79,13.2 -270.64,12.87 -14.64,-18.02 -25.45,-21.7 -40.1,-34.79 -12.19,-10.89 -22.09,-21.69 -30.68,-32.02 -15.94,-19.17 -32.79,-65.11 -59.38,-62.81 -5.85,-5.05 -3.91,-3.76 -13.44,-8.89 -37.4,-20.12 -150.03,-42.88 -189.08,-42.71 -134.09,0.61 -182.01,184.93 -5.62,262.56 65.38,28.77 171,56.92 181.29,62.8l-44.9 0.7c-84.52,237.74 -233.02,323.34 171.37,446.34 177.78,54.08 367.21,63.46 558.73,47.69 32.14,-2.64 132.3,-12.43 163.11,-25.27l9.78 -5.44c45.73,8.07 184.35,-62.68 212.31,61.74 26.31,117.09 -83.8,150.66 -112.37,168.81 -62.34,9.22 -116.86,15.13 -178.34,21.81 -68.99,7.49 -107.89,34.98 -66.93,104.75 2.9,48.6 67.27,30.23 109.6,42.41l22.66 14.72c30.28,29.78 45.47,39.58 49.68,65.22 -58.27,0.3 -65.8,15.05 -95.46,9.29 -20.98,-4.07 -25.15,-12.39 -31.02,-17.93l77.65 -13.73c-30.93,-75.85 -142.29,11.53 -183.39,-128.54 0.28,-33.75 8.81,-53.97 16.97,-79.35 7.22,-4.02 13.21,-9.26 23.96,-15.13 -9.77,-21.88 -50.81,-69.7 -69.26,-93.07l-23.77 -22.74c-8.74,-20.89 -19.56,-29.22 -31.46,-46.05l-245.23 -8.26c-25.49,-3.91 -45.32,-8.85 -71.14,-4.33l-20.1 -10.09c-5.7,-1.68 -14.46,-2.86 -20.7,-4.1 -16.64,-3.33 -33.72,-7.54 -51.52,-10.24 -30.9,-12.71 -72.22,-22.38 -105.56,-34.68 -28.36,-10.46 -78.2,-35.28 -100.4,-34.6l-57.68 -34.16c-68.77,-41.88 -89.36,-83.57 -81.91,-168.95l9.37 -45.7c14.83,-14.94 70.11,-144.62 75.43,-169.13l-57.13 -20.94c-72.97,-30.53 -161.48,-66.98 -175.17,-152.02 -13.41,-48.67 -5.5,-95.87 16.08,-132.93 31.09,-53.4 50.32,-37.1 79.27,-66.63l7.93 2.28c63.68,-6.21 85.41,-0.29 144.59,9.15l76.84 20.01c-9.49,-56.84 -22.58,-98.49 -21.7,-160.83 0.89,-62.47 22.18,-108.1 23.94,-152.21 13.76,-12.8 19.09,-30.74 28.95,-47.84 6.49,-11.26 9.31,-14.32 15.11,-22.21 5.27,-7.16 3.93,-4.83 8.41,-11.47 7.17,-10.64 0.46,1.85 8.21,-13.85 20.72,-5.23 18.89,-20.89 61.23,-41.06 -18.87,-50.8 -26.75,-44.05 -19.18,-113.65 4.95,-9.85 7.56,-16.04 12.18,-25.6 5.05,-10.45 2.16,-3.69 5.95,-12.46 5.83,-13.5 1.2,1.8 4.54,-12.72 12.11,-5.76 9.19,-1.65 12.15,-12.22 12.66,-5.48 5.29,-0.25 14.8,-7.5 10.11,-7.72 2.93,-2.11 9.88,-12.9 11.53,-2.54 17.48,-5.93 30.73,-15.46 6.6,-4.75 6.81,-4.17 13.28,-11.72 8.89,-10.39 1.56,1.18 6.57,-11.22 5.47,-6.99 3.54,-3.48 6.48,-17.28 1.08,-5.08 2.11,-18.03 2.74,-23.93 6.31,-58.4 17.79,-75.01 26.78,-123.84 6.04,-10.17 10.14,-26.97 9.17,-47.41 32.96,-41.53 39.94,-193.94 43.6,-256.6 2.98,-51.05 3.04,-99.94 2.58,-150.99 -0.39,-43.91 6.03,-102.1 4,-139.07 22.91,-16.01 19.82,-24.46 57.15,-24.03 16.44,15.26 8.79,6.87 22.48,8.89 10.18,18.69 20.56,23.08 35.22,41.8 6.47,8.25 9.38,13.84 16.51,21.32 12.32,12.9 7.68,8.19 18.97,15.33 3.15,14.84 -8.73,-2.82 9.35,20.02 20.24,-8.4 62.35,-76.72 72.22,-96l35.37 -32.84c57.76,1.62 69.57,-0.11 99.73,77.88l19 38.7c11.57,-11.98 20.45,-24.67 31.98,-38.28 7.43,-8.77 11.35,-10.69 18.7,-19.15l10 -16.96z"/>
   <path fill="#C5161D" stroke="#C5161D" stroke-width="4.75" stroke-miterlimit="22.9256" d="M2103.15 3258.92c-1.94,16.89 -39.31,47.47 -51.69,61.19 -14.53,16.1 -13.74,3.79 -12.1,28.17 51.36,2.15 118.68,-137.72 145.37,-155.13 17.67,-7.87 11.9,-5.57 24.05,-26.75 10.19,-17.77 6.71,-28.31 6.65,-30.4l-0.58 -7.49c-0.59,-10.08 4.54,-6.11 -5.54,-20.07l-15.55 -15.73c-37.48,16.53 -11.94,19.44 -30.11,47.51 -1.11,1.72 -4.96,6.45 -6.44,7.95l-8.1 6.83c-22.75,15.35 -25,4.24 -48.79,15.19 -15.76,7.26 -36.35,25.87 -41.07,42.67 -2.75,9.82 -2.14,26.03 2.05,33.49 13.55,24.13 13.57,4.92 16.66,3.29l2.03 -52.97c27.4,-1.46 24.97,-5.46 54.51,-6.99 -5.13,65.37 -22.63,17.27 -31.37,69.26zm788.78 64.74c-10.28,10.8 -106.26,36.14 -126.22,43.91 -68.16,26.51 -166.88,69.34 -229.45,110.55 -16.34,10.76 -30.24,19.83 -49.65,31.9 -47.48,29.52 -38.57,20.01 -42.3,38.74 -32.82,0.95 -72.76,48.69 -100.28,70.13 -18.19,14.18 -23.51,10.66 -20.94,30.69 -64.89,-2.09 -135.42,208.9 -213.67,200.15 -41.7,-56.67 -40.17,-165.14 -39.39,-251.56 0.32,-35.42 13.71,-103.26 0.61,-131.55 -7.4,-15.99 -6.74,-11.14 -15.64,-21.56 -18.69,-21.88 -40.17,-40.07 -45.26,-60.54 18.41,-20.51 28.48,-12.92 29.62,-36.24 -25.94,-1.58 -19.78,4.96 -41.77,19.38 -22.91,15.02 -17.2,11.42 -35.81,26.19 -13.35,10.59 -61.44,32.83 -78.68,40.79 -144.25,66.59 -133.08,8.53 -163.83,-8.7l-12.18 -17.03c-2.27,-3.03 -4.01,-4.07 -9.84,-12.63 -12.52,-14.56 -8.9,4.55 -8.53,-17.21 0.35,-20.7 9.22,-41.94 28.43,-54.41l204.54 -178.32c24.77,-18.84 6.51,6.13 21.07,-34.87 11.83,-33.31 23.91,-35.46 34.36,-72.65 22.19,-78.96 35.49,-24.49 34.62,-190.9l27.9 -0.76c-13.03,-12.74 -18.7,-5.13 -27.84,-24.14l31.81 -8.19c26.78,3.54 51.11,23.96 75.4,10.17 -37.05,-22.05 -152.42,-54.93 -199.66,-62 14.7,-24.32 47.05,-52.55 69.91,-70.51 27.43,-21.54 46.7,-45.31 88.67,-58.28 -11.02,24.47 -1.1,14.65 -18.53,26.49l-28.84 13.42 39.7 13.82c10.29,5.02 19.26,12.99 30.62,20.37 28.34,18.4 71.64,32.46 88.35,55.37 22.29,30.56 45.12,41.91 73.4,77.42 27.06,33.97 -12.52,-18.54 5.49,7.45 30.3,43.72 13.86,13.12 53.52,65.72l103.72 129.4c15.41,13.89 23.23,37.88 62.28,81.99 7.04,7.95 11.75,13.85 21.25,22.84 92.88,87.85 131.61,100.34 233.02,144.55 92.04,40.12 78.77,19.66 149.99,30.61z"/>
   <path fill="#D71A20" d="M3480.18 3321.6c-103.12,-37.46 -170.95,-45.04 -295.75,-42.26 -61.59,1.38 -100.16,8.56 -151.95,16.46 -47.26,7.21 -102.29,26.44 -140.55,27.86 -71.23,-10.95 -57.96,9.51 -149.99,-30.61 -101.42,-44.21 -140.15,-56.7 -233.02,-144.55 -9.5,-8.99 -14.22,-14.89 -21.25,-22.84 -39.06,-44.11 -46.87,-68.11 -62.28,-81.99l-103.72 -129.4c-39.66,-52.61 -23.22,-22 -53.52,-65.72 -18.01,-25.99 21.57,26.52 -5.49,-7.45 -28.28,-35.51 -51.11,-46.86 -73.4,-77.42 -16.71,-22.91 -60.01,-36.97 -88.35,-55.37 -11.37,-7.38 -20.33,-15.34 -30.62,-20.37l-39.7 -13.82 28.84 -13.42c17.43,-11.84 7.51,-2.01 18.53,-26.49 24.7,-40.8 206.88,-63.73 208.45,-67.62 0.72,-1.77 2.9,-1.12 4.12,-2.05l87.11 8.63 -59.81 -0.13c29.38,11.45 69.29,17.35 98.96,26.47 142.36,43.76 356.48,174.22 451.03,290.6 19.46,23.95 29.26,49.03 46.3,69.18 140.56,18.44 252.68,53.51 353.73,115.74 68.99,42.48 222.71,151.48 212.34,246.56z"/>
   <path fill="#FFD521" d="M1533 2990.12c1.97,79.61 4.02,134.37 26.9,208.27 8.52,27.51 22.25,60.3 34.67,84.64 14.29,28.01 33.94,50.77 40.58,75.79 -35,45.23 -244.61,56.4 -318.68,47.69 -112.83,-13.27 -194.66,-49.69 -281.27,-98.45 -76.62,-43.13 -197.46,-149.5 -254.34,-217.29 -52.6,-62.69 -83.12,4.15 -126.75,-61.67 -11.33,-17.09 -26.56,-39.15 -40.68,-58.07 -108.16,-2.64 -148.57,98.84 -214.2,86.61 -23.61,5.4 1.19,-55.64 8.97,-66.54 14.96,-20.97 26.03,-32.47 46.29,-48.2 31.19,-24.22 84.87,-58.87 135.37,-57.71 12.63,-16.44 10.71,28.16 10.71,-22.45 -36.22,-8.38 -32.56,-42.74 -105.83,-35.34 -67.73,6.83 -20.19,16.03 -124.38,15.06 -29.91,-46.16 29.47,-102.44 65.44,-119.67 44.16,-21.16 121.43,-32.7 177.9,-26.48 21.01,-6.57 7.69,4.05 12.78,-15.79 10.21,-39.82 -24.32,-85.25 -55.97,-108.35 -63.48,-46.35 -93.77,-32.14 -110.26,-76.83 -2.53,-61.31 91.17,-29.88 120.63,-15.32 50.4,24.91 55.76,44.61 94.63,81.72l80.13 95.78c92.66,109.16 233.83,281.27 356.44,347.71 24.67,13.37 -5.57,5.28 29.27,14.84 9.81,2.69 27.15,5.02 37.17,7.1 28.03,5.82 46.34,8.05 78.46,8.02 1.38,-1.57 3.55,-6.15 4.25,-7.23 10.59,-16.31 -4.79,-6.07 10.62,-10.78l120.35 -3.64c43.62,-4.23 111.19,-26.06 140.8,-23.43z"/>
   <path fill="#003480" stroke="#003480" stroke-width="4.75" stroke-miterlimit="22.9256" d="M2716.59 4354.73c-2.18,16.26 -33.4,64.42 -46.12,81.6 -6.93,9.35 -29.65,40.75 -39.26,42.65 -58.63,0.15 -87.54,-3.56 -141.24,-9.57 -8.88,-0.99 -25.04,-2.52 -33.31,-4.42l-90.33 -18.8c-143.6,-49.21 -246.82,-121.96 -343.05,-246.44 -12.85,-16.62 -81.01,-141.98 -82.87,-173.44 -0.62,-10.51 1.24,-21.55 2.32,-31.98l59.54 -57.45c13.3,-13.19 2.73,-7.93 20.24,-15.86 52.79,-23.91 74.19,-40.57 113.6,-42.25 2.62,25.28 -6.67,2.62 8.5,28.8 57.27,-34.89 22.59,-21.74 85.51,-45.29l-0.04 -7.11c-0.07,-0.87 -0.25,-3.21 -0.35,-4.1l-2.12 -13.93c62.3,6.74 -51.65,12.61 114.41,12.61l0 -100.59 106.84 0c0,236.99 0.88,81.83 18.06,149.72 2.09,8.24 0.8,40.82 0.8,51.45 -19.98,-14.35 -11.94,-4.43 -13.82,-55.3 -12.66,14.24 -6.21,-0.66 -12.41,23.6 -1.6,6.28 -1.21,12.5 -1.19,18.94 0.04,10.47 2.01,25.72 2.29,37.91 0.56,24.89 0.02,50.47 0.02,75.43l100.59 0 0 100.59c22.85,0 47.2,-0.86 69.83,-0.21l52.15 6.52c-15.72,23.2 -6.9,0.76 -25.77,25.12l33.02 23.13c2.57,1.46 11.87,6.71 16.68,9.5 1.45,0.84 3.09,1.61 4.52,2.48l12.52 8.05c28.12,29.24 -0.8,-18.95 4.36,6.24l-1.32 6.18c-9.43,11.04 5.27,5.99 -18.86,5.47 -22.18,-0.48 -21.94,-8.11 -52.79,-10.73 12.06,36.04 -19,18.88 25.12,25.08 -4.22,41.28 -14.77,56.85 -15.02,96.72l27.32 11.78c-0.19,0.88 -0.44,2.86 -0.73,3.87 -0.31,1.08 -0.89,2.78 -1.32,3.97l-16.51 34.54c30.09,-4.23 31.25,-3.68 42.08,-24.15 6.62,-12.51 3.68,-1.32 4.65,-17.28 2.21,-36.43 0.56,-7.25 -2.7,-8.41l16.18 -4.64z"/>
   <path fill="#FCD322" stroke="#FCD322" stroke-width="4.75" stroke-miterlimit="22.9256" d="M3918.42 2963.57c10.11,-11.36 5.83,-2.16 1.32,-18.22 -1.93,-6.88 -5.28,-5.2 -8.93,-20.61 1.91,-2.41 29.83,-67.9 35.16,-80.1 14.78,-33.84 8.44,-65.91 8.48,-95.55 2.6,-11.26 -13.95,-1.93 10.91,-11.35l25.84 10.57c10.78,53.57 -0.36,70.82 -7.95,108.8 -7.16,35.82 -3.56,26.68 3.25,30.26 -8.1,11.04 -13.8,16.37 -16.2,25.44l-12.57 19.02c47.14,-2.45 33.82,-7.44 56.55,-25.08 1.36,1.47 2.72,3.59 3.74,4.68l15.02 13.95c8.05,4.93 12.05,3.87 18.93,6.52 0.93,11.46 -0.42,19.18 2.72,29.2l32.51 54.34 -34.85 46.98c66.52,-9.21 215.49,-67.67 260.05,0.55 9.31,35.46 -16.6,58.92 -45.42,61.45 -31.38,1.73 -162.86,23.74 -177.33,33.65 -42.14,28.87 -72.5,59.01 -126.3,80.77 -114.91,46.48 -197.19,-79.88 -263.76,-130.57 -85.66,-65.23 -160.6,-110.34 -264.54,-150.79 -51.11,-19.89 -101.1,-36.59 -155.56,-50.45 -55.94,-14.24 -121.75,-20.18 -172.65,-36.1 0.56,-101.45 -16,-162.8 -24.41,-253.12 33.14,-16.08 211.11,27.1 259.82,37.27 136.03,28.39 185.25,66.34 283.17,107.35 51.16,21.42 183.34,115.99 227.81,154.43 30.1,26.01 44.18,52.67 83.23,62.79l-18.04 -16.07z"/>
   <path fill="#2BB673" stroke="#2BB673" stroke-width="4.75" stroke-miterlimit="22.9256" d="M443.92 3790.59l-151.61 9.53c-73.97,-4.61 -198.68,-33.32 -242.88,-84.68 -23.15,-26.89 -13.63,-117.32 -5.38,-151.56l10.48 -3.36c35.37,-9.08 49.78,-5.81 84.69,-27.24 31.87,-19.56 46.09,-33.17 65.28,-60.77 18.04,-25.93 31.84,-54.62 38.39,-87.62 7.85,-39.49 -2.76,-82.25 1.43,-119.7l4.22 -12.74c-27.51,29.64 6.22,14.28 12.57,18.86 0.46,-30.56 6.35,-37.38 6.35,-75.38 48.64,-9.66 25.76,-14.31 44.65,-47.95 40.47,-72.1 32.87,-25.93 16.98,-59.34 -0.51,-1.07 -1.89,-2.63 -2.19,-3.85 -12.08,-48.72 -0.06,-20.57 15.93,-33.45l35.63 51.85c11.83,10.52 38.23,22.98 72.36,15.09 39.24,-9.07 30.32,-18.04 30.32,-30.13 7.71,-19.61 56.78,-37.57 86.22,-47.09 7.06,63.37 0.67,162.96 -0.54,230.3 -1.32,73.49 -2.18,146.06 -4.13,220.02 -1.39,52.81 1.7,172.4 -6.15,212.85 -14.65,75.49 -150.81,77.54 -112.61,86.35z"/>
   <path fill="#FEFEFE" d="M933.24 1423.07l8.87 -4.42c23.82,-10.87 53.45,-19.11 54.78,-71.16 0.56,-21.94 -3.65,-37.94 -16.17,-52.79 -5.8,-6.88 -13.4,-12.35 -21.5,-16.39l-18.65 -7.8c-1.44,-0.64 -3.69,-1.73 -4.87,-2.26 -1.2,-0.54 -3.39,-1.37 -4.93,-2.34 44.07,-341.14 486.3,-264.84 506.07,119.27 19.09,370.79 -441.74,415.06 -503.6,37.9z"/>
   <path fill="#23221C" d="M44.12 3544.5c118.21,-6 194.83,-99.52 189.06,-223.05 -5.92,-126.52 -113.81,-232.9 -169.82,-228.99l-19.23 452.04zm200.19 -279.3c-4.19,37.45 6.42,80.21 -1.43,119.7 -6.56,33.01 -20.36,61.69 -38.39,87.62 -19.2,27.6 -33.42,41.22 -65.28,60.77 -34.9,21.42 -49.31,18.16 -84.69,27.24l-10.48 3.36c-8.25,34.23 -17.77,124.66 5.38,151.56 44.2,51.36 168.91,80.07 242.88,84.68l151.61 -9.53c58.57,6.71 137.09,-47.71 143.89,-91.99 8.67,-56.48 4.52,-169.96 5.82,-232.36 1.6,-77.62 3.31,-156.52 4.57,-233.31 0.65,-39.59 0.93,-79.2 2,-118.78 1.22,-44.95 14.16,-75.1 -32.84,-73.09 -29.44,9.52 -78.51,27.48 -86.22,47.09 -69.35,21.4 -102.31,22.91 -113.06,-61.04 -57.5,-3.8 -118.04,-15.88 -168.13,-33.99 -59.89,-21.65 -85.42,-47.42 -126.79,-71.96l-6.32 149.02c60.84,40.47 109.57,55.38 148.38,133.82l21.15 48.78c6.62,12.77 2.18,5.46 7.95,12.42zm-146.67 -357.97c10.72,47.17 202.68,104.85 276.64,99.92 13.61,-21.4 30.68,-41.57 38,-57.16 -61.15,-9.32 -105.96,-14.49 -159.25,-34.28 -40.16,-14.91 -105.81,-57.38 -124.71,-61.36l-24.37 -33.78c-38.01,8.92 -65.38,52.32 -6.32,86.66zm226.58 -211.03l-6.05 -16.92c-78.39,3.12 -196.66,72.42 -194.89,141.09l18.37 10.24c13.07,31.85 142.1,79.32 169.92,81.17 23.42,16.89 100.89,25.7 128.66,16.91 26.33,-8.34 51.08,-43.88 88.38,-50.77 -76.95,-7.7 -166.16,54.4 -184.06,-52.08 -2.87,-47.06 24.17,-78.24 47.21,-101.42 -10.27,-5.77 -59.93,-25.11 -67.54,-28.21zm139.43 -7.33c1.82,-18.02 6.59,-94.18 3.88,-108.36 -4.68,-24.41 -30.66,-43.52 -60.87,-42.47 -57.06,1.96 -29.16,26.46 -46.9,58.48 -12.86,23.2 -16.86,5.4 -23.15,33.74 -2.47,11.13 -0.76,38.46 -0.01,50.54 44.01,19.7 70.59,36.2 127.05,8.07zm101.45 -31.22c-12.46,-22.86 -36.01,-43.29 -61.34,-48.54l-2.16 54.07 63.5 -5.53zm230.65 -58.95c12.41,23.54 42.93,64.59 64.74,77.27 5.67,17.54 10.31,20.54 23.73,25.79 8.82,21.87 14.81,24.34 30.78,41.4 6.33,6.76 12.23,13.97 18.36,19.29 14.67,12.73 3.45,5.78 21.55,14.4 2.64,9.51 -3.07,4.11 9.89,17.04 16.22,16.18 6.96,7.06 17.54,9.98l21.14 27.09c22.2,19.56 44.46,42.23 65.75,50.73 0.81,1.35 1.6,7.41 12.5,15.15 9.22,6.55 6.7,4.74 16.62,6.76 58.09,85.31 260.84,54.21 356.22,21.11l38.88 -20.44 32.47 -8.17 15.33 2.13c0.65,0.13 3.61,2.34 4.11,1.04 0.55,-1.43 3.06,0.57 4.5,1.15l-9.75 44.17c-0.57,-0.91 -2.1,4.14 -3.34,6.09 -3.64,-23.16 6.28,-9.49 -5.74,-17.68 -111.12,49.22 -171.88,59.11 -309.79,61.07l24.09 16.49c-115.86,10.94 -341.16,-220.09 -397.75,-288.04 -61.79,-74.2 -190.8,-241.46 -256.42,-265.3 -45.43,-16.5 -116.45,-21.12 -132.72,16.8 -10.62,9.76 -2.83,-12.04 -9.05,18.42 -1.15,5.6 -0.82,17.55 0.19,23.29 6.28,35.72 42.15,43.5 82.22,63.74 46.13,23.29 83.59,53.23 81.89,116.83 -56.47,-6.22 -133.73,5.32 -177.9,26.48 -35.97,17.23 -95.35,73.51 -65.44,119.67 25.98,61.08 103.09,6.08 173.84,13.48 50.03,5.23 45.05,27.66 45.66,29.24 -50.5,-1.17 -104.19,33.49 -135.37,57.71 -20.25,15.73 -31.33,27.23 -46.29,48.2 -7.78,10.9 -32.58,71.94 -8.97,66.54 39.88,70.32 104.98,-46.49 201.37,-37.14 38.01,37.97 35.08,84.13 88.5,94.08 45.27,8.43 40.09,-9.29 67.97,25.23 13.21,16.36 31.02,31.22 39.57,52.29l-26.97 -16.03c-1.36,-3.57 -3.54,-3.73 -4.2,-4.76l-8.32 21.67c-31.6,-12.33 6.72,-27 -121.87,-56.71l-3.23 191.64c-4.17,92.16 7.94,350.53 -19.19,414.92 -11.55,5.38 -18.68,20.82 -31.08,31.49l-35.77 28.33 -85.33 30.93c-49.16,-3.28 -116.84,4.12 -174.38,2.14 -40.94,-3.31 -120.24,-23.29 -143.59,-21.97l-25.6 -14.75c-8.87,-4.17 -16.96,-7.45 -25.77,-12.02 -25.61,-13.29 -31.82,-22.11 -54.78,-29.64 -6.31,-18.04 -11.42,-19.64 -23.96,-27.89 -19.66,-30.52 -10.86,-66.03 -9.32,-106 3.18,-53.74 12.67,-156.14 4.25,-204.88l8.82 -97.04c1.45,-38.25 3.32,-74.58 5.18,-113 2.15,-26.38 6.01,-56.72 -0.76,-80.58 0.79,-1.48 1.49,-3.54 1.83,-4.7 0.35,-1.18 1.3,-3.35 1.68,-4.85l10.7 -161.34 2.71 -48.84c-13.43,-54.59 -10.6,-47.61 2.62,-93.66l2.71 -4.28c19.64,-9.27 42.41,-22.75 56.03,-40.25 93.01,-119.41 108.4,-79.99 162.37,-122.98l24.87 -2.18c20.6,-14.84 10.21,8.69 15.59,-58.76 20.44,-8.25 9.87,2.41 28.33,-12.57 5.12,-61 4.03,-31.31 30.17,-65.84l17.25 -0.92 32.52 -5.29c10.15,-47.22 6.55,-43.13 33.55,-73.52l6.63 -7.67c45.51,-2.08 129.08,-38.01 213.95,39.25 27.74,25.25 42.98,42.75 68.27,70.11 14.99,16.21 42.75,65.61 63.18,69.06z"/>
   <path fill="#D51A1E" d="M2043.63 2814.82l-31.81 8.19c9.14,19.02 14.81,11.41 27.84,24.14l-27.9 0.76c0.87,166.41 -12.43,111.94 -34.62,190.9 -10.45,37.2 -22.53,39.34 -34.36,72.65 -14.56,41 3.7,16.02 -21.07,34.87l-204.54 178.32c-19.21,12.47 -28.08,33.71 -28.43,54.41 -0.37,21.76 -3.99,2.65 8.53,17.21 -115.73,-146.8 -166.61,-291.66 -135.12,-495.35 28.41,-183.77 437.92,-116.73 481.49,-86.1z"/>
   <path fill="#023380" d="M3252.77 4219.65c-12.2,28.19 -18.49,21.37 -37.87,37.83 -13.33,11.33 -20.91,18.27 -33.89,28.67l-59.99 63.43c-40.12,-11.59 -18.67,4.96 -43.67,21.57 -17.47,11.61 -0.97,2.64 -17.93,6.68l12.08 50.18c-21.2,17.69 -18.59,7.38 -19.12,26.68 -34.08,-3.96 -27.8,-3.93 -58.5,-56.21l-69.8 -138.97c-12.63,-43.28 27.74,-16 59.27,-32.59 -11.63,-15.76 -0.07,-11.98 -62.85,-11.87 -171,0.29 -98.93,-18.68 -195.66,-26.17 5.15,24.14 -8.57,8.84 40.19,29.9 0.35,39.3 -27.96,103.2 -48.43,135.94l-16.18 4.64c3.26,1.16 4.91,-28.02 2.7,8.41 -0.97,15.96 1.97,4.77 -4.65,17.28 -10.83,20.48 -11.99,19.92 -42.08,24.15l16.51 -34.54c0.43,-1.18 1.01,-2.89 1.32,-3.97 0.29,-1.01 0.55,-2.99 0.73,-3.87l-27.32 -11.78c0.24,-39.87 10.8,-55.44 15.02,-96.72 -44.11,-6.21 -13.06,10.95 -25.12,-25.08 30.86,2.61 30.61,10.25 52.79,10.73 24.13,0.52 9.43,5.58 18.86,-5.47l1.32 -6.18c-5.16,-25.19 23.76,23 -4.36,-6.24l-12.52 -8.05c-1.43,-0.87 -3.07,-1.64 -4.52,-2.48 -4.82,-2.79 -14.12,-8.05 -16.68,-9.5l-33.02 -23.13c18.87,-24.36 10.05,-1.91 25.77,-25.12l-52.15 -6.52c-22.63,-0.65 -46.98,0.21 -69.83,0.21l0 -100.59 -100.59 0c0,-24.97 0.54,-50.54 -0.02,-75.43 -0.27,-12.19 -2.25,-27.44 -2.29,-37.91 -0.02,-6.44 -0.42,-12.66 1.19,-18.94 6.2,-24.25 -0.25,-9.35 12.41,-23.6 1.89,50.87 -6.15,40.95 13.82,55.3 0,-10.63 1.29,-43.21 -0.8,-51.45 -17.18,-67.89 -18.06,87.27 -18.06,-149.72l-106.84 0 0 100.59c-166.06,0 -52.11,-5.86 -114.41,-12.61l2.12 13.93c0.1,0.9 0.28,3.24 0.35,4.1l0.04 7.11c-62.92,23.55 -28.24,10.4 -85.51,45.29 -15.17,-26.18 -5.88,-3.51 -8.5,-28.8 18.93,-24.26 31.09,-15.95 55.41,-53.37 13.5,-20.77 26.22,-39.96 40.87,-59.81 24.56,-33.29 21.76,-17.51 48.87,-58.24 17.46,-26.23 39.41,-29.4 41.84,-57.78 32.47,7.33 15.56,-2.36 20.84,-5.56 1.77,-1.08 10.77,-9.89 13.31,-12.09l87.08 -83.17c45.95,2.36 46.02,-10.09 68.43,-25.6 13.56,-9.39 12.62,-3.4 28.58,-20.74 18.76,-20.38 26.06,-20.17 48.37,-28.09 34.38,-12.2 13.26,-4.49 37.77,-23.37 1.15,-0.89 2.71,-1.94 3.9,-2.8 1.56,-1.13 6.42,-4.31 8.01,-5.36l15.21 -9.27c5.61,-2.72 22.73,-8.11 27.82,-9.87 30.44,-10.5 102.48,-50.43 162.46,-57.77 -11.53,17.27 0.44,1.85 -11.32,12.61 -18.25,16.69 -44.03,21.29 -87.39,57.45l-22.07 16.18c-132.47,89.82 -246.13,244.2 -206.47,419.19 11.86,52.31 30.1,68.78 55.88,104.96 9,12.63 13.03,18.76 21.47,29.25 52.64,65.37 54.51,49.08 112.14,95.14 34.6,27.65 172.56,89.19 218.56,95.35 24.76,3.31 59.41,8.25 89.04,14.57 16.21,27.44 9.13,33.81 112.64,26.82 39.4,-2.66 90.02,-17.3 125.44,-17.74z"/>
   <path fill="#FCE998" d="M2279.22 2549.99c-22.99,-12.28 -6.33,4.35 -16.79,-23.48l-32.45 -93.27c-48.69,-135.7 -59.29,-286.08 -58.01,-438.17 0.51,-60.26 27.23,-262.74 47.44,-316.29l22.16 -104.98c7.76,-61.88 38.1,-132.2 59.4,-190.25l109.72 -300.53c4.11,-8.79 8,-16.6 12.02,-25.26l39.99 -92.38c3.73,-9.49 5.28,-17.99 10.6,-27.38 7.96,-14.06 6.51,-3.67 15.87,-26.95 10.11,-25.13 14.65,-35.7 25.16,-57.52l9.49 -15.98c20.37,-26.91 7.68,-0.93 18.6,-35.98 8.7,-27.92 45.56,-86.2 60.37,-111.33l42.18 -57.6c25.43,-33.52 49.13,-45.12 77.84,-75.8 20.57,-7.76 42.74,-15.62 67.47,-9.07 0.21,29.33 -39.18,72.9 -55.23,99.06 -136.32,222.05 -270.01,564.57 -360.02,809.07 -119.94,325.78 -187.96,630.58 -74.36,970.38 13.92,41.63 37.51,87.47 47.87,123.5l-69.33 0.21z"/>
   <path fill="#00ADEF" d="M2351.2 5138.3c-53.58,39.43 -317.98,118.06 -407.13,114.51 -93.5,-4.37 -313.06,-26.12 -227.86,-161.91 28.52,-45.46 59.46,-69.75 100.45,-106.86 80.38,-72.78 92.79,-15.06 159.36,-36.43 14.52,-4.66 4.95,-0.16 13.47,-7.05 39.16,-1.12 73.27,-8.13 110.8,-17.41 48.48,-11.99 54.24,-20.09 93.03,-38.69 52.63,5.77 115.82,137.17 130.75,183.63 26.11,81.3 4.12,79.32 27.15,70.2z"/>
   <path fill="#E3AE25" d="M935.04 1544.88c-55.75,-2.54 -107.54,15.19 -124.17,69.55 -9.43,30.83 -4.03,63.1 8.5,86.96 13.18,25.12 23.38,35.29 44.39,52.37 25.83,21.52 70.3,36.07 93.74,58.64 28.72,63.79 -182.17,313.01 194.68,422.32 134.77,39.09 309.43,56.09 454.29,55.96 51.8,-0.05 110.97,-14.38 159.8,-8.02l-9.78 5.44c-30.81,12.84 -130.97,22.62 -163.11,25.27 -191.51,15.77 -380.95,6.39 -558.73,-47.69 -404.39,-123.01 -255.89,-208.61 -171.37,-446.34l44.9 -0.7c-10.29,-5.88 -115.92,-34.02 -181.29,-62.8 -176.39,-77.63 -128.46,-261.95 5.62,-262.56 39.05,-0.18 151.67,22.59 189.08,42.71 9.53,5.13 7.58,3.84 13.44,8.89z"/>
   <path fill="#FCD322" d="M3554.42 4422.8c15.31,-18.07 7.85,-32.02 10.36,-59.38l9.39 2.41c-9.34,9.94 -18.06,-19.13 -9.84,30.93 1.37,8.32 8.16,15.59 10.83,18.54 3.39,3.73 26.03,19.71 32.62,23.77 11.44,7.05 25.44,13.33 36.91,20.36 12.31,7.54 17.74,11.33 19.95,28.63 -42.87,57.43 -83.18,130.69 -91.94,217.3l-17.5 -5.46c-151.32,-35.38 -262.01,-50.33 -294.64,-260.32 -7.73,-49.73 -16.53,-139.87 -0.73,-186.57 18.79,-30.61 194.35,-115.99 248.74,-130 5.24,59.58 4.55,114.2 10.08,171.58 6.42,66.53 13.76,81.34 33.67,139.14l2.08 -10.93z"/>
   <path fill="#FCD322" d="M2102.38 4527.46c8.75,26.23 6.16,164.63 13.84,195.68 4.09,16.53 -0.46,4.51 7.08,14.26 -37.97,58.66 -140.54,58.49 -221.5,52.69 -22.55,-58.25 -42.96,-263.86 -36.16,-340.37 5.23,-58.86 16.69,-105.02 41.65,-147.76 17.14,-29.36 66.28,-89.25 90.5,-100.2 8.67,1.79 5.24,1.35 12.8,10.51 58.85,71.27 71.25,92.21 154.7,153.86 18.71,13.82 47.2,27.39 61.54,41.48 -90.9,52.53 -100.27,63.83 -158,143.43 20.71,-3.23 13.53,-10.58 33.55,-23.57z"/>
   <path fill="#FCFCFD" d="M4197.39 5211.17c-37.33,9.43 -57.28,20.92 -101.48,14.87 -11.75,-1.61 -32.38,-6.95 -42.83,-12.78 -22.87,-12.74 -17.99,-14.88 -16.7,-40.89l31.94 -333.33c14.56,-81.92 67.25,-218.64 146.24,-209.52 87.7,10.11 52.46,218.2 45.52,291.63 -8.47,89.6 -9.46,232.79 -62.69,290.02z"/>
   <path fill="#0183CB" d="M1989.48 4940.56c-8.51,6.89 1.06,2.39 -13.47,7.05 -66.57,21.36 -78.99,-36.35 -159.36,36.43 -40.98,37.11 -71.92,61.4 -100.45,106.86 -85.2,135.79 134.37,157.53 227.86,161.91 -1.79,0.83 -4.03,1.53 -5.58,1.95l-36.38 5.7c-166.16,7.09 -408.56,8.92 -553.83,-51.51 24.14,-81.83 179.05,-206.77 251.37,-252.9 139.91,-89.25 99.29,-56.21 162.83,-35.21 79.29,26.2 135.12,18.08 227,19.73z"/>
   <path fill="#D71A20" stroke="#D71A20" stroke-width="4.75" stroke-miterlimit="22.9256" d="M3031.9 2539.62c8.69,44.9 59.69,146.5 44.1,201.51 -13.24,52.39 17.73,75.33 4.12,114.65 -4.59,13.26 -1.67,7.11 -8.85,15.48 -6.17,-9.21 -1.9,-22.94 -16.52,-37.47l-18.53 -11.76c-28.78,-20.18 -45.77,-43.73 -120.1,-93.36 -9.44,-6.3 -22.42,-12.79 -36.05,-16.47 -40.41,-10.94 -36.13,3.51 -38.84,8.24 1.1,-28.49 -0.16,-14.86 -31.83,-30.5 -3.64,-1.8 -11.02,-6.47 -14.76,-8.83 -31.69,-19.94 -29.43,-23.04 -72.19,-28.04 -6.23,19.56 -11.23,24.92 -5.45,32.71 -32.73,-16.73 -68.46,-38.03 -100.41,-53.38 -18.8,-9.03 -34.34,-14.03 -52.46,-22.61 -15.7,-7.44 -46.58,-18.1 -56.46,-23.38 12.14,-2.12 133.86,-56.61 217.44,-77.12 140.08,-34.36 177.88,-18.34 233.25,-25.97 16.76,-2.31 20.86,9.78 17.53,-9.23 34.21,33.51 45.4,56.53 56,65.54z"/>
   <path fill="#E3AE25" d="M1635.14 3358.82l28.56 31.28c8.22,10.55 16.27,17.91 25.66,28.52 -6.89,18.34 -10.13,16.03 -50.3,29.72 -318.73,108.57 -582.68,11.72 -804.8,-222.01l-27.38 -28.52c-10.67,-8.27 -0.24,-2.41 -10.23,-5.71 -8.55,-21.08 -26.36,-35.93 -39.57,-52.29 -27.88,-34.53 -22.7,-16.81 -67.97,-25.23 -53.42,-9.95 -50.49,-56.1 -88.5,-94.08 -96.39,-9.35 -161.49,107.46 -201.37,37.14 65.63,12.24 106.04,-89.25 214.2,-86.61 14.11,18.92 29.35,40.98 40.68,58.07 43.63,65.82 74.15,-1.01 126.75,61.67 56.88,67.79 177.72,174.16 254.34,217.29 86.61,48.76 168.44,85.18 281.27,98.45 74.06,8.71 283.68,-2.46 318.68,-47.69z"/>
   <path fill="#E3AE25" d="M1356.23 161.44c-18.25,15.05 -6.85,54.05 -6.89,117.45 -0.08,131.61 -12.22,256.04 -51.51,376.34l-54.32 153.58c-10.72,24.84 -14.76,20.89 -37.7,37.31 -95.88,68.61 -61.99,128.68 -26.87,186.69l-94.26 1.84c-36.06,-30.08 -51.68,-81.16 -19.09,-127.01 23.87,-33.58 63.52,-47.84 98.73,-81.81 8.24,-78.94 14.77,-110.39 34.51,-180.93 34.22,-122.29 50.57,-244.65 53.2,-372.18 1.38,-66.79 -5.3,-147.22 5.22,-211.53 35.66,-1.77 91.98,84.93 98.97,100.25z"/>
   <path fill="#E3AE25" d="M1997.79 4201.75c-24.22,10.95 -73.36,70.84 -90.5,100.2 -24.95,42.74 -36.42,88.9 -41.65,147.76 -6.8,76.52 13.62,282.13 36.16,340.37 -112.89,-13.13 -119.63,-30.5 -143.14,-130.16 -35.39,-150 -47.76,-306.95 47.79,-434.19 24.67,-32.85 102.68,-106.84 139.91,-124.26 17.11,43.94 37.46,63.06 51.43,100.28z"/>
   <path fill="#03ACEB" d="M3875.38 4704.2c-105.21,-61.85 -154.23,234.96 -63.37,278.88 101.34,48.99 154,-225.59 63.37,-278.88zm245.04 -150.4c-35.13,41.9 -78.76,43.79 -135.18,178.11 -29.96,71.33 -41.64,165.28 -48.59,255.73 -1.26,1.8 -2.78,2.37 -3.34,5.69l-11.61 28.43c-80.89,32.25 -144.79,-9.87 -172.57,-64.89 -58.51,-115.91 -24.68,-212.85 -26.91,-231.79 0.05,-58.97 65.91,-156.63 96.31,-176.76l33.17 -5.22c80.72,-26.89 190.89,-5.98 268.73,10.7z"/>
   <path fill="#D3D3D4" d="M1957.77 5267.41c-1.66,36.48 4.47,47.06 25.2,73.22 37.99,47.94 25.65,14.56 66.53,20.68 -33.72,30.2 -323.35,42.34 -386.45,41.1 -104.35,-2.05 -280.2,-15.03 -352.27,-69.02 -3.32,-41.72 14.84,-75.65 23.2,-109.73 47.18,6.89 94.97,22.84 142.02,31.72 151.65,28.62 329.73,34.46 481.76,12.04z"/>
   <path fill="#0183CB" d="M3936.63 4987.65c-0.61,30.52 -11.94,138.59 -20.51,166.56 -40.2,131.27 -347.84,30.37 -399.25,3.15 2.4,-84.17 122.99,-179.36 184.38,-205.39 2.45,-73.01 -1.12,-103.49 6.86,-181.08 0.88,-8.59 2.06,-19.6 4.68,-27.81 7.11,-22.26 -1.45,-6.16 9.41,-17.99 2.24,18.94 -31.59,115.88 26.91,231.79 27.77,55.03 91.68,97.15 172.57,64.89l11.61 -28.43c0.56,-3.32 2.08,-3.89 3.34,-5.69z"/>
   <path fill="#E3AE25" d="M4266.97 3124.42l-43.33 23.44c-15.57,4.68 -30.22,9.18 -48.74,13.72 -116.12,28.45 -163.52,117.79 -231.3,133.15 -133.13,30.17 -252.6,-127.85 -334.92,-156.41l-102.41 -57.44c-34.5,-14.29 -90.88,-40.07 -132.51,-34.29 -1.44,-0.95 -3.55,-1.75 -4.65,-2.23l-32.72 -12.82c-32.18,-14.98 -73.2,-48.89 -159.72,-85.56 -23.53,-9.97 -46.22,-15.09 -69.24,-26.65l-0.6 -48.4c50.9,15.92 116.72,21.86 172.65,36.1 54.45,13.86 104.45,30.57 155.56,50.45 103.95,40.44 178.88,85.56 264.54,150.79 66.57,50.69 148.85,177.05 263.76,130.57 53.8,-21.76 84.15,-51.89 126.3,-80.77 14.47,-9.91 145.95,-31.92 177.33,-33.65z"/>
   <path fill="#F47578" d="M2477.27 2591.19l35.8 18.93c123.25,47.71 243.13,117.64 344.42,202.43 62.17,52.04 56.63,65.04 89.45,103.85 226.75,1.13 344.83,125.55 419.78,154.14 8.98,24.24 283.29,189.75 213.57,338.69 -38.64,-30.65 1.52,-25.61 -100.1,-87.63 10.37,-95.08 -143.35,-204.08 -212.34,-246.56 -101.05,-62.22 -213.17,-97.3 -353.73,-115.74 -17.04,-20.15 -26.84,-45.24 -46.3,-69.18 -94.55,-116.38 -308.67,-246.85 -451.03,-290.6 -29.67,-9.12 -69.58,-15.03 -98.96,-26.47l59.81 0.13 99.64 18.02z"/>
   <path fill="#4AD994" d="M44.12 3544.5l19.23 -452.04c56.01,-3.9 163.91,102.47 169.82,228.99 5.77,123.52 -70.85,217.05 -189.06,223.05z"/>
   <path fill="#E3AE25" d="M3572.72 4705.36l-4.33 68.76c-126.76,-4.36 -247.78,-53.91 -306.82,-121.63 -68.05,-78.06 -95.01,-216.77 -76.08,-343.84 22.96,-23.88 46.39,-40.41 74.35,-55.64 -15.8,46.7 -7,136.84 0.73,186.57 32.64,209.99 143.32,224.93 294.64,260.32l17.5 5.46z"/>
   <path fill="#FCFCFD" d="M4010.86 5174.59c-24.89,-18.2 -39.05,-51.72 -49.71,-77.85 -26.14,-64.05 5.46,-61.34 -6.56,-112.25 -9.3,-107.13 38.93,-257.61 86.47,-328.32 73.36,-109.1 199.72,-165.06 224.42,-19.83 -56.98,-39.09 -96.83,-34.18 -141.49,20.86 -121.84,150.14 -64.54,402.74 -113.13,517.39z"/>
   <path fill="#2DB573" d="M481.13 3088.15c0,12.1 8.92,21.06 -30.32,30.13 -34.13,7.89 -60.53,-4.57 -72.36,-15.09l-35.63 -51.85c-15.99,12.88 -28.01,-15.27 -15.93,33.45 0.3,1.21 1.68,2.77 2.19,3.85 15.88,33.41 23.49,-12.76 -16.98,59.34 -18.89,33.65 3.99,38.29 -44.65,47.95 0,38 -5.89,44.82 -6.35,75.38 -6.36,-4.58 -40.08,10.78 -12.57,-18.86l-4.22 12.74c-5.78,-6.96 -1.33,0.34 -7.95,-12.42l-21.15 -48.78c-38.81,-78.44 -87.53,-93.35 -148.38,-133.82l6.32 -149.02c41.37,24.54 66.9,50.31 126.79,71.96 50.09,18.11 110.63,30.19 168.13,33.99 10.75,83.95 43.71,82.44 113.06,61.04z"/>
   <path fill="#FCFCFD" d="M3693.68 4748.75l-27.69 10.2c-13.58,0.87 -24.33,-0.95 -34.62,-4.79 -26.52,-9.92 -31.19,-24.98 -36.64,-51.56 -10.85,-67.66 68.14,-188.83 102.01,-221.25 49.16,-47.07 177.9,-114.54 212.28,-2.95l-44.77 19.81c-113.69,46.53 -138.71,151.86 -170.56,250.55z"/>
   <path fill="#FCFCFD" d="M2049.5 5361.3c-40.89,-6.11 -28.54,27.26 -66.53,-20.68 -20.73,-26.15 -26.86,-36.74 -25.2,-73.22 170.36,-12.14 283.07,-72.24 417.39,-121.12l-4.82 115.84c-46.2,28.01 -264.47,102.09 -320.84,99.18z"/>
   <path fill="#D3D3D4" d="M4010.86 5174.59c-28,110.49 -101.94,133.39 -229.19,130.38 -96.48,-2.28 -214.84,-16.15 -284.46,-66.18l8.13 -64.61c41.06,5.07 101.59,31.25 147.58,42.23 382.59,91.41 253.07,-167.09 301.67,-231.93 12.03,50.91 -19.58,48.19 6.56,112.25 10.66,26.13 24.83,59.65 49.71,77.85z"/>
   <path fill="#FCFCFD" d="M1883.06 4922.65c-46.25,-57.75 -11.31,-72.34 6.57,-113.73 60.94,0.64 123.66,7.08 179.75,-12.81 62,-21.99 64.32,-32.76 90.33,-95.12 97.55,22.41 87.67,137.5 -2.96,182.93 -71.87,36.03 -184.31,47.65 -273.69,38.74z"/>
   <path fill="#E3AE2B" d="M1973.24 2671.53c-9.3,18.73 -1.35,6.43 -15.12,21.17l-52.76 54.11c-24.14,23.78 -79.21,16.66 -100.47,-7.11 -15.19,-16.99 -46.9,-62.63 -68.51,-68.91 -56.43,-16.4 -55.53,9.6 -115.42,-31.01 -40.96,-69.76 -2.06,-97.25 66.93,-104.75 61.48,-6.68 116,-12.59 178.34,-21.81 -7.5,16.91 -18.7,22.1 -30.64,32.02 -87.7,72.83 -8.91,105.18 67.62,113.44 29.81,3.22 58.76,1.43 70.04,12.84z"/>
   <path fill="#FDE594" d="M1536.77 2950.7l-3.78 39.42c-29.61,-2.63 -97.18,19.2 -140.8,23.43l-120.35 3.64c-15.41,4.72 -0.03,-5.53 -10.62,10.78 -0.7,1.08 -2.87,5.65 -4.25,7.23 -32.12,0.03 -50.44,-2.2 -78.46,-8.02 -10.01,-2.08 -27.36,-4.41 -37.17,-7.1 -34.84,-9.56 -4.6,-1.47 -29.27,-14.84 -122.61,-66.44 -263.77,-238.55 -356.44,-347.71l-80.13 -95.78c-38.86,-37.12 -44.23,-56.82 -94.63,-81.72 -29.47,-14.56 -123.16,-45.99 -120.63,15.32l-1.8 -21.31c16.27,-37.92 87.29,-33.3 132.72,-16.8 65.62,23.83 194.63,191.1 256.42,265.3 56.59,67.95 281.89,298.98 397.75,288.04l-24.09 -16.49c137.9,-1.96 198.67,-11.85 309.79,-61.07 12.02,8.18 2.09,-5.48 5.74,17.68z"/>
   <path fill="#361817" stroke="#361817" stroke-width="4.75" stroke-miterlimit="22.9256" d="M2290.52 2564.55c-1.23,0.92 -3.41,0.28 -4.12,2.05 -1.57,3.89 -183.75,26.82 -208.45,67.62 -41.97,12.97 -61.24,36.74 -88.67,58.28 -22.86,17.96 -55.21,46.19 -69.91,70.51 47.24,7.07 162.6,39.96 199.66,62 -24.29,13.79 -48.62,-6.64 -75.4,-10.17 -43.57,-30.63 -453.09,-97.67 -481.49,86.1 -31.48,203.69 19.4,348.56 135.12,495.35 5.83,8.56 7.57,9.6 9.84,12.63l12.18 17.03 -14.39 4.36c-26.18,-11.12 -10.02,8.94 -15.53,-11.66 -9.39,-10.61 -17.43,-17.97 -25.66,-28.52l-28.56 -31.28c-6.64,-25.02 -26.29,-47.79 -40.58,-75.79 -12.41,-24.34 -26.15,-57.13 -34.67,-84.64 -22.88,-73.9 -24.93,-128.65 -26.9,-208.27l3.78 -39.42c1.24,-1.96 2.77,-7 3.34,-6.09l9.75 -44.17c-1.44,-0.58 -3.95,-2.57 -4.5,-1.15 -0.5,1.3 -3.46,-0.91 -4.11,-1.04l-15.33 -2.13c1.53,-15.19 1.47,-19.71 5.89,-33.88 4.86,-15.57 5.56,-7.95 8.46,-25.56 11.9,-7.96 12.83,-4.11 15.93,-18.26l18.5 -18.55c3.46,-0.29 82.03,-38.29 101.7,-46.39 5.87,5.54 10.04,13.86 31.02,17.93 29.66,5.76 37.19,-8.99 95.46,-9.29 -4.21,-25.64 -19.41,-35.43 -49.68,-65.22l-22.66 -14.72c-42.32,-12.18 -106.7,6.19 -109.6,-42.41 59.9,40.61 59,14.61 115.42,31.01 21.61,6.28 53.32,51.92 68.51,68.91 21.26,23.77 76.33,30.89 100.47,7.11l52.76 -54.11c13.77,-14.74 5.83,-2.44 15.12,-21.17 13.04,-2.66 -3.54,5.49 18.4,-8.15 6.76,-4.2 6.59,-4.85 14.59,-10.67 78.36,-56.89 172.38,-93.32 271.27,-101.21l13.02 13.04z"/>
   <path fill="#FDE594" d="M3918.42 2963.57l18.04 16.07c-39.05,-10.12 -53.13,-36.78 -83.23,-62.79 -44.48,-38.43 -176.65,-133.01 -227.81,-154.43 -97.92,-41.01 -147.14,-78.95 -283.17,-107.35 -48.7,-10.17 -226.67,-53.35 -259.82,-37.27l-20.35 -59.12 40.6 2.37c259.35,33.15 472,93.93 662.75,255.19 43.59,36.85 121.39,103.17 153,147.33z"/>
   <path fill="#FCD322" d="M1065.2 1674.5c-39.26,0 -28.9,12.87 -68.95,-5.54 -14.79,-6.8 7,-5.25 -30.98,-13.26 -4.07,12.36 -5.84,38.31 -3.6,44.86 5.32,15.54 -0.44,6.72 11.46,16.36 11.65,9.44 6.6,2.28 19.53,7.91 -0.24,31.62 -26.89,36.43 -47.9,37.48 -37.77,1.87 -1.19,-37.3 -80.98,-8.53 -21.01,-17.08 -31.21,-27.25 -44.39,-52.37 -12.53,-23.87 -17.93,-56.14 -8.5,-86.96 16.63,-54.36 68.42,-72.1 124.17,-69.55 26.59,-2.3 43.44,43.64 59.38,62.81 8.59,10.33 18.49,21.14 30.68,32.02 14.65,13.09 25.46,16.77 40.1,34.79z"/>
   <path fill="#969699" d="M344.55 2825.84c-8.35,8.28 -16.62,17.94 -21.09,35.28 -3.54,13.74 -1.36,16.5 -2.97,26.48 -3.45,21.46 4.28,11.5 -8.92,24.18 -27.81,-1.85 -156.85,-49.32 -169.92,-81.17 1.08,-28.52 35.73,-69.43 65.63,-90.87 15.13,-10.85 33.23,-21.73 51.77,-30.28 26.05,-12.01 39.4,-20.06 65.18,-13.25 7.61,3.1 57.26,22.44 67.54,28.21 -23.04,23.19 -50.07,54.36 -47.21,101.42z"/>
   <path fill="#C4151B" d="M3076 2741.13c19.08,17.87 14.73,136.97 10.11,168.25 -12.21,1.34 -116.76,-11.98 -126.25,-16.13 -17.29,-7.57 -25.22,-28.83 -34.98,-41.14 -43.26,-54.57 -144.52,-123.96 -207.87,-166.33 -5.78,-7.78 -0.78,-13.15 5.45,-32.71 42.77,5 40.5,8.1 72.19,28.04 3.75,2.36 11.12,7.03 14.76,8.83 31.67,15.64 32.93,2.01 31.83,30.5 2.71,-4.73 -1.57,-19.18 38.84,-8.24 13.63,3.69 26.62,10.17 36.05,16.47 74.33,49.63 91.33,73.19 120.1,93.36l18.53 11.76c14.62,14.53 10.35,28.26 16.52,37.47 7.18,-8.37 4.26,-2.22 8.85,-15.48 13.61,-39.32 -17.36,-62.26 -4.12,-114.65z"/>
   <path fill="#361817" d="M3102.67 2561.06l-40.6 -2.37 20.35 59.12c8.41,90.32 24.97,151.67 24.41,253.12l0.6 48.4c23.02,11.55 45.72,16.68 69.24,26.65 86.52,36.66 127.54,70.57 159.72,85.56l32.72 12.82c1.1,0.48 3.21,1.29 4.65,2.23l-18.07 4.65c11.9,9.44 7.38,2.54 11.02,19.31 -74.95,-28.6 -193.03,-153.01 -419.78,-154.14 -32.82,-38.81 -27.28,-51.81 -89.45,-103.85 -101.28,-84.79 -221.16,-154.72 -344.42,-202.43l-35.8 -18.93 18.67 -5.85 11.74 1.05c9.87,5.28 40.75,15.95 56.46,23.38 18.12,8.58 33.65,13.58 52.46,22.61 31.94,15.35 67.68,36.65 100.41,53.38 63.35,42.37 164.61,111.76 207.87,166.33 9.76,12.31 17.69,33.57 34.98,41.14 9.49,4.16 114.05,17.48 126.25,16.13 4.63,-31.29 8.97,-150.39 -10.11,-168.25 15.59,-55.01 -35.41,-156.61 -44.1,-201.51 17.36,4.99 14.93,-21.09 20.52,21.84 6.91,-4.88 12.5,-11.23 25.41,-10.87 21.91,0.6 12.78,-4.1 24.85,10.47z"/>
   <path fill="#F9F9F9" d="M3897.54 4880.74c-37.84,166.56 -141.73,76.69 -109.28,-75.83 35.86,-168.54 144.69,-80 109.28,75.83z"/>
   <path fill="#FED32A" d="M4087.19 3015.44l-32.51 -54.34c-3.13,-10.01 -1.79,-17.74 -2.72,-29.2 -6.88,-2.65 -10.88,-1.59 -18.93,-6.52l-15.02 -13.95c-1.02,-1.09 -2.38,-3.22 -3.74,-4.68 -22.73,17.64 -9.41,22.63 -56.55,25.08l12.57 -19.02c51.16,-20.32 173.43,-150.27 224.04,-98.34 48.29,49.55 -96.83,197.35 -107.14,200.97z"/>
   <path fill="#FCFCFD" d="M1867.73 2493.52l-101.3 16.27c-19.33,-42.36 -98.19,-154.66 -104.81,-186.5l126.87 -20.03c16.66,54.53 70.99,137.26 79.24,190.26z"/>
   <path fill="#4687E9" d="M3455.52 3890.27c-20.23,13.48 -11.99,13.71 -29.89,27.34 3.83,-15.06 44.54,-79.38 58.44,-114.88 84.18,-214.97 -2.05,-446 -1.62,-454.01 90.91,22.9 103.89,170.7 85.48,281.03 -16.27,97.52 -57.21,205.49 -112.41,260.52z"/>
   <path fill="#4AD994" d="M443.92 3790.59c-38.2,-8.82 97.96,-10.86 112.61,-86.35 7.85,-40.45 4.75,-160.04 6.15,-212.85 1.96,-73.96 2.81,-146.53 4.13,-220.02 1.21,-67.34 7.6,-166.94 0.54,-230.3 47.01,-2.01 34.06,28.14 32.84,73.09 -1.07,39.58 -1.34,79.19 -2,118.78 -1.27,76.79 -2.97,155.69 -4.57,233.31 -1.29,62.4 2.86,175.87 -5.82,232.36 -6.8,44.28 -85.32,98.71 -143.89,91.99z"/>
   <path fill="#969699" d="M97.64 2907.24c-12.73,-33.05 3.33,-53.54 30.68,-52.88 18.9,3.98 84.55,46.45 124.71,61.36 53.29,19.79 98.1,24.96 159.25,34.28 -7.32,15.59 -24.39,35.76 -38,57.16 -73.96,4.93 -265.93,-52.75 -276.64,-99.92z"/>
   <path fill="#F8D638" stroke="#F8D638" stroke-width="4.75" stroke-miterlimit="22.9256" d="M2625.06 574.33c-5.85,37.23 4.89,9.23 -25.26,18.86 0,-60.24 12.13,-52.37 -6.29,-75.38 -19.69,27.29 -18.37,-20.74 -25.18,26.34l-21.21 -7.32c33.41,-3.22 19.27,-6.81 45.59,-14.11 -0.81,-32.52 4.19,-22.27 -11.39,-39.79l-25.57 -12.27 -40.73 42.49c-9.7,20.95 -14.14,4.52 -28.21,-3.49 -31.61,-18.01 -36.47,0.79 -37.93,2.77l-0.96 -19.81c49.74,-0.32 10.65,2.72 22.03,-10.9 6.08,-7.28 15.64,-33.06 11.26,-46.15 -8.72,-26.07 11.85,1.05 -9.22,-12.85 -7.79,-5.14 -19.66,-1.34 -24.35,3.49 0.54,-6.1 2.28,-9.65 0.51,-16.41 -5.03,-19.19 -2.31,-12.52 -11.84,-24.03l-8.92 18.41c-10.68,24.87 -1.62,21.38 -24.39,20.19 2.8,-0.97 7,25.73 8.14,-32.32l-30.19 9.51c13.01,-20.85 100.18,-89.41 124.27,-78.41 25.36,36.74 5.55,116.19 6.03,163.15 23.1,-11.31 42.88,-28.35 63.48,-43.8 104.6,-78.46 76.97,-19.42 50.33,131.81z"/>
   <path fill="#D3D3D4" d="M1889.62 4808.91c-17.88,41.39 -52.81,55.98 -6.57,113.73 -265.46,-14.37 -163.84,-162.4 -131.99,-182.37 19.14,9.29 11.92,10.23 31.13,27.75 34.59,31.54 72.62,30.42 107.42,40.89z"/>
   <path fill="#FCFCFD" d="M1746.54 2511.14l-83.31 7.38 -106.22 -134.32c-12.47,-15.36 -27.53,-27.51 -33.37,-48.93l116.12 -7.96c19.48,47.79 95.37,146.2 106.78,183.82z"/>
   <path fill="#043576" d="M3514.98 4102.98c7.69,-8.93 1.34,-3.82 12.35,-10.5 1.41,-0.86 2.97,-1.74 4.49,-2.51l79.85 -18.71c41.96,-3.05 74.1,-1.26 115.16,-9.2l16.27 -3.7 -122.06 165.03c-41.38,32.91 -32.1,29.57 -60.63,28.81 6.87,-72.86 -8.76,-102.82 15.69,-161.89l-61.13 12.68z"/>
   <path fill="#FCFCFD" d="M1889.38 2479.82l-83.9 -181.69c72.04,-15.38 137.62,-23.1 154.25,47.67 15.33,65.25 -26.38,119.25 -70.35,134.02z"/>
   <path fill="#FCFCFD" d="M463.65 2688.88c-56.46,28.13 -83.04,11.64 -127.05,-8.07 -0.75,-12.08 -2.46,-39.41 0.01,-50.54 6.29,-28.35 10.29,-10.54 23.15,-33.74 17.74,-32.02 -10.16,-56.52 46.9,-58.48 30.21,-1.04 56.19,18.06 60.87,42.47 2.72,14.19 -2.06,90.34 -3.88,108.36z"/>
   <path fill="#372604" d="M1976.24 2072.31c25.11,-58.24 26.55,-132.92 -18.01,-171.21 -36.17,-31.08 -120.13,-50.13 -171.72,-19.72l-14.73 -2.88c107.92,-81.02 280.89,3.36 238.08,166.7 -39.7,151.43 -254.18,149.73 -298.47,62.02 48.11,15.73 123.76,76.7 220.55,11.94 27.89,-18.66 24.37,-23.91 44.31,-46.85z"/>
   <path fill="#FED32A" d="M2030.17 239.96l4.58 26.22c-64.36,24.94 -30.24,30.04 -63.64,35.34l-24.4 -58.56c-4.44,-18.16 1.18,-36.48 -9.77,-54.73 -9.12,-15.2 -0.88,-5.46 -16.13,-16.19 -45.86,12.53 0.14,7.44 -42.35,44.93 -10.19,8.99 -5.23,8.36 -20.51,13.41 -5.87,-34.75 20.62,-20.19 31.6,-47.88 0.76,-1.92 2,-8.44 2.19,-10.61 1.97,-23.01 -1.03,-14.24 -2.39,-18.7l-26.09 9.09c11.19,-26.85 57.78,-79.82 88.99,-84.4 35.74,46.59 24.62,158.44 44.01,189.13 18.1,-13.97 12.57,-15.98 33.92,-27.04z"/>
   <path fill="#4687E9" d="M3743.1 4058.35l-16.27 3.7c-27.55,-10.57 -34.61,-38.53 -51.46,-62.35 -47.54,-67.22 -149.45,-179.48 -151.45,-182.64l18.84 -34.77c56.59,50.38 166.46,181.49 200.33,276.05z"/>
   <path fill="#D3D3D4" d="M4197.39 5211.17c-35.77,73.01 -138.08,87.44 -241.53,87.32l6.87 -8.39c1,-1.11 2.34,-2.68 3.45,-3.86 74.91,-79.63 38.46,-80.99 70.2,-113.87 -1.29,26.01 -6.17,28.15 16.7,40.89 10.45,5.82 31.08,11.17 42.83,12.78 44.2,6.04 64.15,-5.44 101.48,-14.87z"/>
   <path fill="#172538" d="M3897.54 4880.74c35.41,-155.84 -73.42,-244.37 -109.28,-75.83 -32.45,152.52 71.44,242.39 109.28,75.83zm-22.16 -176.54c90.64,53.29 37.97,327.87 -63.37,278.88 -90.86,-43.92 -41.85,-340.73 63.37,-278.88z"/>
   <path fill="#F47578" d="M2975.9 2474.08c3.33,19.01 -0.77,6.92 -17.53,9.23 -55.37,7.63 -93.17,-8.39 -233.25,25.97 -83.58,20.5 -205.3,74.99 -217.44,77.12l-11.74 -1.05c31.38,-34.61 163.95,-82.8 218.01,-98.66 40.81,-11.97 85.75,-20.52 129.29,-26.12 58.41,-7.51 95.11,-13.59 132.66,13.51z"/>
   <path fill="#65CDF5" d="M4120.41 4553.8c-77.84,-16.68 -188.01,-37.58 -268.73,-10.7l-33.17 5.22c95.78,-91.09 262.36,-44.51 374.74,-16.5 -27.86,7.45 -50.06,16.49 -72.84,21.98z"/>
   <path fill="#65CDF5" d="M2351.2 5138.3c-23.04,9.12 -1.04,11.1 -27.15,-70.2 -14.92,-46.47 -78.11,-177.87 -130.75,-183.63l29.27 -25.38c62.16,42.24 142.2,165.32 148.21,268.96l-19.58 10.26z"/>
   <path fill="#043576" stroke="#043576" stroke-width="4.75" stroke-miterlimit="22.9256" d="M3052.38 4454.7c0.53,-19.29 -2.08,-8.99 19.12,-26.68l-12.08 -50.18c16.96,-4.04 0.46,4.93 17.93,-6.68 25.01,-16.62 3.56,-33.16 43.67,-21.57 54.05,3.59 -9.49,-12.73 44.93,-9.39l-2.32 110.45 -111.26 4.06z"/>
   <path fill="#D3D3D4" d="M3693.68 4748.75l-9.67 104.82c-86.22,12.34 -115.28,-108.55 -89.29,-150.98 5.45,26.58 10.12,41.65 36.64,51.56 10.29,3.85 21.04,5.67 34.62,4.79l27.69 -10.2z"/>
   <path fill="#686768" d="M311.57 2911.78c13.2,-12.67 5.47,-2.72 8.92,-24.18 1.6,-9.98 -0.58,-12.74 2.97,-26.48 4.47,-17.35 12.74,-27 21.09,-35.28 17.9,106.48 107.11,44.38 184.06,52.08 -37.29,6.89 -62.04,42.44 -88.38,50.77 -27.77,8.79 -105.24,-0.02 -128.66,-16.91z"/>
   <path fill="#BC1A1A" d="M2184.73 3193.14l9.64 -35.31c-38.64,16.57 -44.5,70.32 -91.22,101.08 8.74,-51.98 26.25,-3.89 31.37,-69.26 -29.54,1.54 -27.11,5.54 -54.51,6.99l-2.03 52.97c-3.1,1.64 -3.12,20.84 -16.66,-3.29 -4.19,-7.46 -4.8,-23.67 -2.05,-33.49 4.71,-16.8 25.3,-35.41 41.07,-42.67 23.78,-10.95 26.03,0.15 48.79,-15.19l8.1 -6.83c1.48,-1.5 5.33,-6.23 6.44,-7.95 18.16,-28.07 -7.38,-30.98 30.11,-47.51l15.55 15.73c10.08,13.96 4.95,9.99 5.54,20.07l0.58 7.49c0.06,2.09 3.54,12.63 -6.65,30.4 -12.15,21.18 -6.38,18.88 -24.05,26.75z"/>
   <path fill="#FCE789" d="M3554.42 4422.8l-2.08 10.93c-19.92,-57.8 -27.26,-72.61 -33.67,-139.14 -5.53,-57.37 -4.84,-112 -10.08,-171.58l34.57 -9.12c1.55,53.8 -1.91,108.74 -0.51,163.45 1.27,49.75 10.74,101.77 11.77,145.45z"/>
   <path fill="#E3AE25" d="M3910.8 2924.74c-18.21,-11.08 -31.62,-26.44 -42.28,-43.16 7.77,-24.99 24.64,-48.34 37.59,-70.45 13.67,-23.36 27.37,-48.53 48.33,-62.03 -0.04,29.64 6.3,61.7 -8.48,95.55 -5.33,12.2 -33.25,77.69 -35.16,80.1z"/>
   <path fill="#DCB228" d="M460.25 2495.34c16.5,44.7 46.78,30.48 110.26,76.83 31.64,23.1 66.18,68.54 55.97,108.35 -5.09,19.84 8.22,9.21 -12.78,15.79 1.7,-63.6 -35.76,-93.54 -81.89,-116.83 -40.07,-20.23 -75.95,-28.01 -82.22,-63.74 -1.01,-5.74 -1.33,-17.69 -0.19,-23.29 6.23,-30.46 -1.57,-8.66 9.05,-18.42l1.8 21.31z"/>
   <path fill="#FEE578" d="M1976.24 2072.31c-7.63,-16.6 12.22,-42.42 -0.22,-87.49 -16.33,-59.14 -35.25,-63.16 -68.68,-81.98 -66.17,-37.28 -63.17,-7.32 -120.83,-21.46 51.59,-30.42 135.55,-11.36 171.72,19.72 44.56,38.3 43.12,112.97 18.01,171.21z"/>
   <path fill="#DCB228" d="M589.86 2885.2c-0.61,-1.59 4.37,-24.01 -45.66,-29.24 -70.76,-7.4 -147.86,47.6 -173.84,-13.48 104.2,0.97 56.66,-8.23 124.38,-15.06 73.27,-7.4 69.6,26.96 105.83,35.34 0,50.61 1.92,6 -10.71,22.45z"/>
   <path fill="#351905" d="M1921.37 1982.61c-8.19,13.17 12.01,24.73 -24.67,-0.19 -12.5,-8.49 -7.53,-8.24 -25.23,-12.11 0.52,29.53 -6.33,49.92 -13.44,72.29l-36.2 16.84c13.45,-42.79 35.24,-24.16 28.28,-94.33 -51.67,-3.04 -68.81,26.9 -100.46,44.98 14.05,-61.98 89.06,-81.37 137.63,-56.57 24.47,12.49 17.32,14.14 34.1,29.08z"/>
   <path fill="#FCE789" d="M2123.3 4737.4c-7.54,-9.75 -3,2.27 -7.08,-14.26 -7.68,-31.05 -5.09,-169.45 -13.84,-195.68 12.03,-15.56 9.8,-19.73 29.04,-22.48 -2.02,63.1 19.94,193.21 -8.11,232.42z"/>
   <path fill="#6F6F70" d="M324.22 2696.21c-25.78,-6.81 -39.13,1.24 -65.18,13.25 -18.53,8.55 -36.63,19.43 -51.77,30.28 -29.9,21.44 -64.55,62.36 -65.63,90.87l-18.37 -10.24c-1.78,-68.67 116.5,-137.97 194.89,-141.09l6.05 16.92z"/>
   <path fill="#4E1412" d="M2184.73 3193.14c-26.68,17.41 -94,157.27 -145.37,155.13 -1.64,-24.37 -2.43,-12.07 12.1,-28.17 12.38,-13.72 49.74,-44.29 51.69,-61.19 46.72,-30.76 52.58,-84.51 91.22,-101.08l-9.64 35.31z"/>
   <path fill="#FCE789" d="M3664.66 4488.06c-2.21,-17.3 -7.65,-21.09 -19.95,-28.63 -11.47,-7.03 -25.47,-13.31 -36.91,-20.36 -6.59,-4.06 -29.23,-20.04 -32.62,-23.77 -2.67,-2.94 -9.47,-10.21 -10.83,-18.54 -8.22,-50.05 0.5,-20.99 9.84,-30.93 19.62,34.86 71.92,73.64 122.45,84.34 -10.38,18.44 0.34,2.65 -10,14.75 -6.06,7.09 -2.15,1.61 -10.45,9.66 -7.79,7.55 -6.53,5.09 -11.51,13.48z"/>
   <path fill="#FEE578" d="M3986.49 2887.38c-6.81,-3.59 -10.4,5.56 -3.25,-30.26 7.59,-37.98 18.73,-55.23 7.95,-108.8l-25.84 -10.57c31.87,-33.91 55.1,0.43 46.79,74.47 -5.88,52.38 -4.5,59.25 -25.66,75.16z"/>
   <path fill="#E3AE2B" d="M1921.37 1982.61c1.6,1.47 2.58,2.52 2.81,5.9 1.86,27.08 7.13,-4.63 -3.96,48.51l-62.19 5.59c7.12,-22.36 13.96,-42.76 13.44,-72.29 17.71,3.87 12.73,3.61 25.23,12.11 36.68,24.92 16.48,13.36 24.67,0.19z"/>
   <path fill="#6F6F70" d="M128.33 2854.35c-27.36,-0.65 -43.42,19.84 -30.68,52.88 -59.06,-34.34 -31.7,-77.74 6.32,-86.66l24.37 33.78z"/>
   <path fill="#271B27" stroke="#271B27" stroke-width="4.75" stroke-miterlimit="22.9256" d="M2323.08 3649.57c-2.57,-20.03 2.75,-16.51 20.94,-30.69 27.52,-21.45 67.47,-69.19 100.28,-70.13l-87.08 83.17c-2.55,2.2 -11.54,11.01 -13.31,12.09 -5.28,3.21 11.63,12.9 -20.84,5.56z"/>
  </g>
 </g>
</svg>
