<svg xmlns="http://www.w3.org/2000/svg" xml:space="preserve" width="2cm" height="2.01819cm" version="1.1" shape-rendering="geometricPrecision" text-rendering="geometricPrecision" image-rendering="optimizeQuality" fill-rule="evenodd" clip-rule="evenodd"
viewBox="0 0 1869.63 1886.46"
 xmlns:xlink="http://www.w3.org/1999/xlink">
 <g id="Layer_x0020_1">
  <metadata id="CorelCorpID_0Corel-Layer"/>
  <g id="_1612295300416">
   <path fill="#EA599E" d="M905.39 1654.24c-4.99,-19.88 -0.23,-32.39 19.58,-33.61 20.07,-1.24 23.69,7.77 36.96,20.38 12.52,11.9 52.77,35.67 56.75,49.83 11.45,40.71 -42.13,34.69 -62.68,18.96 -13.42,-10.27 -46.21,-37.99 -50.61,-55.55zm-65.09 -143.79c-7.61,7.59 -26.75,10.72 -39.17,12.94 -24.28,4.35 -21.37,6.86 -39.41,14.8 -35.66,15.69 -73.2,1.2 -45.19,-33.38 20.69,-25.55 96.45,-45.55 118.65,-32.69 12.96,7.51 14.97,28.51 5.12,38.33zm98.58 27.26c-14.5,-33.4 11.2,-50.44 31.97,-70.03 15.89,-14.99 45.22,-55.86 67.68,-33.39 21.33,21.33 -16.26,60.84 -26.06,71.24 -20.2,21.42 -38.43,44.24 -73.59,32.18zm-336.31 -328.02c15.59,-12.83 32.51,-6.25 36.59,11.56 3.7,16.16 -0.35,33.6 -3.86,47.69 -6.19,24.82 -21.82,60.21 -39.45,68.39 -51.41,23.83 -34.72,-34.95 -26.31,-53.86 11.06,-24.87 12.02,-56.48 33.03,-73.77zm1040.48 -139.44c19.48,52.88 -31.16,159.97 -68.59,123.54 -18.06,-17.58 9.95,-61.96 15.48,-78.11 10.5,-30.64 16.49,-60.31 53.11,-45.43zm-1196.84 25.51c6.56,-17.54 6.94,-24.53 17.39,-40.03 29.69,-5.68 35.18,-0.9 31.24,31.87 -1.89,15.69 -7.7,30.19 -13.42,43.45 -16.43,38.08 -52,58.22 -60.27,19.36 -32.54,-1.74 -37.98,-2.35 -62.72,-16.86l3.06 -31.08c26.6,-11.55 50.96,-5.77 84.72,-6.7zm1122.56 -144.17c42.62,-14.07 39.77,23.11 17.76,41.76 -76.84,65.11 -178.45,11.27 -17.76,-41.76zm-258.05 -143.6c0,-40.61 34.38,-49.26 46.56,-26.41 7.54,14.13 1.23,38.07 8.98,74.22 10.75,50.14 -23.43,52.31 -38,36.75 -13.99,-14.94 -17.54,-62.29 -17.54,-84.56zm239.58 -122.54c51.5,-32.34 40.8,87.71 15.78,106.45 -7.79,5.83 -25.1,10.19 -33.1,-1.59 -6.78,-9.99 -2.57,-92.38 17.32,-104.87zm-70.33 -204.14c16.32,-6.61 36.71,-7.6 39.17,15.59 1.61,15.2 -8.4,26.39 -15.65,35.71 -9.8,12.6 -28.98,51.71 -41.41,57.31 -57.27,25.79 -30.67,-88.94 17.89,-108.61zm-259.5 84.39c-10.3,-1.78 -14.58,-7.05 -20.36,-13.64 -34.03,-38.83 -80.42,-78.31 -61.26,-105.27 21.68,-30.51 63.76,20.03 73.82,30.44 19.97,20.66 41.26,41.97 34.98,82.74 -12.59,4.59 -11.19,8.49 -27.17,5.72zm245.85 -224.23c41.43,-24.91 107.53,91.34 73.48,113.69 -28.8,18.9 -42.8,-30.43 -52.42,-44.76 -8.16,-12.14 -49.51,-51.83 -21.06,-68.93zm-185.16 -22.56c10.1,8.52 19.88,7.85 34.58,9.45 56.26,6.1 138.38,61.2 138.72,111.88 -42.02,4.9 -41.57,-32.73 -92.44,-27.15 -61.01,6.69 -55.45,17.72 -93.84,-19.15 -22.22,-21.34 -39.25,-40.12 -79.58,-43.54 -38.77,-3.29 -67.87,10.6 -112.07,3.85 -36.3,-5.54 -76.19,-4.97 -116.15,-5.91 -43.32,-1.01 -69.45,-8.54 -110.03,-10.87 -148.85,-8.57 -129.62,48.68 -201.62,36.36 1.71,19.62 4.61,56.81 13.63,68.5l3.52 6.33c0.44,1.01 1.01,2.1 1.44,3.22 4.14,10.73 1.49,13.93 7.04,23.73 20.3,-9.42 8.69,-0.65 21.43,-31.84 2.35,-5.75 3.04,-7.53 9.65,-11.79l8.42 -4.45c0.82,-0.44 5.11,-2.7 6.24,-3.37l23.76 0.02c42.12,17.91 -6.03,95.04 -6.57,122.67 16.13,-0.25 69.21,-7.72 80.99,-18.69 12.51,-11.65 13.11,-26.04 27.23,-34.27 4.93,-5.32 15.33,-17.8 19.09,-23.66 11.79,-15.51 18.19,-12.08 36.35,-7.81 16.63,33.27 -3.54,66.07 28.38,77.15 13.58,4.71 33.18,4.23 51.01,4.02 21.87,-0.26 23.24,-6.82 39.89,-15.04 18.85,-3 18.22,-38.55 58.16,-19.75 19.31,44.78 -37.66,83.08 -57.94,102.39 23.68,16.02 69.5,-0.25 127.51,32.76 32.7,18.61 60,50.59 71.66,89.72 13.51,45.35 22.38,78.24 46.36,115.47 24.57,38.14 45.03,68.33 28.97,126.18 12.14,-11.84 7.42,-20.04 12.57,-33.32l3.68 -7.18c0.54,-1.09 1.29,-2.51 2.18,-3.59 19.75,38.01 7.77,64.78 -2.99,101.2 -12.04,40.77 0.51,73.6 8.72,107.37 19.65,-12.29 21.81,-31.28 56.46,-18.53 11.19,31.09 -5.49,43.49 -36.14,85.26 -31.2,42.52 -70.25,33.97 -53.41,-18.5 -11.87,19.96 -4.47,23.76 -10.77,39.33 -4.85,6.76 -105.75,56.01 -159.77,97.85 -16.8,13.01 -29.7,33.22 -56.33,32.49 17.25,12.46 50.3,1.45 77.74,17.67 10.47,58.25 -87.76,40.11 -109.14,26.76 -16.74,-10.44 -19.18,-14.43 -16.05,-36.64l-35.28 11.86c-27.82,2.28 -63.1,-8.51 -84.76,-24.39l-15.19 -10.43c3.27,26.58 -6.21,41.61 -36.96,31.79 -17.65,-5.64 -23.9,-23.6 -39.34,-33.43l6.93 16.13c-120.47,-3.89 -118.71,-113.24 -172.5,-176.13 -26.6,-31.1 -44.44,-37.43 -48.07,-65.88 3.98,-4.45 -6.95,-4.79 8.42,-2.99 -11.01,-13.91 -15.23,-10.64 -23.59,-17.66 -12.03,-10.1 -33.05,-46.35 -34.92,-73.7 -1.99,-29.09 2.79,-71.29 -8.82,-98.67l-11.18 -32.21c-28.54,-1.66 -84.55,42.18 -107.25,5.39 -4.1,-6.65 -9.85,-33.24 2.12,-40.33 6.88,-4.58 13.43,-13.24 18.73,-18.21 7.07,-6.62 11.57,-9.66 18.96,-16.56 11.27,-10.51 24.14,-24.53 34.74,-33.75 5.23,-5.64 0.08,-1.66 8,-5.76 7.35,-3.8 1.07,-0.31 8.94,-3.21 28.47,-10.49 28.72,-35.81 46.58,-71.57 26.54,-53.15 24.68,-85.31 106.85,-117.99 3.26,-25.39 2.81,-44.23 4.52,-68.92 -40.33,19.5 -56.33,-55.94 -58.55,-90.98 -9.33,7.81 -11.26,17.05 -21.17,26.17 -8.36,7.7 -18.02,11.91 -28.19,19.03 -31.74,22.23 -67.82,86.71 -86.54,102.52 -29.07,24.53 -33.3,-17.91 -67.6,-4.54 10.44,30.21 36.75,57.33 24.92,87.86 -40.63,16.88 -55.53,-21.58 -67.78,-48.35 -13.84,-30.25 -27.97,-86.04 31.96,-62.64l-8.55 -6.9c4.9,-18.36 8.84,-30.98 -2.05,-47.48 8.26,48.89 -17.73,36.05 -67.02,52.97 -12.37,4.25 -75.64,47.74 -69.08,-19.96 -8.42,11.61 -9.86,27.99 -3.3,40.59 13.93,26.79 53.02,3.54 63.39,0.14 10.2,-3.35 24.19,-6.14 34.89,-7.45l0.59 15.89 -19.47 3.49c-8.68,1.24 -14.31,2.31 -20.48,4.43 -31.5,10.84 -60.03,36.38 -71.7,70.96l-11.26 0.02c13.74,25.73 9.01,65.98 15.98,99.44 8.98,43.09 -13.25,52.57 -31.78,43.81 -12.83,-6.06 0.17,0.86 -9.49,-7.35 -7.37,-6.26 1.33,-0.48 -7.18,-6.27 9.18,43.6 1.37,34.74 -18.58,66.27 -33.54,52.99 -23.13,31.11 -35.24,48.1 26.91,-15.02 53.69,-50.6 95.88,-32.55 12.67,42.02 -21.59,42.97 -44.8,63.44 -21.89,19.31 -35.76,48.29 -72.02,32.42l-0.25 -29.45c-5.59,9.52 -6.61,22.78 -7.39,34.2 -0.28,4.19 -0.63,15.04 -1.31,18.39 -4.64,22.83 0.49,8 -7.07,15.56 4.54,18.98 33.87,58.29 47.35,73.04 4.78,5.24 7.41,7.62 14.5,13.15l18.31 13.52c18.07,12.38 -0.19,5.33 18.09,2.21 16.24,-2.77 14.64,-3.68 25.83,4.82 10.36,19.18 7.77,12.77 14.67,36.22 3.88,13.19 9.4,25.16 14.9,34.47 16.01,11.11 20.07,30.5 19.81,49.08 -0.17,12.35 -2.79,17.47 -2.45,25.9 0.91,22.27 4.17,3.32 6.15,27.29 2.78,33.66 1,76.41 25.67,115.08 10.17,-13.02 0.21,-1.25 12.91,-8.19 9.69,-2.88 15.03,-13.46 24.63,-22.25 16.36,-14.97 18.27,-9.97 40.49,-11.81 10.75,4.03 11.28,1.49 13.01,17.87 3.25,30.85 -14.43,43.06 -12.5,74.89 44.12,24.05 12.64,12.91 76.23,41.72 16.75,7.59 27.97,8.36 44.94,14.65l46.9 14.16c0.82,17.51 -3.95,15.61 -21.83,23.03 -6.46,2.68 -9.65,4.26 -13.92,6.49 0.38,1.23 1.52,1.5 1.86,3.38 0.33,1.8 1.37,2.45 1.82,3.21 12.18,21 5.88,19.29 17.68,34.72 20.74,27.11 7.57,15.93 33.16,34.14 16.8,11.95 -0.21,9.34 27.56,18.53 -5.41,-30.53 -18.61,-47.44 -0.76,-68.37 20.54,-5.98 16.93,-17.23 41.48,4.78l54.95 55.46c2.93,2.92 2.5,2.32 5.55,6.03 10.13,12.31 6.17,10.07 18.82,20.72 55.72,46.9 99.2,3.6 190.64,49.28 29.37,14.67 39.36,14.88 57.14,22.38 14.17,5.97 8.59,8.29 27.99,11.7 50.52,8.9 54.52,4.99 96.75,-18.16 -2.2,-27.9 -3.15,-11.84 0.5,-21.82 3.24,-8.88 0.64,-4.19 6.14,-9.75 21.67,-26.88 48.02,-34.84 73.85,-55.62 20.84,-12.48 46.9,-2.67 63.55,-2.04l116.81 -31.85c12.26,-7.05 10.67,-6.39 18.7,-17.05 7.61,-10.11 11.62,-14.72 14.91,-27.98 -40.39,-3.24 -32.87,5.79 -53.35,20.91 -12.62,9.32 -35.93,14.68 -49.51,9.32 -23.92,-9.43 -19.36,-41.22 -5.95,-55.66 38.61,-45.64 -10.77,-75.42 13.3,-94.49 26.13,-20.7 58.97,60.25 78.01,74.81 8.03,13.61 4.69,22.72 12.11,33.82 20,-7.56 5.67,-2.2 15.53,-14.82l47.85 -37.36c0.78,-0.48 1.92,-0.87 2.68,-1.4 0.77,-0.54 1.84,-1.05 2.56,-1.66 9.13,-7.67 3.14,-2.39 7.07,-9.96 6.69,-12.88 -5.29,-2.78 10.68,-15.96 29.27,-24.16 7.04,-12.59 26.21,-34.9 12,-6.18 26.78,-31.86 35.02,-45.22 17.6,-28.53 14.66,-28.75 51.98,-35.46 20.25,-1.79 14.9,7.49 18.03,-1.34 13.05,-3.68 2.73,4.85 11.36,-15.01 26.93,-61.92 25.98,-87.25 82.18,-119.9l43.2 -39.4c14.65,-22.31 17.31,-52.4 7.73,-70.8 -5.57,-10.7 -13.76,-9.8 -21.02,-22.66 -5.61,-9.94 -1.47,-0.33 -4.72,-12.88l-5.66 -15.66c-11.19,-11.99 -17.14,-41.37 -17.79,-59.12 -1.03,-28.21 11.41,-35.37 35.26,-42.11 -15.67,-3.99 -3.88,-33.8 -3.62,-56.02 0.29,-25.24 0.08,-45.58 5.17,-67.08 9.03,-38.09 7.34,-9.91 6.89,-62.98 -0.21,-24.55 2.68,-43.56 -4.86,-65.16 -9.13,-26.14 -10.48,-26.38 -24.41,-45.88 -17.43,-24.41 -64.96,-65.3 -75.15,-102.74l-10.23 -32.32c-22.2,-61.73 20.75,-76.3 -68.35,-175.61 -13.33,-14.86 -52.8,-32.93 -70.98,-37.02 -25.56,-5.74 -32.63,-12.59 -57.82,-4.69 -18.51,5.8 -108.6,19.63 -129.45,17.64z"/>
   <path fill="#CC3B83" d="M1023.96 117.68c39.73,0.34 77.85,3.73 107.42,19.05 70.86,36.72 22.97,-0.7 96.93,72.71 4.9,4.87 6.94,7 11.61,11.77 2.66,2.71 3.23,3.28 5.9,6.02 13.44,13.8 14.48,17.56 34.52,24.12 -3.12,8.53 1.06,3.52 -6,13.41 102.19,-48.29 138.97,-13.48 112.53,13.23 -11.02,11.14 -33.31,9.59 -48.68,14.02 -29.15,8.4 -35.69,15.73 -74.26,10.13 5.16,12.22 -0.02,3.67 9.73,12.09 0.33,0.28 7.49,4.65 7.49,4.66 20.85,1.99 110.94,-11.84 129.45,-17.64 25.19,-7.9 32.26,-1.05 57.82,4.69 18.18,4.09 57.65,22.16 70.98,37.02 89.09,99.31 46.14,113.88 68.35,175.61l10.23 32.32c10.19,37.44 57.72,78.33 75.15,102.74 13.93,19.5 15.29,19.74 24.41,45.88 7.54,21.6 4.65,40.61 4.86,65.16 0.45,53.07 2.13,24.89 -6.89,62.98 -5.09,21.5 -4.88,41.83 -5.17,67.08 -0.25,22.22 -12.05,52.03 3.62,56.02 -23.85,6.74 -36.29,13.9 -35.26,42.11 0.65,17.75 6.61,47.13 17.79,59.12 -7.17,-38.6 -25,-60.07 0.04,-89.55 36.6,-3.37 34.3,20.09 45.05,48.51 10.04,26.54 26.82,39.78 19.75,64.51 -12.83,44.83 -58.15,-7.2 -59.18,-7.81 3.26,12.55 -0.89,2.95 4.72,12.88 7.26,12.86 15.45,11.96 21.02,22.66 9.58,18.4 6.92,48.49 -7.73,70.8l-43.2 39.4c-56.21,32.65 -55.25,57.98 -82.18,119.9 -8.63,19.86 1.69,11.33 -11.36,15.01 -3.13,8.82 2.22,-0.46 -18.03,1.34 22.05,40.56 -2.7,66.71 -24.87,97.57 -20.17,28.08 -81.31,54.21 -62.12,-16.9 -19.18,22.3 3.06,10.73 -26.21,34.9 -15.97,13.18 -3.99,3.09 -10.68,15.96 -3.93,7.56 2.06,2.28 -7.07,9.96 -0.72,0.61 -1.79,1.13 -2.56,1.66 -0.76,0.53 -1.9,0.92 -2.68,1.4l-47.85 37.36c-9.86,12.62 4.47,7.26 -15.53,14.82 -7.42,-11.1 -4.08,-20.2 -12.11,-33.82l-1.02 27.53c-15.5,8.68 -22,4.7 -36.51,1.75 -8.5,14.01 -13.28,33.17 -33.24,36.32 -34.33,5.41 -25.12,-24.17 -20.54,-45.92 -13.41,14.44 -17.98,46.23 5.95,55.66 13.57,5.35 36.88,-0 49.51,-9.32 20.49,-15.12 12.96,-24.15 53.35,-20.91 -3.29,13.26 -7.3,17.88 -14.91,27.98 -8.03,10.66 -6.44,10 -18.7,17.05l-116.81 31.85c-16.65,-0.62 -42.71,-10.44 -63.55,2.04 69.66,-8.7 32.56,47.56 5.4,66.15 -22.09,15.11 -88.44,53.96 -79.24,-10.52 -5.51,5.56 -2.9,0.86 -6.14,9.75 -3.65,9.98 -2.7,-6.08 -0.5,21.82 -42.23,23.14 -46.23,27.06 -96.75,18.16 -19.4,-3.42 -13.82,-5.73 -27.99,-11.7 -17.78,-7.5 -27.77,-7.71 -57.14,-22.38 -91.43,-45.68 -134.92,-2.37 -190.64,-49.28 -12.64,-10.64 -8.69,-8.41 -18.82,-20.72 -3.05,-3.7 -2.62,-3.11 -5.55,-6.03l-54.95 -55.46c6.86,18.98 16.12,34.03 25.82,49.01 11.94,18.45 21.34,28 12.02,54.12 -53,20.29 -86.08,-56.74 -79.32,-107.9 -17.85,20.93 -4.64,37.84 0.76,68.37 -27.77,-9.19 -10.76,-6.57 -27.56,-18.53 -25.59,-18.21 -12.42,-7.03 -33.16,-34.14 -11.8,-15.43 -5.5,-13.72 -17.68,-34.72 -0.44,-0.76 -1.49,-1.41 -1.82,-3.21 -0.34,-1.88 -1.48,-2.15 -1.86,-3.38 4.27,-2.23 7.47,-3.81 13.92,-6.49 17.89,-7.42 22.65,-5.52 21.83,-23.03l-46.9 -14.16c-16.97,-6.29 -28.19,-7.06 -44.94,-14.65 -63.59,-28.8 -32.11,-17.67 -76.23,-41.72 -1.93,-31.83 15.75,-44.04 12.5,-74.89 -1.73,-16.38 -2.26,-13.84 -13.01,-17.87 15.99,34.64 -12.04,49.14 -25.63,73.3 -16.18,28.78 -18.14,57.59 -56.35,27.33 -5.34,-37.73 6.59,-40.3 16.86,-66.58 -12.7,6.94 -2.74,-4.83 -12.91,8.19 -24.67,-38.67 -22.89,-81.42 -25.67,-115.08 -1.98,-23.97 -5.24,-5.02 -6.15,-27.29 -0.34,-8.43 2.28,-13.54 2.45,-25.9 0.26,-18.58 -3.8,-37.97 -19.81,-49.08 9.29,21.9 17.16,20.56 8.74,46.01 -10.1,5.01 -15.27,6.39 -31.49,5.2 -16.97,-18.59 -25.93,-29.78 -36.9,-61.54 -10.72,-31.05 -15.72,-66.17 30.09,-60.36 -11.19,-8.5 -9.6,-7.59 -25.83,-4.82 -18.28,3.12 -0.02,10.17 -18.09,-2.21l-18.31 -13.52c-7.09,-5.53 -9.71,-7.91 -14.5,-13.15 -13.48,-14.75 -42.81,-54.06 -47.35,-73.04 -3.51,-16.3 0.21,-3.5 -7.27,-9.3 2.96,48.78 34.01,77.65 54.08,114.8 33.29,61.63 15.51,94.61 35.92,128.89 23.53,39.5 44.42,50.46 56.07,108.68 10.02,50.05 15.28,86.86 41.48,120.53 40.84,52.49 59.43,49.37 94.17,71.08 135.07,84.39 119.81,237.58 228.44,262.31 97.83,22.27 175.13,-38.75 289.99,-27.75 98.28,9.41 136.51,89.79 249,70.97 50.17,-8.4 70.75,-38.4 96.05,-70.46 101.68,-128.8 144.47,-59.17 201.73,-128.7 37.68,-45.76 36.12,-42.54 91.69,-69.62 40.17,-19.57 64.89,-44.69 80.65,-84.96 19.78,-50.54 35.05,-62.86 62.34,-102.84 22.98,-33.66 37.47,-73.24 60.56,-104.61 40,-54.33 131.89,-109.58 98.88,-219.38 -14.51,-48.27 -46.82,-53.58 -46.37,-118.38 0.55,-80.1 -11.75,-91.02 8.05,-149.76 29.99,-88.97 -38.81,-136.28 -95.79,-215.98 -65.81,-92.04 -26.01,-157.88 -103.5,-227.03 -24.77,-22.11 -67.93,-52.23 -101.19,-60.55 -55.73,-13.94 -67.75,-33.52 -105.48,-59.43 -95.3,-65.44 -65.2,-30.65 -109.17,-56.43 -62.23,-36.48 -80.89,-69.29 -178.65,-67.7 -12.83,0.21 -23.11,1.05 -34.59,3.09l-31.57 9.54z"/>
   <path fill="#1A0C0A" d="M713.59 1811.68c18.16,-16.02 128.87,-30 164.16,-25.25 20.16,2.71 122.74,37.92 135.09,58.29 -39.01,12.07 -120.34,8.36 -159.81,-4.49 -20.74,-6.76 -138.08,-27.72 -139.44,-28.54zm984.48 -402.79c1.39,-34.72 13.1,-19.25 16.2,-35.48 3.83,-20 2.01,-4.08 -2.09,-9.9 -8.75,16.79 -18.52,21.49 -21.32,35.77 -5.91,30.23 -0.66,24.09 -15.47,48.91 -38.28,64.13 -109.87,160.1 -187.18,179.16 13.47,8.56 8.28,-1.44 15.26,10.56 -15.32,7.78 -57.32,43.45 -74.93,55.73 -37.33,26.02 -55.06,47.16 -86.17,35.5 -14.83,34.41 -68.22,64.69 -112,69.02 11.8,-29.76 37.32,-53.29 61.44,-72.37 34.19,-27.06 59.93,-22.76 97.46,-36.29 38.91,-14.03 46.69,-34.07 70.8,-58.88 29.65,-30.5 106.2,-39.88 148.63,-115.02 12.94,-22.92 21.84,-63.54 42.47,-91.56 58.02,-78.78 59.4,-100.66 88.38,-139.79 12.78,-17.26 11.13,-13.96 22.7,-18.24 0.09,35.26 -20.37,88.8 -36.27,114.96 -21.93,36.07 -13.73,23.74 -27.91,27.92zm114.09 -519.52l16.84 -11.6c0.94,-0.57 2.31,-1.46 3.56,-1.99 1.66,35.87 7.28,84.69 -0.33,121.27 -2.94,14.13 2.29,-6.1 -1.72,7.19l-4.18 10.03c-41.7,-12.54 -30.13,-95.97 -31.34,-123.62 -1.43,-32.61 -6.38,-44.88 1.77,-75.97 5.1,-19.46 8.77,-46.8 17.77,-62.09 26.86,38.85 -2.31,128.65 -2.37,136.79zm-1328.01 839.16c-33.09,-6.15 -168.47,-111.31 -189.33,-140.74 -9.79,-13.81 -4.27,-2.62 -9.55,-18.78 41.82,-0.84 22.64,2.71 46.83,24.58 14.73,13.32 26.85,27.1 37.65,29.37 -4.25,-17.15 -18.38,-27.27 -29.11,-37.75 -14.1,-13.77 -17.8,-25.81 -41.53,-28.25 -58.54,-6.01 -118.17,-97.97 -135.49,-149.52 -6.35,-18.9 -14.63,-28.83 -21.3,-48.92 -7.48,-22.5 -12.35,-30.35 -22.66,-48.06 -22.06,-37.86 -64.55,-164.78 -70.29,-210.65 -6.85,-54.68 -19.87,-139.46 -6.54,-191.26 5.59,-21.73 13,-27.74 22.44,-45.45 -6.17,-1.75 1.07,1.56 -5.12,0.32l-12.86 -4.26c0,-43.39 14.41,-61.92 19.36,-102.5 2.94,-24.18 10.6,-80.9 23.92,-93.75 6.82,10.81 16.04,57.42 19.13,74.75 19.34,108.49 -56.98,132.17 -47.58,243.69 5.98,70.98 35.92,87 60.88,132.56 30.24,55.22 3.81,92.12 47.89,149.33 73.84,95.82 20.93,179.39 132.22,257.18 35.79,25.02 64.32,26.7 111.05,81.79 17.91,21.11 65.22,94.3 70.03,126.34zm539.81 -1610.85l31.57 -9.54c11.48,-2.04 21.76,-2.88 34.59,-3.09 97.76,-1.59 116.42,31.22 178.65,67.7 43.97,25.78 13.87,-9.01 109.17,56.43 37.73,25.9 49.75,45.49 105.48,59.43 33.26,8.32 76.41,38.44 101.19,60.55 77.49,69.15 37.68,134.99 103.5,227.03 56.98,79.7 125.78,127 95.79,215.98 -19.8,58.74 -7.5,69.66 -8.05,149.76 -0.45,64.81 31.86,70.11 46.37,118.38 33.01,109.8 -58.88,165.05 -98.88,219.38 -23.09,31.36 -37.58,70.95 -60.56,104.61 -27.3,39.98 -42.57,52.3 -62.34,102.84 -15.76,40.27 -40.47,65.39 -80.65,84.96 -55.57,27.07 -54.01,23.86 -91.69,69.62 -57.26,69.53 -100.05,-0.1 -201.73,128.7 -25.31,32.05 -45.89,62.06 -96.05,70.46 -112.48,18.82 -150.72,-61.56 -249,-70.97 -114.86,-11 -192.17,50.02 -289.99,27.75 -108.63,-24.73 -93.36,-177.91 -228.44,-262.31 -34.74,-21.71 -53.33,-18.59 -94.17,-71.08 -26.2,-33.68 -31.46,-70.49 -41.48,-120.53 -11.65,-58.22 -32.54,-69.18 -56.07,-108.68 -20.42,-34.28 -2.63,-67.25 -35.92,-128.89 -20.07,-37.15 -51.12,-66.02 -54.08,-114.8 -2.15,-127.61 33.9,-120.23 46.5,-192.15 10.87,-62.1 -22.45,-136.17 -13.52,-215.86 6.77,-60.44 39.58,-132.16 71.69,-168.13 42.56,-47.67 93.43,-58.2 160.55,-76.82 137.24,-38.07 142.95,-141.63 265.42,-213.43 61.58,-36.1 128.75,-27.99 201.42,-10.85 132.22,31.19 170.38,1.98 210.73,3.56zm-622.48 154.03c9.53,-16.38 6.43,-21.08 20.78,-37.3 23.51,-26.56 68.65,-63.38 105.44,-68.47 -8.66,17.3 -103.57,125.77 -151.26,144.41 -14.19,5.54 -63.86,18.3 -78.04,18.58 16.43,-24.52 68.06,-61.18 91.26,-72.26 0.6,0.86 0.96,2.29 1.3,2.88 0.32,0.58 0.95,2.09 1.36,2.75 11.58,18.86 -3.77,6.09 9.15,9.4zm332.66 -187.96c4.32,-14.06 28.3,-12.3 51.12,-14.16 86.46,-7.05 109.37,-25.14 163.27,-28.37 87.92,-5.26 143.91,21.93 228.38,27.28 93.15,5.89 100.08,49.75 179.09,76.82 54.44,18.65 74.3,32.89 108.35,80.33 20.94,29.16 20.81,17.83 27.4,42.74 -52.39,-3.8 -56.84,-23.45 -88.26,-44.73 -126.18,-85.45 -68.98,-28.56 -156.91,-87.72 -118.34,-79.61 -187.06,-39.46 -299.27,-25.43 -61.94,7.74 -111.07,-9 -162.57,-19.55 -16.14,-3.31 -35.78,-1.85 -50.6,-7.2zm248.04 -69.93c-26.07,3.68 -81.04,9.81 -100.87,15.47 -81.57,23.25 -104.72,11.03 -186.43,44.83 -34.49,14.27 -57.01,6.32 -93.74,24.81 -54.78,27.58 -17.62,21.17 -75.31,38.35 -96.18,28.65 -97.92,68.13 -140.26,91.47 -13.58,7.49 -25.91,14.75 -38.3,21.47l-62.3 51.53c-8.51,8.28 -16.9,22.37 -27.16,31.65 -26.94,24.35 -113.56,24.05 -160.21,189.47l-15.92 68.68c-10.32,76.24 -14.98,48.31 -31.72,117.74 -4.4,18.26 -4.12,30.69 -8.25,50 -13.43,62.82 -19.82,78 -23.7,154.5 -1.99,39.31 -10.1,54.86 -4.01,104.25 16.6,134.67 13.38,151.05 70.85,280.01 15.34,34.42 75.67,178.06 93.16,197.86 23.51,26.62 25.61,42.99 55.39,62.5 15.76,10.32 4.71,0.85 21.4,22.47 48.68,63.09 46.63,69.8 124.31,123.43l71.07 42.49c41.41,17.09 44.85,15.96 75.16,43.36 52.22,47.19 92.58,34.82 132.21,37.92 29.98,2.35 119.28,24.01 149.78,31.3 115.23,27.56 89.34,30.7 208.09,12.01 35.61,-5.61 64.04,3.21 102.67,1.5 32.87,-1.45 61.02,-14.2 82.83,-29.42 24.48,-17.08 10.05,-9 42.27,-17.1 71.42,-17.97 101.01,-54.84 112.86,-59.28 60.85,-22.79 125.54,-72.79 174.34,-117.41l32.54 -26.57c14.11,-9.48 16.29,-15.19 29.81,-25.47 55.16,-41.93 92.33,-105.59 127.26,-163.69 15.28,-25.41 36.98,-42.83 48.52,-69.5 26.77,-61.86 15.68,-108.01 37.7,-135.91 21.52,-27.26 52.92,-89.31 50.02,-129.45 -1.53,-21.18 -11.83,-32.02 -10.49,-50.4 1.08,-14.7 8,-30.64 9.82,-50.81 6.13,-67.8 -2.32,-145.67 -11.95,-214.99 -7.37,-53.03 -41.18,-127.93 -63.02,-169.21 -26.53,-50.14 -24,-45.97 -54.26,-87.73l-10.12 -21.12c-3.79,-6.71 -22.65,-25.49 -27.8,-31.3 -48.75,-55.07 -16.26,-21.53 -41.14,-76.52 -40.5,-89.52 -89.18,-85.83 -114.54,-118.05l-27.67 -43.51c-12.1,-24.51 -50.1,-70.29 -74.32,-86.93 -57.97,-39.85 -41.54,-3.64 -118.43,-54.68 -13.46,-8.94 -22.25,-16 -35.45,-23.47 -64,-36.21 -126.94,-23.6 -195.33,-41.62 -20.06,-5.29 -80.53,-17.56 -99.37,-14.9z"/>
   <path fill="#ED84B3" d="M1083.32 221.97c1.16,-15.52 2.84,-24.88 8.25,-34.64 31.79,-7.19 37.7,13.38 55.1,37.03 18.12,24.62 36.1,37.41 25.09,66.72 -34.55,12.09 -56.47,-7.97 -69.98,-30 -15.52,7.93 -5.63,9.39 -28.86,14.84 -25.47,5.98 -90.06,8.25 -107.43,-16.36 -36.73,-52.02 87.82,-39.06 117.82,-37.58zm-1002.15 769.39c7.48,5.8 3.76,-7 7.27,9.3 7.57,-7.55 2.43,7.27 7.07,-15.56 0.68,-3.35 1.02,-14.19 1.31,-18.39 0.77,-11.41 1.8,-24.67 7.39,-34.2 6.48,-20.48 11.45,-19.79 21.18,-33.86 12.11,-16.99 1.7,4.89 35.24,-48.1 19.96,-31.53 27.76,-22.67 18.58,-66.27 -1.09,-13.5 -7.13,-27.12 -9,-43.09 -2.6,-22.14 -2.27,-38.26 0,-60.32l-9.47 -0.9c-2.33,-47.38 -20.97,-89.84 -14.22,-137.39 6.1,-42.98 24.19,-86.49 47.9,-110.79 25.98,-26.63 61.15,-45.76 97.05,-60.12 69.5,-27.8 159,-11.95 218.87,-96.43 9.85,-13.9 19.85,-32.72 30.39,-48.03 11.49,-16.68 21.61,-29.58 34.64,-44.16 99.86,-111.75 216.25,-43.46 226.65,-43.49 -38.63,-2.56 -37.88,1.56 -41.24,10.91 26.6,-5.7 24.64,-8.69 47.86,1.88 2.54,26.18 2.97,23.5 -13.79,37.62 -27.83,23.44 -19.51,12.86 -44.34,45.62 -7.33,9.67 -13.55,15.75 -20.34,22.99 -35.21,1.71 -40.11,-3.73 -30.95,-37.03l-12.36 4.44c-13.33,3.07 -26.36,2.64 -46.93,9.96 -35.33,12.57 -72.02,50.36 -99.64,77.17 -7.82,7.59 -8.17,12.54 -20.75,12.42 4.85,38.49 -17.01,53.79 -29.78,78.22 -11.4,21.8 -21,62.73 -56.8,41.34 -17.04,-31 8.55,-62.67 17.91,-85.79 -22.22,15.44 1.45,22.39 -37.95,31.32 -87.55,19.83 -166.03,47.45 -199.6,134.97 -12.39,32.29 -23.91,89.21 -8.64,124.79 -3.06,-9.6 -15.12,0.39 -19.66,4.2l26.66 0.07 11.26 -0.02c11.67,-34.58 40.2,-60.12 71.7,-70.96 6.16,-2.12 11.79,-3.19 20.48,-4.43l19.47 -3.49 -0.59 -15.89c-10.7,1.31 -24.69,4.1 -34.89,7.45 -10.37,3.4 -49.46,26.65 -63.39,-0.14 -6.55,-12.6 -5.12,-28.98 3.3,-40.59 21.9,-16.61 24.78,-24.71 58.23,-33.07 32.76,-8.19 46.91,-12.73 77.86,0.06 10.89,16.5 6.95,29.12 2.05,47.48l8.55 6.9c0.46,9.02 5.67,16.18 10.9,23.13 34.3,-13.38 38.53,29.07 67.6,4.54 18.72,-15.8 54.81,-80.29 86.54,-102.52 10.17,-7.12 19.83,-11.34 28.19,-19.03 9.91,-9.12 11.84,-18.36 21.17,-26.17 -3.28,-23.72 -8.77,-54.1 10.67,-69.72 18.48,-11.75 32.67,-4.24 37.95,15.66 72,12.32 52.77,-44.92 201.62,-36.36 40.58,2.34 66.71,9.86 110.03,10.87 39.96,0.94 79.85,0.37 116.15,5.91 44.2,6.75 73.31,-7.14 112.07,-3.85 40.32,3.42 57.36,22.2 79.58,43.54 38.39,36.88 32.82,25.84 93.84,19.15 50.87,-5.58 50.42,32.06 92.44,27.15 -0.34,-50.69 -82.47,-105.78 -138.72,-111.88 -14.69,-1.59 -24.47,-0.92 -34.58,-9.45 -0,-0 -7.16,-4.37 -7.49,-4.66 -9.76,-8.42 -4.57,0.14 -9.73,-12.09 -3.35,-22.77 -2.93,-24.12 10.4,-37.39 7.05,-9.9 2.88,-4.89 6,-13.41 -20.04,-6.56 -21.08,-10.32 -34.52,-24.12 -2.67,-2.74 -3.24,-3.3 -5.9,-6.02 -4.68,-4.77 -6.71,-6.91 -11.61,-11.77 -73.96,-73.41 -26.07,-36 -96.93,-72.71 -29.58,-15.33 -67.7,-18.72 -107.42,-19.05 -40.35,-1.59 -78.51,27.63 -210.73,-3.56 -72.66,-17.14 -139.84,-25.25 -201.42,10.85 -122.47,71.8 -128.18,175.36 -265.42,213.43 -67.12,18.62 -117.99,29.15 -160.55,76.82 -32.11,35.97 -64.92,107.68 -71.69,168.13 -8.93,79.7 24.39,153.76 13.52,215.86 -12.59,71.92 -48.65,64.54 -46.5,192.15z"/>
   <path fill="#383637" d="M982.18 13.82c18.84,-2.66 79.31,9.62 99.37,14.9 68.38,18.02 131.33,5.41 195.33,41.62 13.2,7.47 22,14.54 35.45,23.47 76.89,51.04 60.45,14.83 118.43,54.68 24.21,16.64 62.22,62.42 74.32,86.93l27.67 43.51c25.36,32.23 74.04,28.53 114.54,118.05 24.88,54.99 -7.61,21.45 41.14,76.52 5.14,5.81 24.01,24.59 27.8,31.3l10.12 21.12c30.26,41.76 27.73,37.59 54.26,87.73 21.84,41.27 55.65,116.18 63.02,169.21 9.63,69.32 18.08,147.19 11.95,214.99 -1.83,20.18 -8.75,36.12 -9.82,50.81 -1.35,18.38 8.96,29.22 10.49,50.4 2.9,40.14 -28.5,102.19 -50.02,129.45 -22.03,27.91 -10.94,74.05 -37.7,135.91 -11.54,26.66 -33.24,44.09 -48.52,69.5 -34.94,58.1 -72.11,121.76 -127.26,163.69 -13.53,10.28 -15.71,16 -29.81,25.47l-32.54 26.57c-48.79,44.63 -113.49,94.63 -174.34,117.41 -11.85,4.44 -41.44,41.31 -112.86,59.28 -32.21,8.1 -17.79,0.03 -42.27,17.1 -21.82,15.22 -49.96,27.96 -82.83,29.42 -38.63,1.71 -67.05,-7.1 -102.67,-1.5 -118.75,18.69 -92.86,15.55 -208.09,-12.01 -30.5,-7.29 -119.8,-28.95 -149.78,-31.3 -39.63,-3.11 -79.99,9.27 -132.21,-37.92 -30.31,-27.4 -33.75,-26.27 -75.16,-43.36l-71.07 -42.49c-77.68,-53.63 -75.63,-60.34 -124.31,-123.43 -16.69,-21.62 -5.64,-12.15 -21.4,-22.47 -29.78,-19.51 -31.88,-35.87 -55.39,-62.5 -17.49,-19.81 -77.82,-163.44 -93.16,-197.86 -57.47,-128.97 -54.24,-145.35 -70.85,-280.01 -6.09,-49.39 2.02,-64.94 4.01,-104.25 3.88,-76.5 10.27,-91.68 23.7,-154.5 4.13,-19.31 3.84,-31.74 8.25,-50 16.74,-69.42 21.4,-41.49 31.72,-117.74l15.92 -68.68c46.65,-165.42 133.27,-165.12 160.21,-189.47 10.27,-9.28 18.66,-23.37 27.16,-31.65l62.3 -51.53c12.38,-6.72 24.71,-13.98 38.3,-21.47 42.34,-23.34 44.08,-62.82 140.26,-91.47 57.69,-17.19 20.53,-10.77 75.31,-38.35 36.73,-18.5 59.25,-10.55 93.74,-24.81 81.72,-33.8 104.87,-21.58 186.43,-44.83 19.83,-5.65 74.8,-11.79 100.87,-15.47zm-982.18 908.96l0 129.18c6.45,14.15 15.11,66 16.32,84.26 2.7,40.81 16.95,47.98 24.82,82.6 7.26,31.92 73.34,190.92 94.7,220.84 12.37,17.33 6.38,17.8 13.5,37.34 12.92,35.45 51.41,66.86 72.91,88.85 33.35,34.11 39.98,56.3 100.73,107.96 18.17,15.45 103.52,78.93 124.94,87.09 90.56,34.48 59.75,83.24 229.27,84.7 22.35,0.19 155.74,30.85 173.08,40.88l287.19 0c25.58,-13.36 43.43,-12.47 68.34,-30.09 18.37,-12.99 13.36,-7.65 36.53,-14.56 42.61,-12.7 70.64,-26.85 101.96,-51.63 17.51,-13.86 65.87,-26.11 97.13,-52.58l88.17 -65.42c12.32,-9.12 16.09,-15.49 25.63,-25.34 9.1,-9.39 19.51,-13.41 29.51,-21.39 24.46,-19.52 79.11,-76.85 95.93,-105 27.43,-45.91 13.86,-0.21 38.45,-64.34 7.21,-18.79 50.35,-37.53 76.71,-128.66 7.49,-25.88 -0.54,-66.06 13.13,-84.71 69.76,-95.17 54.3,-92.13 52.32,-194.79 -0.31,-15.87 5.24,-25.65 8.38,-41.33l0 -123.8c-18.78,-32.55 -1.75,-69.74 -13.58,-104.2 -10.22,-29.77 -15.44,-61.71 -25.56,-89.01 -18.77,-50.6 -88.7,-180.31 -127.54,-218.79 -36.85,-36.5 -19.86,-24.52 -42.5,-71.51 -48.71,-101.12 -69.59,-83.29 -107.12,-121.32 -9.16,-9.29 -20.01,-18.23 -27.65,-31.34 -40.52,-69.53 -66.73,-109.96 -151.39,-136.21 -49.39,-15.32 -39.73,-14.7 -73.18,-40.57 -18.02,-13.94 -51.56,-29.98 -80.07,-34.87 -34.87,-5.99 -68.08,-4.06 -102.98,-10.01 -43.47,-7.41 -106.6,-40.43 -197.42,-16.34 -64.59,17.14 -129.42,18.93 -194.05,38 -17.54,5.17 -25.5,12.15 -40.66,17.91 -17.14,6.5 -31.36,3.31 -48.13,7.79 -80.89,21.58 -36.47,13.68 -77.94,36.06 -65.26,35.21 -73.22,9.48 -147.15,81.02 -49.4,47.81 -34.28,21.59 -68.22,45.35 -43.63,30.55 -81.57,86.12 -128.26,104.29 -29.45,11.46 -44.68,32.86 -63.12,51.26 -50.88,50.77 -57.9,96.56 -73.65,155.41 -10.74,40.14 -2.41,54.97 -21.73,92.36 -13.56,26.26 -18.4,56.47 -23.31,90.11 -2.72,18.66 -6.85,30.13 -9.94,48.5 -3.34,19.87 -9.84,25.14 -11.14,43.43 -2.33,32.57 4.61,79.96 -13.33,102.6z"/>
   <path fill="#CC3B83" d="M600.11 427.87c2.22,35.05 18.22,110.48 58.55,90.98 -1.71,24.7 -1.26,43.54 -4.52,68.92 -82.17,32.69 -80.31,64.85 -106.85,117.99 -17.86,35.76 -18.11,61.08 -46.58,71.57 -7.87,2.9 -1.59,-0.59 -8.94,3.21 -7.92,4.09 -2.76,0.12 -8,5.76 25.97,-3.63 38.16,-0.61 33.19,29.42 -3.82,23.08 -65.53,97.59 -106.74,65.91l1.12 -26.82c-11.97,7.09 -6.22,33.68 -2.12,40.33 22.7,36.79 78.71,-7.04 107.25,-5.39l11.18 32.21c11.61,27.39 6.83,69.59 8.82,98.67 1.87,27.34 22.88,63.6 34.92,73.7 8.36,7.02 12.58,3.74 23.59,17.66 4.71,4.06 -0.01,0.71 9.39,3.11 -58.15,-101.37 -6.83,-89.59 -25.51,-204.16 -18.22,-111.79 44.68,-170.77 109.1,-237.6 23.45,-24.33 36.56,-34.8 76.03,-40.51 39.22,-5.68 68.3,-3.02 107.4,-13.01 36.78,-9.39 53.14,-18.2 96.53,-20.88 25.47,-61.09 32.73,-34.43 52.3,-70.4 -16.65,8.22 -18.02,14.78 -39.89,15.04 -17.83,0.21 -37.43,0.69 -51.01,-4.02 -31.91,-11.08 -11.75,-43.88 -28.38,-77.15 -18.17,-4.27 -24.57,-7.7 -36.35,7.81 46.72,-14.39 44.31,18.8 28.29,49.71 -13.44,25.95 -10.16,55.35 -23.47,78.63 -75.22,12.45 -31.55,-73.08 -23.91,-104.68 -14.12,8.23 -14.72,22.63 -27.23,34.27 -11.79,10.98 -64.87,18.45 -80.99,18.69 0.54,-27.63 48.69,-104.76 6.57,-122.67 29.71,50.89 -22.22,103.98 -43.81,130.36 -23.97,2.13 -38.13,1.59 -36.15,-25.69 0.85,-11.69 24.32,-47.58 35.91,-72.15 7.59,-16.08 13.6,-21.84 20.28,-32.54 -1.13,0.66 -5.42,2.93 -6.24,3.37l-8.42 4.45c-6.61,4.26 -7.3,6.04 -9.65,11.79 -12.74,31.19 -1.13,22.42 -21.43,31.84 -5.54,-9.8 -2.89,-13 -7.04,-23.73 -0.43,-1.12 -1,-2.21 -1.44,-3.22l-3.52 -6.33c2.38,21.6 6.09,49.72 -20.42,47.23 -14.81,-1.39 -22.26,-17.7 -28.27,-32.35 -12.13,-29.57 -19.08,-70.34 -2.89,-99.05 -19.44,15.62 -13.95,46 -10.67,69.72z"/>
   <path fill="#1C1C1C" d="M1180.19 961.49c-2.65,60 -39.42,131.44 -79.21,167.8 -6.78,6.19 -24.57,26.79 -29.17,29.5l-45.57 17.08c-18.09,8.15 -32.41,6.55 -51,12.16 -22.22,6.71 -28.26,9.61 -54.28,8.86 -51.07,-1.47 -140.68,-40.02 -178.02,-69.67 -12.59,-10 -18.59,-20.31 -26.9,-34.47 -20.91,-35.62 -40.05,-100.76 -31.51,-154.29 2.83,-17.74 7.57,-27.28 12.8,-44.57 12.85,-42.46 18.52,-73.27 45.79,-110.76 3.43,-4.72 10.85,-10.35 15.79,-15.42 5.62,-5.77 7.01,-8.24 13.65,-13.52 0.2,-0.16 6.08,-4.4 8.83,-6.51l47.18 -30.37c32.53,-8.53 78.8,-12.8 116.06,-10.12 18.77,1.35 91.02,11.17 102.9,18.61 31.03,19.43 90.92,67.17 106.87,99.84 26.87,55.05 30.46,30.1 25.79,135.83zm-538.63 62.25c6.28,18.08 12.02,37.84 22.78,56.14 18.81,31.99 25.9,51.61 53.78,72.67 9.17,6.92 15.17,7.3 26.07,17.2 20.27,18.4 17.79,35.56 31.21,55.52 7.92,-11.32 4.84,-12.15 3.19,-28.7 77.51,21.99 120.08,60.88 245.91,18.3 82.46,-27.91 68.18,-17.5 129.69,-91.02 14.55,-17.4 17.83,-25.67 29.76,-42.4 11.16,-36.59 22.03,-41.5 28.95,-84.51 5.15,-32.01 21.62,-53.34 22.42,-86.6 -2.38,-0.87 -9.92,13.97 -16.32,-18.44 -10.27,-52.02 -18.33,-73.01 -48.94,-116.16l-38.19 -41.15c-12.22,-13.51 -65.56,-47.07 -86.93,-51.16 -70.12,-13.41 -125.45,-17.17 -197.66,-7.45 -15.09,2.03 -32.31,6.23 -45.45,8.41 -17.27,2.86 -39.4,-0.91 -53.06,3 -16.83,4.82 -35.93,37.14 -62.6,45.82 0.04,0.04 -3.46,14.94 23.35,-2.72 23.4,-15.41 42.71,-47.05 69.93,-32.7 -9.22,16.29 -70.76,46.68 -98.3,114.19 -21.45,52.58 -38.38,120.6 -36.61,177.08l-21.76 3.94c9.47,9.32 14.35,15.04 18.76,30.76z"/>
   <path fill="#9C744B" d="M484.15 1728.53c-4.82,-32.04 -52.12,-105.22 -70.03,-126.34 -46.72,-55.09 -75.25,-56.77 -111.05,-81.79 -111.29,-77.78 -58.38,-161.36 -132.22,-257.18 -44.09,-57.21 -17.65,-94.11 -47.89,-149.33 -24.96,-45.56 -54.9,-61.59 -60.88,-132.56 -9.4,-111.52 66.92,-135.2 47.58,-243.69 -3.09,-17.33 -12.31,-63.94 -19.13,-74.75 -13.32,12.85 -20.98,69.57 -23.92,93.75 -4.94,40.58 -19.36,59.11 -19.36,102.5l12.86 4.26c6.19,1.23 -1.05,-2.08 5.12,-0.32 -9.44,17.71 -16.84,23.72 -22.44,45.45 -13.33,51.8 -0.31,136.58 6.54,191.26 5.75,45.87 48.23,172.79 70.29,210.65 10.32,17.71 15.19,25.56 22.66,48.06 6.68,20.09 14.95,30.02 21.3,48.92 17.33,51.55 76.96,143.51 135.49,149.52 23.74,2.44 27.44,14.48 41.53,28.25 10.73,10.48 24.86,20.59 29.11,37.75 -10.8,-2.27 -22.92,-16.05 -37.65,-29.37 -24.18,-21.87 -5,-25.41 -46.83,-24.58 5.28,16.16 -0.24,4.97 9.55,18.78 20.86,29.43 156.24,134.59 189.33,140.74z"/>
   <path fill="#956D48" d="M599.5 1053.43c1.19,-27.34 -3.59,-35.83 14.52,-49.53 16.78,7.46 5.94,10.94 27.53,19.84 -4.4,-15.73 -9.28,-21.44 -18.76,-30.76l21.76 -3.94c-1.77,-56.49 15.15,-124.5 36.61,-177.08 27.54,-67.51 89.09,-97.9 98.3,-114.19 -27.23,-14.35 -46.53,17.29 -69.93,32.7 -26.81,17.66 -23.31,2.76 -23.35,2.72 26.66,-8.68 45.77,-41 62.6,-45.82 13.66,-3.92 35.79,-0.15 53.06,-3 13.14,-2.17 30.36,-6.37 45.45,-8.41 72.21,-9.73 127.54,-5.97 197.66,7.45 21.38,4.09 74.71,37.65 86.93,51.16l38.19 41.15c30.61,43.15 38.66,64.14 48.94,116.16 6.4,32.41 13.94,17.57 16.32,18.44 -0.81,33.26 -17.27,54.59 -22.42,86.6 -6.92,43.02 -17.8,47.92 -28.95,84.51 8.57,-7.31 19.9,-32.13 25.57,-44.34 7.51,-16.18 8.23,-36.5 13.31,-54.51 3.72,-13.18 13.02,-32.21 19.16,-47.14 16.57,-40.3 7.37,-37.68 30.69,-34.68 -11.64,-39.27 -34.32,-38.45 -69.3,-157.99 -17.31,-59.15 -61.63,-93.85 -125.99,-103.18 -127.21,-18.44 -104.93,-33.09 -191.77,-4.76 -90.59,29.56 -105.23,-9.33 -182.86,45.34 0.88,11.69 -2.87,-2.91 2.93,5.35 15.67,22.34 -2.67,-12.33 5.86,7.37 -44.3,27.9 -101.99,78.37 -114.21,132.48 -10.81,47.89 -0.8,69.07 4.45,113.88 5.52,47.06 -21.37,87.99 -2.29,114.16z"/>
   <path fill="#F3A4C5" d="M170.21 680.86l14.8 -26.29c4.54,-3.81 16.6,-13.8 19.66,-4.2 -15.27,-35.58 -3.74,-92.51 8.64,-124.79 33.58,-87.52 112.05,-115.14 199.6,-134.97 39.4,-8.92 15.73,-15.87 37.95,-31.32 26.58,-23.42 23.32,-57.26 68.67,-33.77 12.58,0.12 12.93,-4.83 20.75,-12.42 27.63,-26.81 64.32,-64.6 99.64,-77.17 20.57,-7.32 33.6,-6.89 46.93,-9.96l12.36 -4.44c12.06,-18.69 14.53,-23.46 29.53,-38.86 9.95,-10.22 25.58,-25.03 32.04,-32.21 3.36,-9.36 2.61,-13.48 41.24,-10.91 -10.4,0.03 -126.79,-68.26 -226.65,43.49 -13.03,14.58 -23.15,27.48 -34.64,44.16 -10.54,15.31 -20.54,34.13 -30.39,48.03 -59.88,84.49 -149.37,68.63 -218.87,96.43 -35.91,14.36 -71.08,33.49 -97.05,60.12 -23.7,24.3 -41.8,67.81 -47.9,110.79 -6.75,47.55 11.89,90.02 14.22,137.39l9.47 0.9z"/>
   <path fill="#341816" d="M798.45 1287.73c27.93,1.64 62.8,57.51 64.27,72 -38.5,1.23 -65.81,-38.27 -64.27,-72zm474.23 -386.97c10.43,14.95 16.21,40.89 7.73,65.22 -5.13,14.72 -23.18,33.31 -31.33,51.54 -25.58,57.26 5.33,167.02 -124.58,206.06 -94.17,28.3 -63.78,41.17 -107.69,62.84 -50.18,24.78 -95.22,-5.1 -133.89,-18.67 -45.7,-16.04 -105.38,7.95 -143.55,-22.32 -34.35,-27.24 -17.11,-57.09 -67.26,-98.06 -29.2,-23.85 -76.1,-51.96 -72.61,-93.96 -19.08,-26.17 7.81,-67.1 2.29,-114.16 -5.25,-44.82 -15.27,-65.99 -4.45,-113.88 12.22,-54.11 69.91,-104.58 114.21,-132.48 -8.53,-19.7 9.82,14.97 -5.86,-7.37 -5.8,-8.26 -2.05,6.33 -2.93,-5.35 77.62,-54.67 92.27,-15.78 182.86,-45.34 86.84,-28.34 64.56,-13.68 191.77,4.76 64.35,9.33 108.67,44.03 125.99,103.18 34.98,119.53 57.66,118.72 69.3,157.99zm-278.8 -304.15c-1.36,-28.3 15.47,-34.66 31.46,-50.46 15.49,-15.3 18.91,-33.18 42.67,-27.01 2.1,26.17 -37.69,76.61 -74.13,77.47zm26.37 -68.07c-19.57,35.97 -26.83,9.31 -52.3,70.4 -43.39,2.68 -59.75,11.49 -96.53,20.88 -39.1,9.99 -68.18,7.33 -107.4,13.01 -39.47,5.72 -52.58,16.18 -76.03,40.51 -64.42,66.83 -127.32,125.81 -109.1,237.6 18.68,114.57 -32.64,102.79 25.51,204.16 25.43,21.78 71.03,54.08 85.01,82.24 23.53,47.38 26.61,71.68 91.31,81.81 5.25,41.65 11.19,35.3 19.51,61.72 15.43,9.83 21.68,27.8 39.34,33.43 30.75,9.82 40.22,-5.21 36.96,-31.79 -7.18,-7.03 -44.18,-51.11 -48.39,-60.76 95.32,-12.67 119.84,89.93 237.17,-10.61 52.57,-45.05 128.83,-16.11 178.44,-136.8 10.83,-26.34 8.07,-62.22 15.14,-92.28 5.06,-21.53 22.96,-47.14 36.11,-66.75 16.06,-57.85 -4.4,-88.03 -28.97,-126.18 -23.98,-37.24 -32.85,-70.12 -46.36,-115.47 -11.66,-39.13 -38.97,-71.12 -71.66,-89.72 -58,-33.01 -103.83,-16.74 -127.51,-32.76 20.28,-19.31 77.25,-57.61 57.94,-102.39 -39.94,-18.79 -39.32,16.75 -58.16,19.75z"/>
   <path fill="#C69C75" d="M1183.96 1081.44c-11.93,16.73 -15.21,25 -29.76,42.4 -61.51,73.52 -47.23,63.11 -129.69,91.02 -125.83,42.58 -168.4,3.69 -245.91,-18.3 1.65,16.55 4.74,17.38 -3.19,28.7 -13.42,-19.95 -10.94,-37.12 -31.21,-55.52 -10.9,-9.89 -16.9,-10.27 -26.07,-17.2 -27.88,-21.05 -34.97,-40.68 -53.78,-72.67 -10.76,-18.3 -16.5,-38.06 -22.78,-56.14 -21.59,-8.9 -10.75,-12.39 -27.53,-19.84 -18.12,13.7 -13.34,22.19 -14.52,49.53 -3.49,42 43.41,70.11 72.61,93.96 50.15,40.96 32.91,70.81 67.26,98.06 38.17,30.27 97.85,6.28 143.55,22.32 38.68,13.57 83.71,43.45 133.89,18.67 43.9,-21.68 13.52,-34.54 107.69,-62.84 129.91,-39.04 99.01,-148.8 124.58,-206.06 8.14,-18.23 26.2,-36.82 31.33,-51.54 8.48,-24.33 2.7,-50.27 -7.73,-65.22 -23.32,-2.99 -14.12,-5.62 -30.69,34.68 -6.14,14.93 -15.44,33.96 -19.16,47.14 -5.08,18.02 -5.8,38.34 -13.31,54.51 -5.67,12.21 -17,37.04 -25.57,44.34z"/>
   <path fill="#F59BC4" d="M1294.97 975.31c-13.15,19.62 -31.04,45.22 -36.11,66.75 -7.07,30.06 -4.31,65.94 -15.14,92.28 -49.61,120.69 -125.88,91.76 -178.44,136.8 -117.33,100.54 -141.85,-2.06 -237.17,10.61 4.22,9.65 41.21,53.74 48.39,60.76l15.19 10.43c21.65,15.89 56.94,26.68 84.76,24.39l35.28 -11.86c19.85,-12.86 20.29,-6.78 47.45,-7.8 26.63,0.72 39.53,-19.48 56.33,-32.49 54.02,-41.84 154.92,-91.09 159.77,-97.85 6.3,-15.57 -1.11,-19.37 10.77,-39.33 6.19,-8.14 11.2,-17.68 16.77,-25.82 5.88,-8.59 10.77,-12.47 16.32,-22.4 -8.21,-33.77 -20.76,-66.6 -8.72,-107.37 10.76,-36.42 22.74,-63.2 2.99,-101.2 -0.9,1.07 -1.64,2.49 -2.18,3.59l-3.68 7.18c-5.15,13.28 -0.44,21.48 -12.57,33.32z"/>
   <path fill="#B89976" d="M734.13 83.75c14.82,5.35 34.47,3.9 50.6,7.2 51.51,10.55 100.63,27.3 162.57,19.55 112.21,-14.02 180.92,-54.18 299.27,25.43 87.93,59.16 30.73,2.27 156.91,87.72 31.42,21.28 35.86,40.93 88.26,44.73 -6.6,-24.92 -6.47,-13.58 -27.4,-42.74 -34.05,-47.44 -53.91,-61.67 -108.35,-80.33 -79.01,-27.07 -85.93,-70.93 -179.09,-76.82 -84.47,-5.34 -140.46,-32.54 -228.38,-27.28 -53.9,3.23 -76.81,21.32 -163.27,28.37 -22.82,1.86 -46.8,0.1 -51.12,14.16z"/>
   <path fill="#876949" d="M1698.07 1408.88c14.18,-4.18 5.98,8.14 27.91,-27.92 15.9,-26.16 36.37,-79.7 36.27,-114.96 -11.56,4.27 -9.91,0.98 -22.7,18.24 -28.98,39.12 -30.36,61.01 -88.38,139.79 -20.64,28.02 -29.54,68.64 -42.47,91.56 -42.43,75.14 -118.98,84.52 -148.63,115.02 -24.12,24.81 -31.89,44.85 -70.8,58.88 -37.53,13.53 -63.27,9.24 -97.46,36.29 -24.12,19.09 -49.64,42.62 -61.44,72.37 43.78,-4.33 97.17,-34.62 112,-69.02 31.11,11.66 48.85,-9.48 86.17,-35.5 17.62,-12.28 59.61,-47.95 74.93,-55.73 -6.98,-12 -1.79,-2 -15.26,-10.56 77.31,-19.05 148.89,-115.03 187.18,-179.16 14.82,-24.82 9.56,-18.68 15.47,-48.91 2.79,-14.28 12.57,-18.99 21.32,-35.77 4.1,5.82 5.92,-10.1 2.09,9.9 -3.11,16.23 -14.81,0.76 -16.2,35.48z"/>
   <path fill="#F395BC" d="M800.21 1340.88c-8.32,-26.43 -14.26,-20.07 -19.51,-61.72 -64.7,-10.13 -67.78,-34.42 -91.31,-81.81 -13.99,-28.16 -59.58,-60.46 -85.01,-82.24 -9.41,-2.4 -4.68,0.95 -9.39,-3.11 -15.37,-1.8 -4.44,-1.46 -8.42,2.99 3.63,28.45 21.47,34.78 48.07,65.88 53.79,62.89 52.03,172.25 172.5,176.13l-6.93 -16.13z"/>
   <path fill="#876949" d="M713.59 1811.68c1.37,0.83 118.7,21.79 139.44,28.54 39.46,12.85 120.79,16.57 159.81,4.49 -12.35,-20.37 -114.92,-55.58 -135.09,-58.29 -35.3,-4.75 -146,9.24 -164.16,25.25z"/>
   <path fill="#92252C" d="M446.21 1095.76c-33.76,0.93 -58.12,-4.85 -84.72,6.7l-3.06 31.08c24.75,14.51 30.18,15.12 62.72,16.86 8.27,38.86 43.84,18.72 60.27,-19.36 5.72,-13.26 11.53,-27.76 13.42,-43.45 3.94,-32.77 -1.56,-37.55 -31.24,-31.87 -10.45,15.51 -10.83,22.49 -17.39,40.03z"/>
   <path fill="#462B24" d="M974.79 239.59c18.52,-8.17 97.98,-6.36 110.54,2.12 0.31,21.26 -17.92,20.85 -58.04,20.04 -20.05,-0.41 -55.08,2.11 -52.5,-22.16zm123.75 -41.43c20.79,1.39 25.48,20.27 35.03,34.87 8.36,12.79 25.73,31.01 29.69,43.59 -26.49,19.49 -67.83,-41.42 -64.72,-78.45zm-15.23 23.81c-30,-1.48 -154.55,-14.43 -117.82,37.58 17.37,24.6 81.96,22.34 107.43,16.36 23.23,-5.45 13.34,-6.91 28.86,-14.84 13.5,22.03 35.43,42.09 69.98,30 11.01,-29.31 -6.98,-42.11 -25.09,-66.72 -17.4,-23.64 -23.31,-44.22 -55.1,-37.03 -5.41,9.76 -7.09,19.12 -8.25,34.64z"/>
   <path fill="#444343" d="M1262.39 1532.24c-4.58,21.75 -13.79,51.33 20.54,45.92 19.96,-3.15 24.74,-22.31 33.24,-36.32 14.51,2.95 21.02,6.93 36.51,-1.75l1.02 -27.53c-19.04,-14.56 -51.88,-95.51 -78.01,-74.81 -24.07,19.07 25.31,48.85 -13.3,94.49z"/>
   <path fill="#987549" d="M1812.16 889.37c0.05,-8.14 29.23,-97.94 2.37,-136.79 -9,15.28 -12.67,42.63 -17.77,62.09 -8.14,31.1 -3.2,43.37 -1.77,75.97 1.21,27.65 -10.36,111.08 31.34,123.62l4.18 -10.03c4.01,-13.29 -1.23,6.94 1.72,-7.19 7.61,-36.57 1.99,-85.4 0.33,-121.27 -1.25,0.54 -2.62,1.42 -3.56,1.99l-16.84 11.6z"/>
   <path fill="#D2B38B" d="M401.48 271.71c-12.92,-3.31 2.43,9.46 -9.15,-9.4 -0.41,-0.67 -1.04,-2.18 -1.36,-2.75 -0.33,-0.59 -0.69,-2.02 -1.3,-2.88 -23.21,11.08 -74.84,47.73 -91.26,72.26 14.18,-0.28 63.85,-13.04 78.04,-18.58 47.69,-18.64 142.6,-127.11 151.26,-144.41 -36.79,5.09 -81.94,41.91 -105.44,68.47 -14.36,16.22 -11.26,20.92 -20.78,37.3z"/>
   <path fill="#19504D" d="M602.57 1209.69c-21.02,17.29 -21.98,48.9 -33.03,73.77 -8.41,18.91 -25.1,77.7 26.31,53.86 17.63,-8.17 33.27,-43.57 39.45,-68.39 3.51,-14.09 7.56,-31.53 3.86,-47.69 -4.08,-17.81 -21,-24.39 -36.59,-11.56z"/>
   <path fill="#19504D" d="M170.21 680.86c-2.28,22.07 -2.6,38.19 -0,60.32 1.87,15.97 7.91,29.59 9,43.09 8.51,5.79 -0.19,0.01 7.18,6.27 9.65,8.21 -3.35,1.29 9.49,7.35 18.53,8.75 40.76,-0.72 31.78,-43.81 -6.97,-33.45 -2.25,-73.7 -15.98,-99.44l-26.66 -0.07 -14.8 26.29z"/>
   <path fill="#941B25" d="M1478.4 1430.32c-19.19,71.1 41.95,44.98 62.12,16.9 22.17,-30.86 46.92,-57.02 24.87,-97.57 -37.32,6.7 -34.38,6.93 -51.98,35.46 -8.24,13.36 -23.02,39.04 -35.02,45.22z"/>
   <path fill="#495F73" d="M239.01 526.58c-6.56,67.69 56.71,24.21 69.08,19.96 49.29,-16.93 75.28,-4.08 67.02,-52.97 -30.95,-12.79 -45.1,-8.24 -77.86,-0.06 -33.46,8.36 -36.34,16.46 -58.23,33.07z"/>
   <path fill="#6E162B" d="M743.87 424.18l-23.76 -0.02c-6.69,10.7 -12.7,16.46 -20.28,32.54 -11.6,24.57 -35.06,60.46 -35.91,72.15 -1.98,27.28 12.18,27.82 36.15,25.69 21.59,-26.38 73.52,-79.46 43.81,-130.36z"/>
   <path fill="#2B4B51" d="M864.61 470.22c-3.75,5.86 -14.16,18.35 -19.09,23.66 -7.64,31.61 -51.31,117.14 23.91,104.68 13.31,-23.29 10.03,-52.69 23.47,-78.63 16.02,-30.91 18.42,-64.1 -28.29,-49.71z"/>
   <path fill="#941B25" d="M1083.37 1692.22c-9.19,64.48 57.15,25.64 79.24,10.52 27.16,-18.58 64.26,-74.84 -5.4,-66.15 -25.82,20.79 -52.18,28.74 -73.85,55.62z"/>
   <path fill="#941B25" d="M1479.98 481.31c-48.56,19.67 -75.16,134.4 -17.89,108.61 12.43,-5.6 31.61,-44.71 41.41,-57.31 7.25,-9.32 17.26,-20.51 15.65,-35.71 -2.45,-23.19 -22.84,-22.2 -39.17,-15.59z"/>
   <path fill="#26493B" d="M1466.33 341.47c-28.45,17.1 12.9,56.79 21.06,68.93 9.62,14.33 23.62,63.66 52.42,44.76 34.05,-22.35 -32.05,-138.6 -73.48,-113.69z"/>
   <path fill="#495F73" d="M1310.73 807.98c0,22.26 3.55,69.61 17.54,84.56 14.57,15.57 48.76,13.39 38,-36.75 -7.75,-36.15 -1.45,-60.09 -8.98,-74.22 -12.18,-22.85 -46.56,-14.2 -46.56,26.41z"/>
   <path fill="#296566" d="M1274.35 264.77c-13.34,13.27 -13.75,14.62 -10.4,37.39 38.56,5.6 45.11,-1.73 74.26,-10.13 15.37,-4.43 37.65,-2.88 48.68,-14.02 26.44,-26.71 -10.34,-61.53 -112.53,-13.23z"/>
   <path fill="#26493B" d="M1568.77 951.59c-160.69,53.03 -59.07,106.86 17.76,41.76 22,-18.64 24.86,-55.82 -17.76,-41.76z"/>
   <path fill="#4A1933" d="M1148.44 452.62c21.21,-0.91 22.24,2.6 34.19,15.08 21.01,21.93 59.1,58.6 49.3,84.09 -20.43,-1.22 -34.44,-31.1 -46.38,-43.61 -17.64,-18.48 -38.19,-25.6 -37.11,-55.56zm99.21 107.35c6.28,-40.77 -15.01,-62.08 -34.98,-82.74 -10.06,-10.41 -52.13,-60.96 -73.82,-30.44 -19.16,26.96 27.23,66.44 61.26,105.27 5.78,6.59 10.07,11.86 20.36,13.64 15.98,2.77 14.58,-1.13 27.17,-5.72z"/>
   <path fill="#471529" d="M446.32 432.44c-8.29,-33.62 31.87,-99.4 56.03,-99.6 3.75,23.17 -12.95,36.5 -24.56,55.58 -10.26,16.86 -12.54,43.4 -31.47,44.02zm4.55 -73.15c-9.36,23.12 -34.94,54.79 -17.91,85.79 35.79,21.39 45.4,-19.54 56.8,-41.34 12.77,-24.42 34.63,-39.72 29.78,-78.22 -45.35,-23.49 -42.09,10.36 -68.67,33.77z"/>
   <path fill="#292627" d="M709.14 244.9c1.57,-31.51 49.19,-81.95 85.94,-83.2 -3.91,23.71 -22.33,13.29 -59.05,67.32 -9.17,13.49 -5.91,16.9 -26.88,15.87zm51.65 -94.44c-6.45,7.18 -22.09,22 -32.04,32.21 -15,15.4 -17.47,20.17 -29.53,38.86 -9.15,33.3 -4.26,38.73 30.95,37.03 6.8,-7.23 13.01,-13.32 20.34,-22.99 24.83,-32.76 16.52,-22.18 44.34,-45.62 16.76,-14.12 16.33,-11.44 13.79,-37.62 -23.22,-10.57 -21.26,-7.58 -47.86,-1.88z"/>
   <path fill="#471529" d="M118.71 949.17c-4.66,-42.37 66.44,-76.5 89.8,-74.43 1.01,23.53 -22.84,27.11 -40.55,42.22 -35.24,30.06 -28.24,33.55 -49.25,32.2zm6.68 -50.51c-9.73,14.07 -14.71,13.38 -21.18,33.86l0.25 29.45c36.26,15.87 50.13,-13.11 72.02,-32.42 23.21,-20.47 57.47,-21.43 44.8,-63.44 -42.19,-18.05 -68.98,17.53 -95.88,32.55z"/>
   <path fill="#4A1933" d="M721.92 1529.76c2.31,-28.74 23.81,-30.87 48,-38.52 22.16,-7 46.14,-17.78 63.38,-2.32 -2.76,21.88 -26.78,16.92 -50.14,22.33 -27.33,6.33 -33.65,18.58 -61.25,18.51zm118.38 -19.32c9.85,-9.82 7.84,-30.82 -5.12,-38.33 -22.19,-12.86 -97.95,7.14 -118.65,32.69 -28.01,34.58 9.52,49.07 45.19,33.38 18.04,-7.94 15.12,-10.45 39.41,-14.8 12.43,-2.22 31.56,-5.36 39.17,-12.94z"/>
   <path fill="#471529" d="M1582.01 1182.45c-2.04,-21.41 12.56,-39.63 19.96,-59.93 7.04,-19.32 9.81,-42.69 29.53,-44.58 5.85,28.66 -10.38,73.18 -22.68,91.14 -7.54,11.01 -10.22,13.57 -26.8,13.37zm61.04 -112.2c-36.62,-14.88 -42.61,14.78 -53.11,45.43 -5.54,16.15 -33.54,60.54 -15.48,78.11 37.43,36.43 88.07,-70.66 68.59,-123.54z"/>
   <path fill="#4A1933" d="M921.04 1633.41c24.25,0.08 31.95,21.46 47.37,32.92 8.77,6.51 52.41,26.22 30.28,37.78 -15.43,8.06 -44.9,-17.04 -52.77,-23.8 -20.34,-17.44 -34.62,-28.04 -24.87,-46.91zm97.65 57.42c-3.98,-14.16 -44.23,-37.93 -56.75,-49.83 -13.27,-12.61 -16.89,-21.61 -36.96,-20.38 -19.81,1.22 -24.57,13.73 -19.58,33.61 4.4,17.56 37.2,45.28 50.61,55.55 20.56,15.73 74.13,21.76 62.68,-18.96z"/>
   <path fill="#311631" d="M425.97 873.79c-0.28,-15.3 4.3,-17.31 13.2,-24.02 8.74,-6.58 12.43,-10.45 20.65,-19.01 13.57,-14.15 25.07,-33.03 42.29,-32.72 2.7,34.5 -44.9,75.76 -76.14,75.75zm-14.63 -18.97l-1.12 26.82c41.21,31.68 102.92,-42.84 106.74,-65.91 4.97,-30.03 -7.22,-33.05 -33.19,-29.42 -10.6,9.22 -23.47,23.23 -34.74,33.75 -7.39,6.9 -11.89,9.94 -18.96,16.56 -5.31,4.97 -11.86,13.63 -18.73,18.21z"/>
   <path fill="#471529" d="M1029.96 1443.1c1.47,22.05 -18.81,40.2 -30.73,53.23 -46.25,50.54 -79.96,38.77 -19.25,-19.36 34.43,-32.97 29.79,-37.43 49.98,-33.88zm-91.08 94.6c35.16,12.06 53.39,-10.76 73.59,-32.18 9.8,-10.39 47.39,-49.9 26.06,-71.24 -22.46,-22.47 -51.79,18.4 -67.68,33.39 -20.77,19.59 -46.47,36.63 -31.97,70.03z"/>
   <path fill="#4A1933" d="M359.49 557.53c24.19,-3 20.2,16.71 29.92,37.74 9.84,21.3 21.06,26.97 20.25,51.53 -15.1,0.58 -16.56,-0.25 -24.69,-11.14 -3.77,-5.05 -10.27,-16.59 -13.17,-22.26 -8.67,-16.96 -18.78,-35.12 -12.31,-55.86zm37.12 13.53c-5.23,-6.94 -10.44,-14.11 -10.9,-23.13 -59.92,-23.41 -45.8,32.38 -31.96,62.64 12.24,26.76 27.15,65.23 67.78,48.35 11.83,-30.53 -14.48,-57.65 -24.92,-87.86z"/>
   <path fill="#311631" d="M1698.28 975.12c26.56,-2.36 18.66,20.51 30.12,44.63 8.8,18.52 23.17,37.64 20.62,57.24 -41.25,5.99 -54.33,-75.24 -50.75,-101.87zm-1.77 76.88l5.66 15.66c1.03,0.61 46.35,52.64 59.18,7.81 7.08,-24.73 -9.7,-37.97 -19.75,-64.51 -10.75,-28.42 -8.45,-51.88 -45.05,-48.51 -25.04,29.48 -7.21,50.95 -0.04,89.55z"/>
   <path fill="#381626" d="M647.27 474.94c-24.37,-1.12 -35.88,-73.76 -28.82,-107.13 27.29,-0.86 15.3,22.76 20.26,50.27 3.93,21.79 14.38,32.17 8.56,56.86zm-36.48 -116.79c-16.2,28.71 -9.24,69.48 2.89,99.05 6.01,14.65 13.46,30.95 28.27,32.35 26.52,2.49 22.8,-25.63 20.42,-47.23 -9.02,-11.7 -11.92,-48.89 -13.63,-68.5 -5.28,-19.9 -19.47,-27.41 -37.95,-15.66z"/>
   <path fill="#4A1933" d="M1295.29 1217.24c-2.15,-28.73 41.12,-88.52 69,-88.47 2.88,22.23 -14.94,35.6 -26.82,52.47 -18.3,25.98 -18.5,35.34 -42.18,36zm23.85 -77.45c-5.55,9.93 -10.44,13.81 -16.32,22.4 -5.57,8.14 -10.58,17.68 -16.77,25.82 -16.84,52.48 22.21,61.03 53.41,18.5 30.65,-41.77 47.33,-54.17 36.14,-85.26 -34.65,-12.75 -36.81,6.25 -56.46,18.53z"/>
   <path fill="#471529" d="M307.01 1450.01c-11.83,-16.82 1.08,-38.02 10.64,-52.59 9.24,-14.08 19.73,-27.48 42.52,-27.87 -3.29,26.92 -13.65,21.56 -27.64,42.69 -18.11,27.36 -2.87,32.85 -25.52,37.77zm-2.84 -62.77c-10.28,26.27 -22.2,28.84 -16.86,66.58 38.21,30.26 40.17,1.45 56.35,-27.33 13.58,-24.16 41.62,-38.66 25.63,-73.3 -22.22,1.85 -24.13,-3.16 -40.49,11.81 -9.6,8.79 -14.94,19.37 -24.63,22.25z"/>
   <path fill="#312C33" d="M597.59 1578.74c24.01,2.05 11.08,2.15 33.03,42.89 10.2,18.94 21.81,25.66 21,46.44 -34.48,3.89 -57.65,-51.34 -54.03,-89.34zm-14.15 -7.14c-6.76,51.16 26.32,128.19 79.32,107.9 9.31,-26.12 -0.08,-35.67 -12.02,-54.12 -9.69,-14.98 -18.96,-30.03 -25.82,-49.01 -24.55,-22 -20.94,-10.76 -41.48,-4.78z"/>
   <path fill="#471529" d="M238.67 1215.43c-32.93,1.39 -55.56,-75.5 -43.91,-97.86 18.12,1.17 16.68,26.73 24.4,46.25 8.06,20.39 22.89,31.87 19.52,51.61zm3.42 -37.35c-5.5,-9.3 -11.02,-21.28 -14.9,-34.47 -6.9,-23.45 -4.31,-17.05 -14.67,-36.22 -45.81,-5.81 -40.81,29.31 -30.09,60.36 10.97,31.77 19.93,42.95 36.9,61.54 16.22,1.19 21.39,-0.2 31.49,-5.2 8.42,-25.45 0.55,-24.11 -8.74,-46.01z"/>
   <path fill="#4A1933" d="M1024.15 1372.1c12.17,-2.23 85.63,5.6 96.65,10.55 -1.33,21.32 -28.39,19.38 -53.43,15.55 -36.63,-5.6 -41.96,-8.92 -43.21,-26.09zm-12.42 -6.61c-3.13,22.21 -0.68,26.2 16.05,36.64 21.38,13.34 119.61,31.48 109.14,-26.76 -27.44,-16.22 -60.49,-5.22 -77.74,-17.67 -27.15,1.01 -27.6,-5.07 -47.45,7.8z"/>
   <path fill="#55162B" d="M1544.95 782.29c-4.99,-21.36 1.33,-29.95 3.44,-49.3 2.69,-24.66 -4.58,-41.2 21.15,-37.98 2.58,18.52 -0.65,37.92 -2.23,56.61 -1.63,19.27 -2.4,32.16 -22.36,30.67zm5.36 -96.84c-19.89,12.49 -24.1,94.87 -17.32,104.87 8,11.78 25.31,7.42 33.1,1.59 25.02,-18.74 35.72,-138.79 -15.78,-106.45z"/>
   <path fill="#F1F1F1" d="M1182.63 467.7c-11.95,-12.47 -12.98,-15.98 -34.19,-15.08 -1.08,29.95 19.46,37.08 37.11,55.56 11.94,12.5 25.95,42.38 46.38,43.61 9.8,-25.49 -28.29,-62.16 -49.3,-84.09z"/>
   <path fill="#E4D55D" d="M1029.96 1443.1c-20.19,-3.56 -15.55,0.9 -49.98,33.88 -60.7,58.13 -27,69.9 19.25,19.36 11.92,-13.03 32.2,-31.18 30.73,-53.23z"/>
   <path fill="#F4E955" d="M1085.34 241.71c-12.56,-8.48 -92.02,-10.29 -110.54,-2.12 -2.58,24.26 32.45,21.75 52.5,22.16 40.13,0.81 58.35,1.22 58.04,-20.04z"/>
   <path fill="#50B0D2" d="M1698.28 975.12c-3.59,26.62 9.49,107.86 50.75,101.87 2.55,-19.6 -11.83,-38.72 -20.62,-57.24 -11.46,-24.12 -3.56,-46.99 -30.12,-44.63z"/>
   <path fill="#E1DFDF" d="M721.92 1529.76c27.59,0.07 33.92,-12.18 61.25,-18.51 23.36,-5.41 47.37,-0.45 50.14,-22.33 -17.24,-15.45 -41.23,-4.67 -63.38,2.32 -24.2,7.65 -45.7,9.78 -48,38.52z"/>
   <path fill="#E4D55D" d="M118.71 949.17c21,1.35 14,-2.14 49.25,-32.2 17.71,-15.11 41.56,-18.69 40.55,-42.22 -23.36,-2.07 -94.46,32.06 -89.8,74.43z"/>
   <path fill="#1B8D62" d="M993.88 596.61c36.44,-0.87 76.23,-51.3 74.13,-77.47 -23.76,-6.17 -27.18,11.71 -42.67,27.01 -15.99,15.8 -32.82,22.16 -31.46,50.46z"/>
   <path fill="#E4D55D" d="M1582.01 1182.45c16.59,0.2 19.26,-2.36 26.8,-13.37 12.3,-17.96 28.53,-62.48 22.68,-91.14 -19.71,1.89 -22.49,25.26 -29.53,44.58 -7.4,20.3 -21.99,38.52 -19.96,59.93z"/>
   <path fill="#F1F1F1" d="M968.41 1666.33c-15.42,-11.46 -23.12,-32.84 -47.37,-32.92 -9.75,18.87 4.54,29.47 24.87,46.91 7.88,6.75 37.34,31.86 52.77,23.8 22.14,-11.56 -21.5,-31.27 -30.28,-37.78z"/>
   <path fill="#F1F1F1" d="M1295.29 1217.24c23.67,-0.66 23.88,-10.02 42.18,-36 11.89,-16.87 29.7,-30.24 26.82,-52.47 -27.89,-0.05 -71.15,59.74 -69,88.47z"/>
   <path fill="#33A9D3" d="M651.61 1668.08c0.81,-20.79 -10.8,-27.5 -21,-46.44 -21.95,-40.75 -9.02,-40.85 -33.03,-42.89 -3.62,38 19.55,93.23 54.03,89.34z"/>
   <path fill="#F1F1F1" d="M409.66 646.79c0.81,-24.56 -10.41,-30.22 -20.25,-51.53 -9.72,-21.03 -5.72,-40.74 -29.92,-37.74 -6.47,20.74 3.64,38.9 12.31,55.86 2.9,5.67 9.4,17.22 13.17,22.26 8.13,10.89 9.59,11.73 24.69,11.14z"/>
   <path fill="#E4D55D" d="M446.32 432.44c18.93,-0.61 21.21,-27.16 31.47,-44.02 11.61,-19.08 28.31,-32.41 24.56,-55.58 -24.16,0.2 -64.32,65.98 -56.03,99.6z"/>
   <path fill="#F1F1F1" d="M1163.26 276.62c-3.96,-12.58 -21.33,-30.8 -29.69,-43.59 -9.54,-14.6 -14.24,-33.47 -35.03,-34.87 -3.11,37.03 38.23,97.94 64.72,78.45z"/>
   <path fill="#33A9D3" d="M425.97 873.79c31.24,0.01 78.84,-41.25 76.14,-75.75 -17.22,-0.31 -28.72,18.57 -42.29,32.72 -8.22,8.56 -11.91,12.43 -20.65,19.01 -8.9,6.71 -13.48,8.72 -13.2,24.02z"/>
   <path fill="#CF242F" d="M798.45 1287.73c-1.54,33.73 25.76,73.24 64.27,72 -1.47,-14.49 -36.34,-70.36 -64.27,-72z"/>
   <path fill="#52B7E2" d="M709.14 244.9c20.97,1.03 17.72,-2.38 26.88,-15.87 36.73,-54.04 55.14,-43.62 59.05,-67.32 -36.75,1.24 -84.37,51.68 -85.94,83.2z"/>
   <path fill="#E1DFDF" d="M647.27 474.94c5.82,-24.69 -4.63,-35.07 -8.56,-56.86 -4.96,-27.5 7.02,-51.13 -20.26,-50.27 -7.06,33.37 4.45,106 28.82,107.13z"/>
   <path fill="#E1DFDF" d="M238.67 1215.43c3.37,-19.75 -11.46,-31.22 -19.52,-51.61 -7.72,-19.52 -6.28,-45.08 -24.4,-46.25 -11.65,22.36 10.98,99.25 43.91,97.86z"/>
   <path fill="#E1DFDF" d="M1120.79 1382.65c-11.02,-4.95 -84.48,-12.78 -96.65,-10.55 1.26,17.17 6.58,20.49 43.21,26.09 25.05,3.83 52.11,5.78 53.43,-15.55z"/>
   <path fill="#E4D55D" d="M307.01 1450.01c22.65,-4.92 7.41,-10.41 25.52,-37.77 13.99,-21.13 24.35,-15.77 27.64,-42.69 -22.79,0.39 -33.28,13.8 -42.52,27.87 -9.56,14.57 -22.47,35.77 -10.64,52.59z"/>
   <path fill="#E4D55D" d="M1544.95 782.29c19.95,1.49 20.73,-11.41 22.36,-30.67 1.58,-18.69 4.81,-38.09 2.23,-56.61 -25.73,-3.22 -18.46,13.32 -21.15,37.98 -2.11,19.35 -8.43,27.94 -3.44,49.3z"/>
  </g>
 </g>
</svg>
